<svg width="84" height="67" viewBox="0 0 84 67" fill="none" xmlns="http://www.w3.org/2000/svg">
<g filter="url(#filter0_d_132_395)">
<path d="M4.50589 32.6878L4.67439 11.964L24.5558 23.5896V44.3134L4.50589 32.6878Z" fill="#00B2B2"/>
<path d="M25.2293 45.4917L4 33.1922V11.6259L4.67396 11.2889L25.3978 23.2515L25.2293 45.4917ZM5.17943 32.3498L23.8814 43.1329V23.9254L5.17943 13.1423V32.3498Z" fill="#003555"/>
<path d="M28.2621 36.8991V57.623L14.7832 49.8726L14.9517 29.1487L28.2621 36.8991Z" fill="#00B2B2"/>
<path d="M48.8176 25.7785V44.9861L77.7974 28.3058V9.09836L48.8176 25.7785ZM47.4697 47.3449V25.1046L78.4713 7.245L79.1452 7.58199V29.1483L47.4697 47.3449Z" fill="#003555"/>
<path d="M78.4717 7.92004L78.3032 28.6439L47.9756 46.1665L48.1441 25.4427L78.4717 7.92004Z" fill="#003555"/>
<path d="M38.0346 31.3392L43.5946 34.372L43.4262 55.2643L37.8661 52.0631L38.0346 31.3392Z" fill="#00B2B2"/>
<path d="M57.4106 5.56078C44.4372 7.07716 24.5557 9.43601 23.3763 9.43601H22.7024V13.8167L29.7788 21.567H44.4371L59.0955 5.39233L57.4106 5.56078Z" fill="#00B2B2"/>
<path d="M43.5942 34.3722L38.0342 31.171L28.2619 36.731L14.9515 28.9807L24.7237 23.4206L4.6738 11.795L14.6145 6.06644L66.003 0.506348L78.471 7.75131L48.1434 25.2739L53.7034 28.4752L43.5942 34.3722ZM34.6644 17.692L40.5615 14.3223C41.7409 13.6483 43.2573 12.8059 45.1106 11.795C47.1325 10.7841 48.1434 10.2786 48.3119 10.2786L47.9749 10.1101C45.4476 10.6156 42.9203 11.121 40.393 11.458L26.5771 12.9744L34.6644 17.692Z" fill="#00B2B2"/>
<path d="M51.1761 27.1271L48.1434 25.4422L75.4382 9.77289L66.003 4.38135L14.6145 9.94139L5.17926 15.333V16.0069L24.5552 27.1271L14.783 32.6871L28.0934 40.4375L37.8657 34.8775L43.4258 38.0787L53.535 32.1817L47.9749 28.9804L51.1761 27.1271ZM40.5615 17.8603L34.6644 21.23L26.4086 16.5124L40.2245 14.996C42.7518 14.659 45.2791 14.3221 47.8064 13.6481L48.1434 13.8166C47.9749 13.8166 46.964 14.3221 44.9421 15.333C43.2573 16.3439 41.7409 17.1863 40.5615 17.8603Z" fill="#F2F8FC"/>
<path d="M40.8986 14.827C41.9096 14.1531 43.4259 13.3106 45.4478 12.2997C47.8066 10.9518 48.3121 10.7833 48.3121 10.7833L49.9969 10.4464L47.8066 9.26697H47.6381C45.1108 9.77243 42.5835 10.2779 40.0562 10.6148L24.2184 12.4682L34.4961 18.3652L40.8986 14.827ZM40.3932 11.9628C41.7411 11.7943 43.2575 11.6258 44.7738 11.2888C42.9205 12.2998 41.4041 13.1422 40.3932 13.6476L34.8331 16.8489L28.5991 13.3106L40.3932 11.9628Z" fill="#003555"/>
<path d="M79.1453 7.5819L66.1718 0L14.6148 5.56004L4.16867 11.6256V12.2995L23.5446 23.4197L14.4464 28.6428V50.209L28.4308 58.2964L38.203 52.7363L43.7631 55.9376L54.5462 49.7036V28.1373L49.6601 25.273L79.3138 8.08734V7.5819H79.1453ZM27.5883 56.4431L15.4573 49.5351V30.3276L24.8925 35.7192L27.5883 37.2356V56.4431ZM42.7521 54.0843L38.54 51.7255V32.5179L42.2467 34.7083L42.7521 35.0452V54.0843ZM46.7958 25.4415L52.3559 28.6428L49.3231 30.3276L43.5946 33.6974L43.4261 33.5289L38.0345 30.4961L28.2623 36.0562L26.9144 35.3822L16.1312 29.1482L25.9035 23.5881L5.85354 11.9626L14.7833 6.90797L65.8348 1.34787L77.1234 7.9189L46.7958 25.4415Z" fill="#003555"/>
<path d="M54.2092 42.6277L53.0298 43.3017V29.1488L54.2092 28.4749V42.6277Z" fill="#00B2B2"/>
</g>
<defs>
<filter id="filter0_d_132_395" x="0" y="0" width="83.3138" height="66.2964" filterUnits="userSpaceOnUse" color-interpolation-filters="sRGB">
<feFlood flood-opacity="0" result="BackgroundImageFix"/>
<feColorMatrix in="SourceAlpha" type="matrix" values="0 0 0 0 0 0 0 0 0 0 0 0 0 0 0 0 0 0 127 0" result="hardAlpha"/>
<feOffset dy="4"/>
<feGaussianBlur stdDeviation="2"/>
<feComposite in2="hardAlpha" operator="out"/>
<feColorMatrix type="matrix" values="0 0 0 0 0 0 0 0 0 0 0 0 0 0 0 0 0 0 0.25 0"/>
<feBlend mode="normal" in2="BackgroundImageFix" result="effect1_dropShadow_132_395"/>
<feBlend mode="normal" in="SourceGraphic" in2="effect1_dropShadow_132_395" result="shape"/>
</filter>
</defs>
</svg>
