<svg width="21" height="21" viewBox="0 0 21 21" fill="none" xmlns="http://www.w3.org/2000/svg">
<path d="M6.81145 16.8631C8.05816 16.9049 9.30058 16.6962 10.4653 16.2496C11.63 15.803 12.6934 15.1274 13.5925 14.2628C14.4917 13.3982 15.2084 12.3622 15.7004 11.2159C16.1923 10.0696 16.4495 8.83629 16.4567 7.5889C17.028 6.88188 17.4522 6.06778 17.7045 5.19446C17.7233 5.12546 17.7218 5.05249 17.7001 4.98434C17.6784 4.91618 17.6375 4.85575 17.5823 4.81031C17.527 4.76487 17.4598 4.73638 17.3888 4.72824C17.3177 4.72011 17.2458 4.73269 17.1817 4.76447C16.8828 4.90836 16.5463 4.95483 16.2196 4.89735C15.8929 4.83988 15.5925 4.68134 15.3606 4.44409C15.0646 4.11998 14.7066 3.85858 14.3078 3.67536C13.9089 3.49215 13.4774 3.39086 13.0386 3.3775C12.5999 3.36413 12.163 3.43896 11.7537 3.59755C11.3445 3.75614 10.9712 3.99527 10.656 4.30076C10.2245 4.71866 9.90848 5.24108 9.73858 5.81725C9.56869 6.39342 9.55073 7.00374 9.68647 7.5889C6.86204 7.75753 4.92288 6.41698 3.37155 4.57899C3.32495 4.52621 3.26398 4.48815 3.1961 4.46944C3.12823 4.45074 3.05637 4.45221 2.98931 4.47367C2.92225 4.49513 2.86289 4.53565 2.81848 4.59028C2.77407 4.64492 2.74653 4.71131 2.73922 4.78134C2.44368 6.42071 2.65687 8.11125 3.35015 9.62592C4.04344 11.1406 5.18361 12.4069 6.61754 13.2546C5.65608 14.3573 4.3059 15.046 2.84882 15.1769C2.77076 15.1899 2.6987 15.2269 2.64273 15.2828C2.58675 15.3388 2.54967 15.4108 2.53666 15.4888C2.52365 15.5669 2.53537 15.6471 2.57018 15.7181C2.60499 15.7892 2.66114 15.8476 2.73079 15.8851C3.99843 16.5186 5.39438 16.8532 6.81145 16.8631Z" fill="white"/>
</svg>
