<svg width="127" height="80" viewBox="0 0 127 80" fill="none" xmlns="http://www.w3.org/2000/svg">
<mask id="path-1-outside-1_12_304" maskUnits="userSpaceOnUse" x="-0.5" y="-0.599609" width="128" height="80" fill="black">
<rect fill="white" x="-0.5" y="-0.599609" width="128" height="80"/>
<path d="M123.89 61.1004H115.69V75.4004H98.7898V61.1004H69.2898V48.7004L99.7898 4.00039H115.69V48.0004H123.89V61.1004ZM98.7898 48.0004V37.9004C98.7898 36.6337 98.8232 35.0337 98.8898 33.1004C98.9565 31.1671 99.0232 29.4004 99.0898 27.8004C99.1565 26.2004 99.2232 25.2337 99.2898 24.9004H98.7898C98.1898 26.3004 97.5898 27.5671 96.9898 28.7004C96.3898 29.7671 95.6565 30.9671 94.7898 32.3004L84.2898 48.0004H98.7898ZM53.8 39.7004C53.8 47.3671 52.9667 53.9337 51.3 59.4004C49.7 64.8671 47.0333 69.0671 43.3 72.0004C39.6333 74.9337 34.6667 76.4004 28.4 76.4004C19.6667 76.4004 13.2333 73.1671 9.1 66.7004C5.03333 60.2337 3 51.2337 3 39.7004C3 32.0337 3.8 25.4671 5.4 20.0004C7.06667 14.5337 9.76667 10.3337 13.5 7.40039C17.2333 4.46705 22.2 3.00039 28.4 3.00039C34.2667 3.00039 39.0667 4.46705 42.8 7.40039C46.5333 10.2671 49.3 14.4337 51.1 19.9004C52.9 25.3671 53.8 31.9671 53.8 39.7004ZM20.2 39.8004C20.2 47.3337 20.7667 53.0337 21.9 56.9004C23.0333 60.7004 25.2 62.6004 28.4 62.6004C31.6 62.6004 33.7667 60.7004 34.9 56.9004C36.1 53.1004 36.7 47.3671 36.7 39.7004C36.7 34.6337 36.4333 30.4004 35.9 27.0004C35.4333 23.6004 34.6 21.0671 33.4 19.4004C32.2 17.6671 30.5333 16.8004 28.4 16.8004C26.2667 16.8004 24.6 17.6671 23.4 19.4004C22.2 21.0671 21.3667 23.6004 20.9 27.0004C20.4333 30.4004 20.2 34.6671 20.2 39.8004Z"/>
</mask>
<path d="M123.89 61.1004H115.69V75.4004H98.7898V61.1004H69.2898V48.7004L99.7898 4.00039H115.69V48.0004H123.89V61.1004ZM98.7898 48.0004V37.9004C98.7898 36.6337 98.8232 35.0337 98.8898 33.1004C98.9565 31.1671 99.0232 29.4004 99.0898 27.8004C99.1565 26.2004 99.2232 25.2337 99.2898 24.9004H98.7898C98.1898 26.3004 97.5898 27.5671 96.9898 28.7004C96.3898 29.7671 95.6565 30.9671 94.7898 32.3004L84.2898 48.0004H98.7898ZM53.8 39.7004C53.8 47.3671 52.9667 53.9337 51.3 59.4004C49.7 64.8671 47.0333 69.0671 43.3 72.0004C39.6333 74.9337 34.6667 76.4004 28.4 76.4004C19.6667 76.4004 13.2333 73.1671 9.1 66.7004C5.03333 60.2337 3 51.2337 3 39.7004C3 32.0337 3.8 25.4671 5.4 20.0004C7.06667 14.5337 9.76667 10.3337 13.5 7.40039C17.2333 4.46705 22.2 3.00039 28.4 3.00039C34.2667 3.00039 39.0667 4.46705 42.8 7.40039C46.5333 10.2671 49.3 14.4337 51.1 19.9004C52.9 25.3671 53.8 31.9671 53.8 39.7004ZM20.2 39.8004C20.2 47.3337 20.7667 53.0337 21.9 56.9004C23.0333 60.7004 25.2 62.6004 28.4 62.6004C31.6 62.6004 33.7667 60.7004 34.9 56.9004C36.1 53.1004 36.7 47.3671 36.7 39.7004C36.7 34.6337 36.4333 30.4004 35.9 27.0004C35.4333 23.6004 34.6 21.0671 33.4 19.4004C32.2 17.6671 30.5333 16.8004 28.4 16.8004C26.2667 16.8004 24.6 17.6671 23.4 19.4004C22.2 21.0671 21.3667 23.6004 20.9 27.0004C20.4333 30.4004 20.2 34.6671 20.2 39.8004Z" fill="#F2F8FC"/>
<path d="M123.89 61.1004V64.1004H126.89V61.1004H123.89ZM115.69 61.1004V58.1004H112.69V61.1004H115.69ZM115.69 75.4004V78.4004H118.69V75.4004H115.69ZM98.7898 75.4004H95.7898V78.4004H98.7898V75.4004ZM98.7898 61.1004H101.79V58.1004H98.7898V61.1004ZM69.2898 61.1004H66.2898V64.1004H69.2898V61.1004ZM69.2898 48.7004L66.8117 47.0095L66.2898 47.7744V48.7004H69.2898ZM99.7898 4.00039V1.00039H98.205L97.3118 2.30952L99.7898 4.00039ZM115.69 4.00039H118.69V1.00039H115.69V4.00039ZM115.69 48.0004H112.69V51.0004H115.69V48.0004ZM123.89 48.0004H126.89V45.0004H123.89V48.0004ZM98.7898 48.0004V51.0004H101.79V48.0004H98.7898ZM98.8898 33.1004L101.888 33.2038V33.2038L98.8898 33.1004ZM99.0898 27.8004L102.087 27.9253V27.9253L99.0898 27.8004ZM99.2898 24.9004L102.232 25.4887L102.949 21.9004H99.2898V24.9004ZM98.7898 24.9004V21.9004H96.8117L96.0324 23.7186L98.7898 24.9004ZM96.9898 28.7004L99.6046 30.1712L99.6233 30.1378L99.6412 30.1041L96.9898 28.7004ZM94.7898 32.3004L97.2835 33.9682L97.2945 33.9518L97.3052 33.9354L94.7898 32.3004ZM84.2898 48.0004L81.7961 46.3326L78.6744 51.0004H84.2898V48.0004ZM123.89 61.1004V58.1004H115.69V61.1004V64.1004H123.89V61.1004ZM115.69 61.1004H112.69V75.4004H115.69H118.69V61.1004H115.69ZM115.69 75.4004V72.4004H98.7898V75.4004V78.4004H115.69V75.4004ZM98.7898 75.4004H101.79V61.1004H98.7898H95.7898V75.4004H98.7898ZM98.7898 61.1004V58.1004H69.2898V61.1004V64.1004H98.7898V61.1004ZM69.2898 61.1004H72.2898V48.7004H69.2898H66.2898V61.1004H69.2898ZM69.2898 48.7004L71.7679 50.3913L102.268 5.69126L99.7898 4.00039L97.3118 2.30952L66.8117 47.0095L69.2898 48.7004ZM99.7898 4.00039V7.00039H115.69V4.00039V1.00039H99.7898V4.00039ZM115.69 4.00039H112.69V48.0004H115.69H118.69V4.00039H115.69ZM115.69 48.0004V51.0004H123.89V48.0004V45.0004H115.69V48.0004ZM123.89 48.0004H120.89V61.1004H123.89H126.89V48.0004H123.89ZM98.7898 48.0004H101.79V37.9004H98.7898H95.7898V48.0004H98.7898ZM98.7898 37.9004H101.79C101.79 36.6811 101.822 35.1185 101.888 33.2038L98.8898 33.1004L95.8916 32.997C95.8243 34.9489 95.7898 36.5864 95.7898 37.9004H98.7898ZM98.8898 33.1004L101.888 33.2038C101.955 31.2762 102.021 29.5168 102.087 27.9253L99.0898 27.8004L96.0924 27.6755C96.0254 29.284 95.9585 31.0579 95.8916 32.997L98.8898 33.1004ZM99.0898 27.8004L102.087 27.9253C102.12 27.1374 102.152 26.5263 102.183 26.0818C102.218 25.5734 102.242 25.437 102.232 25.4887L99.2898 24.9004L96.3481 24.312C96.224 24.9327 96.1544 26.1887 96.0924 27.6755L99.0898 27.8004ZM99.2898 24.9004V21.9004H98.7898V24.9004V27.9004H99.2898V24.9004ZM98.7898 24.9004L96.0324 23.7186C95.4589 25.0568 94.8938 26.2478 94.3385 27.2967L96.9898 28.7004L99.6412 30.1041C100.286 28.8863 100.921 27.544 101.547 26.0822L98.7898 24.9004ZM96.9898 28.7004L94.3751 27.2296C93.8141 28.2269 93.116 29.3708 92.2745 30.6654L94.7898 32.3004L97.3052 33.9354C98.197 32.5633 98.9656 31.3072 99.6046 30.1712L96.9898 28.7004ZM94.7898 32.3004L92.2961 30.6326L81.7961 46.3326L84.2898 48.0004L86.7835 49.6682L97.2835 33.9682L94.7898 32.3004ZM84.2898 48.0004V51.0004H98.7898V48.0004V45.0004H84.2898V48.0004ZM51.3 59.4004L48.4304 58.5255L48.4255 58.5416L48.4208 58.5577L51.3 59.4004ZM43.3 72.0004L41.4465 69.6414L41.4362 69.6496L41.4259 69.6578L43.3 72.0004ZM9.1 66.7004L6.56043 68.2974L6.5663 68.3068L6.57224 68.3161L9.1 66.7004ZM5.4 20.0004L2.5304 19.1255L2.52551 19.1416L2.52079 19.1577L5.4 20.0004ZM13.5 7.40039L15.3535 9.75935L15.3535 9.75934L13.5 7.40039ZM42.8 7.40039L40.9465 9.75935L40.9597 9.76967L40.9729 9.77984L42.8 7.40039ZM51.1 19.9004L48.2505 20.8386V20.8386L51.1 19.9004ZM21.9 56.9004L19.0211 57.7442L19.0231 57.751L19.0251 57.7578L21.9 56.9004ZM34.9 56.9004L32.0393 55.997L32.032 56.0199L32.0251 56.043L34.9 56.9004ZM35.9 27.0004L32.9279 27.4083L32.9318 27.4368L32.9362 27.4653L35.9 27.0004ZM33.4 19.4004L30.9334 21.108L30.9492 21.1308L30.9654 21.1533L33.4 19.4004ZM23.4 19.4004L25.8346 21.1533L25.8508 21.1308L25.8666 21.108L23.4 19.4004ZM53.8 39.7004H50.8C50.8 47.1649 49.9869 53.4204 48.4304 58.5255L51.3 59.4004L54.1696 60.2753C55.9465 54.4471 56.8 47.5692 56.8 39.7004H53.8ZM51.3 59.4004L48.4208 58.5577C46.9605 63.5469 44.5967 67.1663 41.4465 69.6414L43.3 72.0004L45.1535 74.3593C49.47 70.9678 52.4395 66.1872 54.1792 60.2431L51.3 59.4004ZM43.3 72.0004L41.4259 69.6578C38.4455 72.0421 34.2135 73.4004 28.4 73.4004V76.4004V79.4004C35.1198 79.4004 40.8212 77.8253 45.1741 74.343L43.3 72.0004ZM28.4 76.4004V73.4004C20.524 73.4004 15.1259 70.5576 11.6278 65.0847L9.1 66.7004L6.57224 68.3161C11.3408 75.7765 18.8093 79.4004 28.4 79.4004V76.4004ZM9.1 66.7004L11.6396 65.1033C7.99014 59.3001 6 50.9367 6 39.7004H3H0C0 51.5308 2.07653 61.1673 6.56043 68.2974L9.1 66.7004ZM3 39.7004H6C6 32.2272 6.78155 25.9601 8.27921 20.8431L5.4 20.0004L2.52079 19.1577C0.818452 24.974 0 31.8402 0 39.7004H3ZM5.4 20.0004L8.2696 20.8753C9.79445 15.8737 12.194 12.2418 15.3535 9.75935L13.5 7.40039L11.6465 5.04143C7.33938 8.42563 4.33888 13.1937 2.5304 19.1255L5.4 20.0004ZM13.5 7.40039L15.3535 9.75934C18.4158 7.3532 22.6654 6.00039 28.4 6.00039V3.00039V0.000386953C21.7346 0.000386953 16.0508 1.58091 11.6465 5.04144L13.5 7.40039ZM28.4 3.00039V6.00039C33.7568 6.00039 37.8566 7.33155 40.9465 9.75935L42.8 7.40039L44.6535 5.04144C40.2767 1.60256 34.7765 0.000386953 28.4 0.000386953V3.00039ZM42.8 7.40039L40.9729 9.77984C44.1311 12.2049 46.5965 15.8153 48.2505 20.8386L51.1 19.9004L53.9495 18.9621C52.0035 13.0522 48.9355 8.32921 44.6271 5.02094L42.8 7.40039ZM51.1 19.9004L48.2505 20.8386C49.9232 25.9187 50.8 32.1836 50.8 39.7004H53.8H56.8C56.8 31.7505 55.8768 24.8154 53.9495 18.9621L51.1 19.9004ZM20.2 39.8004H17.2C17.2 47.4171 17.7655 53.4605 19.0211 57.7442L21.9 56.9004L24.7789 56.0566C23.7678 52.607 23.2 47.2503 23.2 39.8004H20.2ZM21.9 56.9004L19.0251 57.7578C19.6947 60.0029 20.7578 61.9935 22.397 63.431C24.0892 64.9149 26.1586 65.6004 28.4 65.6004V62.6004V59.6004C27.4414 59.6004 26.8275 59.3359 26.353 58.9198C25.8255 58.4573 25.2386 57.5979 24.7749 56.043L21.9 56.9004ZM28.4 62.6004V65.6004C30.6414 65.6004 32.7108 64.9149 34.403 63.431C36.0422 61.9935 37.1053 60.0029 37.7749 57.7578L34.9 56.9004L32.0251 56.043C31.5614 57.5979 30.9745 58.4573 30.447 58.9198C29.9725 59.3359 29.3586 59.6004 28.4 59.6004V62.6004ZM34.9 56.9004L37.7607 57.8038C39.103 53.5534 39.7 47.4455 39.7 39.7004H36.7H33.7C33.7 47.2886 33.097 52.6474 32.0393 55.997L34.9 56.9004ZM36.7 39.7004H39.7C39.7 34.5435 39.4296 30.1427 38.8638 26.5355L35.9 27.0004L32.9362 27.4653C33.4371 30.6581 33.7 34.724 33.7 39.7004H36.7ZM35.9 27.0004L38.8721 26.5924C38.3782 22.9936 37.4523 19.8943 35.8346 17.6475L33.4 19.4004L30.9654 21.1533C31.7477 22.2398 32.4885 24.2071 32.9279 27.4083L35.9 27.0004ZM33.4 19.4004L35.8666 17.6928C34.0983 15.1385 31.5037 13.8004 28.4 13.8004V16.8004V19.8004C29.563 19.8004 30.3017 20.1956 30.9334 21.108L33.4 19.4004ZM28.4 16.8004V13.8004C25.2963 13.8004 22.7017 15.1385 20.9334 17.6928L23.4 19.4004L25.8666 21.108C26.4983 20.1956 27.237 19.8004 28.4 19.8004V16.8004ZM23.4 19.4004L20.9654 17.6475C19.3477 19.8943 18.4218 22.9936 17.9279 26.5924L20.9 27.0004L23.8721 27.4083C24.3115 24.2071 25.0523 22.2398 25.8346 21.1533L23.4 19.4004ZM20.9 27.0004L17.9279 26.5924C17.436 30.1762 17.2 34.5904 17.2 39.8004H20.2H23.2C23.2 34.7437 23.4307 30.6246 23.8721 27.4083L20.9 27.0004Z" fill="url(#paint0_linear_12_304)" mask="url(#path-1-outside-1_12_304)"/>
<defs>
<linearGradient id="paint0_linear_12_304" x1="62.5" y1="-0.599609" x2="62.5" y2="85.4004" gradientUnits="userSpaceOnUse">
<stop stop-color="#00B2B2"/>
<stop offset="0.865385" stop-color="#003555"/>
</linearGradient>
</defs>
</svg>
