<svg width="672" height="408" viewBox="0 0 672 408" fill="none" xmlns="http://www.w3.org/2000/svg">
<path d="M174.762 29.624C204.612 10.3241 241.113 -1.30651 295.178 2.08594C369.885 6.77399 424.487 40.4092 467.08 76.9453C488.39 95.2247 506.665 114.203 522.978 130.668C539.241 147.082 553.635 161.085 567.064 169.181C611.556 196 628.468 234.931 626.691 272.715C624.91 310.581 604.35 347.4 573.671 369.809C543.023 392.195 497.265 400.62 444.028 403.382C390.805 406.143 330.563 403.241 270.954 403.241C211.508 403.241 163.049 397.941 125.489 382.343C88.0162 366.781 61.3386 340.947 45.434 299.669C29.4754 258.25 27.8844 223.117 37.057 191.496C46.239 159.843 66.2523 131.552 93.7865 103.916C121.523 76.075 144.801 48.9957 174.762 29.624Z" stroke="#00B2B2" stroke-width="3"/>
<mask id="mask0_148_139" style="mask-type:luminance" maskUnits="userSpaceOnUse" x="29" y="0" width="600" height="407">
<path d="M295.272 0.588462C186.548 -6.2337 147.982 47.3909 92.7239 102.857C37.4666 158.319 11.9234 216.867 44.0341 300.208C76.1458 383.549 151.96 404.741 270.955 404.741C389.951 404.741 512.494 416.352 574.556 371.02C636.615 325.69 657.758 222.099 567.838 167.896C514.879 135.971 445.57 10.0199 295.272 0.588462Z" fill="white"/>
</mask>
<g mask="url(#mask0_148_139)">
<path d="M121.044 387.228C119.881 372.788 115.197 359.075 110.525 345.463C105.909 332.009 100.716 317.816 100.485 303.428C100.384 297.217 103.218 284.587 112.073 286.961C115.066 287.764 116.949 291.014 118.301 293.543C120.081 296.877 121.477 300.425 122.708 303.991C127.35 317.455 128.185 331.867 128.15 345.997C128.123 356.624 127.383 367.3 128.253 377.909C128.305 378.542 129.253 378.561 129.251 377.909C129.211 363.02 130.043 348.151 132.67 333.478C133.924 326.477 135.621 319.563 137.629 312.743C138.348 310.3 140.628 306.56 143.134 305.91C146.859 304.944 151.466 305.983 152.898 310.004C158.248 325.021 153.714 341.188 148.729 355.625C146.625 361.719 144.53 367.808 141.825 373.66C139.618 378.435 137.45 383.23 135.329 388.044C134.707 389.455 134.093 390.868 133.501 392.292C133.253 392.887 134.22 393.143 134.464 392.558C138.251 383.449 142.963 374.698 146.292 365.417C151.278 351.51 156.848 337.227 156.22 322.196C156.082 318.874 155.516 315.579 154.673 312.367C153.916 309.482 153.022 307.291 150.427 305.67C148.6 304.529 146.265 304.443 144.197 304.697C141.562 305.022 140.659 305.725 139.245 307.871C138.705 308.691 137.439 309.912 137.174 310.791C136.666 312.466 136.174 314.145 135.701 315.83C134.7 319.395 133.822 322.995 133.024 326.611C131.565 333.233 130.511 339.941 129.745 346.677C128.564 357.04 128.224 367.485 128.252 377.909C128.584 377.909 128.918 377.909 129.25 377.909C128.25 365.701 129.27 353.4 129.126 341.171C128.964 327.338 127.435 313.441 122.477 300.44C120.66 295.674 118.505 289.918 114.171 286.871C109.69 283.722 104.703 287.184 102.256 291.092C99.0019 296.294 99.2066 303.218 99.8636 309.057C100.624 315.803 102.247 322.461 104.123 328.972C109.695 348.334 118.409 366.917 120.046 387.229C120.096 387.865 121.096 387.87 121.044 387.228Z" fill="#00B2B2"/>
<path d="M120.954 387.068C120.701 384.299 120.398 381.543 119.811 378.821C119.692 378.272 118.796 378.391 118.83 378.954C118.997 381.729 119.394 384.475 119.828 387.219C119.928 387.854 120.889 387.583 120.791 386.953C120.372 384.297 119.992 381.64 119.83 378.953C119.503 378.997 119.176 379.042 118.849 379.085C119.418 381.72 119.711 384.387 119.957 387.067C120.014 387.704 121.013 387.71 120.954 387.068Z" fill="#00B2B2"/>
<path d="M107.311 387.45C103.09 376.288 94.2381 368.096 86.3754 359.47C82.1625 354.849 78.2352 349.958 75.4052 344.353C72.7221 339.042 69.0794 331.064 72.7331 325.442C75.8905 320.583 82.7966 324.521 86.2346 326.835C90.6203 329.788 94.0803 333.748 97.4015 337.813C106.605 349.081 113.531 362.289 117.512 376.281C118.49 379.722 119.232 383.229 119.803 386.76C119.905 387.395 120.868 387.124 120.766 386.494C118.561 372.875 113.347 359.951 106.08 348.258C100.436 339.176 93.3893 329.415 83.7951 324.177C80.6836 322.478 76.6295 321.174 73.4271 323.327C69.364 326.06 70.007 332.027 71.0555 336.071C74.0472 347.614 82.2474 356.575 90.1799 365.031C96.5637 371.834 102.997 378.853 106.349 387.714C106.573 388.313 107.539 388.054 107.311 387.45Z" fill="#00B2B2"/>
<path d="M146.342 312.248C139.727 322.553 140.98 335.702 138.958 347.309C137.796 353.979 135.412 360.325 134.195 366.973C132.909 373.998 131.498 380.982 129.826 387.926C129.675 388.552 130.637 388.817 130.788 388.191C132.389 381.55 133.8 374.868 135.012 368.144C136.152 361.819 138.349 355.774 139.572 349.471C140.737 343.465 141.238 337.438 141.803 331.357C142.409 324.838 143.615 318.344 147.204 312.75C147.553 312.208 146.688 311.708 146.342 312.248Z" fill="#00B2B2"/>
<path d="M108.948 297.218C109.397 304.746 111.947 311.875 113.682 319.161C115.617 327.292 117.194 335.524 118.83 343.718C120.424 351.696 121.854 359.712 123.567 367.665C125.336 375.872 126.749 384.196 126.791 392.612C126.794 393.256 127.792 393.256 127.789 392.612C127.751 385.039 126.591 377.558 125.104 370.15C123.448 361.898 121.804 353.645 120.177 345.387C118.617 337.469 117.046 329.538 115.283 321.662C113.468 313.55 110.444 305.563 109.946 297.218C109.908 296.578 108.91 296.574 108.948 297.218Z" fill="#00B2B2"/>
<path d="M84.1235 338.846C91.6456 346.006 97.8317 354.379 103.489 363.053C106.352 367.446 108.948 372.051 111.539 376.611C114.438 381.712 116.089 387.111 118.188 392.55C118.418 393.144 119.384 392.886 119.151 392.284C117.257 387.373 115.843 382.376 113.309 377.734C110.642 372.847 107.829 367.96 104.822 363.276C99.033 354.261 92.6122 345.546 84.8304 338.139C84.3641 337.697 83.6561 338.402 84.1235 338.846Z" fill="#00B2B2"/>
<path d="M85.5006 352.295C91.5618 356.368 98.2063 359.568 103.939 364.123C104.437 364.52 105.149 363.818 104.645 363.417C98.8414 358.807 92.139 355.555 86.0049 351.434C85.4676 351.073 84.9684 351.939 85.5006 352.295Z" fill="#00B2B2"/>
<path d="M102.196 351.522C104.414 354.446 105.74 358.215 106.991 361.623C108.526 365.809 109.607 370.222 110.61 374.561C110.755 375.188 111.718 374.922 111.573 374.296C110.517 369.732 109.339 365.136 107.725 360.734C106.521 357.454 105.186 353.822 103.057 351.018C102.674 350.512 101.806 351.008 102.196 351.522Z" fill="#00B2B2"/>
<path d="M135.075 339.893C135.418 344.111 137.458 347.959 137.593 352.207C137.613 352.85 138.611 352.852 138.591 352.207C138.455 347.951 136.416 344.11 136.074 339.893C136.022 339.257 135.022 339.251 135.075 339.893Z" fill="#00B2B2"/>
<path d="M115.574 304.792C114.176 309.18 114.365 313.962 113.772 318.491C113.689 319.128 114.689 319.12 114.771 318.491C115.354 314.046 115.165 309.362 116.536 305.058C116.732 304.442 115.768 304.181 115.574 304.792Z" fill="#00B2B2"/>
<path d="M107.634 322.994C109.827 326.087 111.619 329.423 113.877 332.468C115.954 335.271 117.653 337.975 118.417 341.411C118.557 342.04 119.519 341.773 119.38 341.146C118.72 338.178 117.487 335.955 115.795 333.461C113.331 329.832 111.033 326.066 108.496 322.491C108.127 321.97 107.261 322.468 107.634 322.994Z" fill="#00B2B2"/>
<path d="M123.675 335.086C122.656 341.231 121.664 347.379 121.077 353.584C121.016 354.226 122.016 354.219 122.076 353.584C122.655 347.468 123.634 341.408 124.638 335.35C124.743 334.721 123.78 334.452 123.675 335.086Z" fill="#00B2B2"/>
<path d="M150.005 319.208C147.537 325.658 143.351 331.347 140.43 337.588C140.158 338.167 141.019 338.674 141.292 338.091C144.251 331.77 148.466 326.008 150.967 319.473C151.199 318.871 150.233 318.614 150.005 319.208Z" fill="#00B2B2"/>
</g>
<mask id="mask1_148_139" style="mask-type:luminance" maskUnits="userSpaceOnUse" x="29" y="0" width="600" height="407">
<path d="M295.272 0.588462C186.548 -6.2337 147.982 47.3909 92.7239 102.857C37.4666 158.319 11.9234 216.867 44.0341 300.208C76.1458 383.549 151.96 404.741 270.955 404.741C389.951 404.741 512.494 416.352 574.556 371.02C636.615 325.69 657.758 222.099 567.838 167.896C514.879 135.971 445.57 10.0199 295.272 0.588462Z" fill="white"/>
</mask>
<g mask="url(#mask1_148_139)">
<path d="M506.493 402.876C504.552 398.216 502.06 393.975 498.632 390.253C494.323 385.576 488.763 382.496 484.953 377.32C481.215 372.241 478.064 366.532 474.964 361.05C473.14 357.823 471.662 354.558 471.053 350.883C470.458 347.302 470.613 343.584 470.873 339.981C470.622 340.124 470.372 340.269 470.122 340.413C472.536 341.446 474.314 343.272 476.262 344.971C478.196 346.658 480.473 347.942 482.54 349.455C487.369 352.99 491.698 357.634 495.218 362.448C498.484 366.916 500.779 372.183 502.992 377.228C504.917 381.612 506.479 386.618 509.33 390.506C509.642 390.93 510.444 390.695 510.243 390.121C506.722 380.057 505.306 369.369 505.628 358.727C505.773 353.901 506.357 349.008 507.094 344.24C507.81 339.613 508.93 334.924 511.318 330.855C511.031 330.855 510.744 330.855 510.457 330.855C511.611 333.097 511.88 335.55 512.336 337.994C512.848 340.741 513.814 343.345 514.797 345.951C516.962 351.691 518.185 357.834 519.306 363.849C520.498 370.25 520.779 376.257 519.799 382.708C518.902 388.62 517.264 394.402 516.034 400.248C515.923 400.777 516.682 401.164 516.946 400.633C518.713 397.079 520.37 393.48 521.846 389.797C523.455 385.781 524.52 381.611 525.942 377.535C528.176 371.134 531.989 365.313 538.105 362.122C545.42 358.306 562.146 354.507 564.055 366.373C564.3 366.185 564.545 365.998 564.788 365.809C553.736 361.13 545.071 371.457 539.521 379.687C535.762 385.26 531.871 390.508 527.579 395.695C525.875 397.755 524.349 400.292 522.364 402.08C520.593 403.676 517.15 406.12 514.64 405.884C513.998 405.823 514.004 406.823 514.64 406.883C517.969 407.195 522.582 403.818 524.437 401.259C528.221 396.035 532.715 391.362 536.5 386.134C542.737 377.523 550.988 361.042 564.285 366.671C564.702 366.849 565.092 366.564 565.018 366.107C563.124 354.335 547.723 356.972 539.877 360.206C533.92 362.663 529.731 367.032 526.848 372.784C524.852 376.764 523.851 381.112 522.441 385.309C520.728 390.41 518.475 395.317 516.084 400.13C516.388 400.257 516.692 400.386 516.996 400.514C518.286 394.374 519.95 388.312 520.893 382.102C521.796 376.148 521.507 370.435 520.441 364.536C519.295 358.188 517.991 351.752 515.759 345.684C514.791 343.053 513.887 340.476 513.298 337.729C512.753 335.189 512.526 332.694 511.318 330.35C511.144 330.011 510.638 330.04 510.457 330.35C505.903 338.105 505.247 348.188 504.709 356.979C504.021 368.212 505.563 379.763 509.279 390.385C509.584 390.257 509.888 390.128 510.192 390C507.187 385.902 505.536 380.551 503.498 375.908C501.147 370.55 498.57 365.21 495.028 360.53C491.83 356.303 487.914 352.344 483.711 349.107C481.308 347.255 478.659 345.74 476.368 343.742C474.532 342.141 472.896 340.522 470.623 339.55C470.267 339.398 469.901 339.574 469.872 339.981C469.41 346.412 469.664 352.547 472.465 358.44C475.344 364.496 479.144 370.321 482.795 375.939C484.348 378.331 486.112 380.554 488.165 382.536C490.415 384.708 493.09 386.415 495.422 388.503C499.956 392.564 503.199 397.549 505.529 403.14C505.774 403.726 506.741 403.469 506.493 402.876Z" fill="#00B2B2"/>
<path d="M499.69 403.508C494.035 394.362 489.524 381.955 478.684 377.77C472.916 375.544 465.944 376.809 460.529 379.378C454.416 382.279 449.559 387.439 445.259 392.524C444.952 392.886 445.233 393.509 445.744 393.359C455.001 390.632 466.622 390.068 475.201 395.186C479.3 397.629 482.506 401.78 485.738 405.221C487.875 407.496 489.442 411.322 492.749 412.117C493.375 412.267 493.641 411.304 493.015 411.154C490.799 410.621 489.297 408.2 488.016 406.498C486.797 404.88 485.414 403.463 484.035 401.982C480.731 398.438 477.493 394.879 472.957 392.943C464.428 389.306 454.215 389.822 445.479 392.396C445.641 392.674 445.803 392.953 445.965 393.23C453.843 383.914 465.28 374.22 478.418 378.733C483.803 380.583 487.666 385.529 490.688 390.093C493.659 394.578 496 399.439 498.827 404.011C499.165 404.558 500.03 404.057 499.69 403.508Z" fill="#00B2B2"/>
<path d="M484.571 360.116C488.614 368.599 495.788 374.864 500.949 382.596C503.513 386.438 505.744 390.733 507.678 394.922C510.057 400.074 509.302 405.382 509.262 410.885C509.257 411.53 510.256 411.529 510.261 410.885C510.295 406.233 511.091 401.312 509.536 396.845C507.906 392.16 505.168 387.685 502.654 383.429C497.64 374.943 489.715 368.597 485.432 359.613C485.156 359.031 484.295 359.539 484.571 360.116Z" fill="#00B2B2"/>
<path d="M470.872 385.805C478.27 389.726 485.497 393.818 490.624 400.596C492.445 403.002 494.221 405.441 496.071 407.823C496.615 408.523 498.123 411.131 499.258 411.011C499.892 410.945 499.898 409.946 499.258 410.012C498.424 410.099 495.724 405.746 495.319 405.209C493.641 402.993 492.014 400.736 490.305 398.543C485.472 392.35 478.182 388.549 471.375 384.943C470.807 384.642 470.302 385.504 470.872 385.805Z" fill="#00B2B2"/>
<path d="M512.266 358.362C512.348 362.762 513.543 366.989 514.059 371.339C514.675 376.551 514.175 381.952 513.409 387.118C511.998 396.628 512.654 406.28 510.033 415.63C510.36 415.674 510.687 415.719 511.013 415.763C511.013 415.387 511.013 415.012 511.013 414.636C511.013 413.992 510.015 413.992 510.015 414.636C510.015 415.012 510.015 415.387 510.015 415.763C510.015 416.329 510.842 416.439 510.995 415.895C513.529 406.854 513.312 397.4 514.287 388.132C514.816 383.114 515.445 378.233 515.201 373.165C514.961 368.172 513.358 363.372 513.264 358.363C513.254 357.719 512.255 357.718 512.266 358.362Z" fill="#00B2B2"/>
<path d="M544.777 364.685C537.14 369.517 531.592 377.868 527.235 385.62C523.043 393.079 519.357 402.273 511.013 405.952C510.425 406.211 510.933 407.071 511.516 406.813C518.942 403.54 522.854 395.845 526.501 389.055C531.134 380.433 536.839 370.888 545.281 365.547C545.824 365.204 545.322 364.341 544.777 364.685Z" fill="#00B2B2"/>
</g>
<path d="M336.827 200.658C336.827 205.971 332.52 210.28 327.207 210.28C321.893 210.28 317.585 205.971 317.585 200.658V193.981C317.585 188.669 321.893 184.361 327.207 184.361C332.52 184.361 336.827 188.669 336.827 193.981V200.658Z" fill="#00B2B2"/>
<path d="M434.85 305.698C432.198 292.738 420.714 257.694 392.736 245.029C364.755 232.364 338.543 242.673 328.826 248.561C319.107 254.45 307.917 277.424 302.911 298.923C297.903 320.422 280.822 320.13 267.569 324.841L273.753 347.224L410.406 348.107C410.406 348.107 410.406 348.107 410.7 344.573C446.336 342.511 437.503 318.656 434.85 305.698ZM295.106 340.009C300.554 340.009 324.851 321.748 329.858 322.336C332.36 335.737 332.657 342.806 332.95 343.691C333.246 344.573 296.578 351.052 295.106 340.009Z" fill="#00B2B2"/>
<path d="M343.65 254.751C341.884 263.192 334.619 314.832 346.99 348.799C356.608 349.583 370.942 348.799 370.942 348.799C368.194 330.931 362.696 281.452 374.082 253.18C362.696 253.374 343.65 254.751 343.65 254.751Z" fill="#FFE4B5"/>
<path d="M349.933 239.435C340.215 240.027 337.956 250.53 342.375 257.008C346.791 263.487 355.134 258.185 356.608 254.947C367.114 264.862 380.759 255.929 383.703 241.203C383.702 240.027 367.016 236.785 349.933 239.435Z" fill="#FFE4B5"/>
<path d="M377.618 186.202C377.176 176.402 367.113 157.702 343.259 158.759C326.276 160.066 324.214 176.153 324.214 176.153C323.625 177.959 320.581 181.779 320.581 181.779C319.699 174.241 324.465 154.267 345.91 153.732C370.059 153.129 381.591 172.028 382.037 185.601C380.12 188.766 377.618 186.202 377.618 186.202Z" fill="#00B2B2"/>
<path d="M330.239 167.66C322.083 173.248 317.197 182.548 321.331 191.795C325.465 201.047 326.638 205.121 322.628 212.358C316.989 222.537 314.611 232.04 318.855 240.682C344.437 237.149 355.694 234.272 355.694 234.272C355.694 234.272 345.802 166.581 330.239 167.66Z" fill="#003555"/>
<path d="M368.214 214.239C368.214 214.239 374.541 233.304 375.14 241.359C375.686 248.744 351.245 253.673 349.511 245.931C347.704 236.718 345.019 221.057 345.019 221.057" fill="#E5C0AA"/>
<path d="M370.245 222.201L368.214 214.239L345.019 221.057C345.019 221.057 345.846 225.868 346.904 231.9C348.627 232.227 350.406 232.385 352.238 232.301C359.789 231.969 366.308 228.01 370.245 222.201Z" fill="#3B3B3B"/>
<path d="M327.666 204.977C328.232 217.673 338.985 227.502 351.675 226.935C364.368 226.369 374.201 215.619 373.634 202.922L372.548 178.616C371.981 165.921 361.228 156.089 348.536 156.659C335.842 157.226 326.012 167.975 326.58 180.67L327.666 204.977Z" fill="#E5C0AA"/>
<path d="M358.029 179.808C355.126 178.249 351.311 177.525 348.276 179.091C347.14 179.676 348.142 181.387 349.276 180.802C351.641 179.582 354.789 180.316 357.028 181.519C358.153 182.123 359.154 180.412 358.029 179.808Z" fill="#003555"/>
<path d="M330.286 183.016C331.658 181.716 333.623 181.242 335.451 181.618C336.699 181.873 337.229 179.964 335.978 179.707C333.438 179.187 330.789 179.81 328.884 181.615C327.955 182.495 329.359 183.893 330.286 183.016Z" fill="#003555"/>
<path d="M343.995 200.745C343.818 200.745 343.641 200.684 343.499 200.559L339.018 196.611C338.836 196.451 338.743 196.212 338.768 195.97C338.793 195.729 338.935 195.515 339.146 195.396L343.661 192.855C344.024 192.652 344.479 192.781 344.682 193.14C344.884 193.501 344.757 193.957 344.397 194.16L340.799 196.183L344.49 199.433C344.8 199.707 344.831 200.18 344.556 200.491C344.409 200.66 344.202 200.745 343.995 200.745Z" fill="#003555"/>
<path d="M345.655 207.098C344.448 207.098 343.259 206.78 342.335 206.147C341.993 205.914 341.905 205.448 342.139 205.107C342.371 204.766 342.837 204.679 343.179 204.91C344.451 205.78 346.59 205.822 348.048 205.009C348.927 204.519 349.955 203.51 349.862 201.485C349.842 201.072 350.162 200.721 350.576 200.703C350.981 200.68 351.339 201.004 351.358 201.417C351.458 203.594 350.541 205.335 348.777 206.318C347.841 206.839 346.74 207.098 345.655 207.098Z" fill="#003555"/>
<path d="M349.027 192.456C349.573 193.9 351.188 194.63 352.632 194.083C354.073 193.538 354.807 191.926 354.258 190.481C353.711 189.034 352.1 188.304 350.655 188.85C349.209 189.395 348.483 191.01 349.027 192.456Z" fill="#1A191F"/>
<path d="M332.306 193.455C332.853 194.897 334.466 195.632 335.911 195.085C337.353 194.54 338.087 192.923 337.541 191.478C336.994 190.034 335.381 189.307 333.937 189.854C332.491 190.397 331.761 192.01 332.306 193.455Z" fill="#1A191F"/>
<path d="M333.028 192.796C332.911 192.796 332.794 192.765 332.686 192.699L329.958 191.028C329.648 190.838 329.551 190.432 329.741 190.123C329.931 189.813 330.337 189.717 330.646 189.906L333.373 191.578C333.682 191.768 333.78 192.173 333.59 192.482C333.467 192.684 333.25 192.796 333.028 192.796Z" fill="#1A191F"/>
<path d="M352.842 191.813C352.633 191.813 352.429 191.714 352.301 191.53C352.094 191.231 352.168 190.822 352.467 190.615L355.318 188.638C355.617 188.43 356.026 188.506 356.233 188.805C356.44 189.103 356.366 189.513 356.067 189.72L353.215 191.696C353.102 191.775 352.971 191.813 352.842 191.813Z" fill="#1A191F"/>
<path d="M395.513 205.121C391.698 196.9 396.408 191.795 394.377 183.963C392.596 177.112 384.442 177.324 380.236 167.619C373.792 152.739 340.632 139.342 328.268 169.539C342.013 160.219 356.101 165.063 361.448 171.953C372.232 185.847 361.167 191.734 365.329 199.996C368.361 206.015 370.35 210.071 366.43 219.182C362.511 228.292 367.998 236.956 367.998 236.956C380.83 235.535 395.338 234.274 408.518 232.041C408.519 209.806 399.326 213.343 395.513 205.121Z" fill="#003555"/>
<path d="M337.17 318.952C325.982 319.933 321.662 323.272 311.647 328.574C301.634 333.876 299.475 335.053 301.829 336.036C295.94 336.428 299.375 339.567 303.498 338.192C300.751 339.372 304.578 340.649 310.076 338.587C311.45 340.747 318.519 339.768 323.035 337.214C327.55 334.66 338.35 332.5 348.166 335.839C349.346 329.753 345.614 319.15 345.614 319.15L337.17 318.952Z" fill="#E5C0AA"/>
<path d="M344.288 319.1C350.326 317.775 367.212 316.398 377.226 316.99C377.815 324.842 373.495 340.746 373.495 340.746L346.792 334.855C346.792 334.855 348.12 326.462 344.288 319.1Z" fill="#00B2B2"/>
<path d="M343.783 319.239C355.706 317.515 367.763 317.549 379.779 317.211C385.567 317.047 391.119 316.375 396.855 315.719C402.307 315.096 408.764 316.279 414.005 317.865C414.624 318.052 414.885 317.088 414.271 316.901C409.432 315.437 403.766 314.475 398.699 314.585C396.188 314.639 393.672 315.153 391.195 315.522C387.749 316.037 384.237 316.07 380.761 316.181C368.323 316.584 355.863 316.491 343.518 318.275C342.882 318.367 343.153 319.329 343.783 319.239Z" fill="#1F0E03"/>
<path d="M396.966 288.652C398.102 296.945 398.694 305.282 398.716 313.651C398.718 314.296 399.717 314.296 399.715 313.651C399.692 305.19 399.077 296.769 397.93 288.386C397.842 287.75 396.88 288.022 396.966 288.652Z" fill="#1F0E03"/>
<path d="M346.006 335.353C349.615 335.31 352.961 336.911 356.386 337.839C360.455 338.943 364.439 340.326 368.506 341.441C376.726 343.695 385.274 345.126 393.784 345.618C407.324 346.401 423.706 345.737 433.929 335.601C434.386 335.147 433.68 334.441 433.223 334.895C422.537 345.489 404.975 345.502 390.952 344.431C382.565 343.789 374.156 342.079 366.09 339.72C362.466 338.659 358.85 337.552 355.232 336.471C352.187 335.562 349.237 334.315 346.007 334.354C345.363 334.362 345.362 335.361 346.006 335.353Z" fill="#1F0E03"/>
<path d="M326.088 278.375C325.195 281.054 325.462 283.935 325.5 286.718C325.554 290.547 325.836 294.37 326.036 298.192C326.232 301.968 326.346 305.746 326.65 309.515C326.929 312.994 328.246 316.292 328.426 319.738C328.46 320.379 329.459 320.382 329.425 319.738C329.259 316.587 328.051 313.605 327.733 310.454C327.385 307.006 327.276 303.533 327.123 300.072C326.968 296.582 326.73 293.097 326.585 289.608C326.44 286.115 325.933 281.998 327.051 278.639C327.254 278.027 326.289 277.768 326.088 278.375Z" fill="#1F0E03"/>
<path d="M341.206 244.209C339.639 249.736 338.535 256.791 344.733 259.898C346.968 261.019 349.515 260.463 351.67 259.487C353.186 258.8 354.506 257.641 355.759 256.567C357.025 255.482 357.58 257.127 358.699 257.928C367.806 264.441 379.795 255.423 382.811 246.438C383.015 245.826 382.051 245.565 381.847 246.172C378.629 255.76 364.876 264.566 356.96 254.788C356.782 254.568 356.44 254.621 356.254 254.788C352.971 257.739 348.702 261.234 344.223 258.469C339.341 255.455 340.904 248.929 342.167 244.474C342.344 243.853 341.381 243.591 341.206 244.209Z" fill="#1F0E03"/>
<path d="M309.621 339.464C312.768 338.905 315.29 336.936 317.938 335.276C321.588 332.986 325.688 331.671 329.647 330.038C330.233 329.797 329.978 328.829 329.382 329.075C326.113 330.424 322.766 331.562 319.608 333.166C316.175 334.907 313.246 337.81 309.355 338.501C308.722 338.613 308.992 339.575 309.621 339.464Z" fill="#1F0E03"/>
<path d="M302.476 339.409C310.428 336.051 317.752 331.332 325.915 328.463C326.518 328.25 326.259 327.286 325.65 327.499C317.404 330.398 310.003 335.154 301.972 338.548C301.381 338.797 301.89 339.657 302.476 339.409Z" fill="#1F0E03"/>
<path d="M300.708 337.055C303.848 335.149 307.432 334.263 310.659 332.548C313.857 330.85 317.035 329.11 320.342 327.631C320.93 327.368 320.421 326.509 319.838 326.769C316.531 328.247 313.35 329.984 310.156 331.686C306.928 333.407 303.348 334.285 300.204 336.194C299.654 336.526 300.156 337.39 300.708 337.055Z" fill="#1F0E03"/>
<path d="M352.494 263.276C352.83 265.048 355.338 264.987 356.149 263.617C356.599 262.856 356.11 261.96 355.415 261.564C354.563 261.08 353.277 261.163 352.694 262.006C352.328 262.538 353.193 263.036 353.556 262.51C353.995 261.874 355.831 262.538 355.186 263.252C354.696 263.794 353.614 263.836 353.458 263.01C353.337 262.378 352.374 262.647 352.494 263.276Z" fill="#1F0E03"/>
<path d="M351.17 270.663C350.916 272.43 352.964 272.927 354.151 271.943C354.757 271.442 355.075 270.475 354.563 269.793C354.032 269.083 353.001 269.198 352.255 269.434C351.643 269.627 351.904 270.591 352.52 270.398C352.893 270.28 353.379 270.14 353.741 270.355C354.051 270.537 353.637 271.094 353.471 271.215C353.106 271.482 352.026 271.679 352.134 270.929C352.225 270.299 351.262 270.027 351.17 270.663Z" fill="#1F0E03"/>
<path d="M350.563 280.222C350.651 282.225 353.606 281.426 353.902 279.913C354.263 278.065 351.043 277.054 350.728 279.059C350.629 279.689 351.591 279.959 351.691 279.325C351.812 278.554 352.915 279.082 352.928 279.681C352.939 280.153 351.586 280.794 351.562 280.223C351.534 279.581 350.535 279.579 350.563 280.222Z" fill="#1F0E03"/>
<path d="M331.125 334.853C330.976 336.326 331.185 338.028 331.732 339.406C331.967 339.997 332.934 339.739 332.696 339.14C332.174 337.827 331.981 336.257 332.124 334.853C332.19 334.213 331.19 334.22 331.125 334.853Z" fill="#1F0E03"/>
<path d="M343.596 319.384C345.459 320.694 345.607 323.29 346.134 325.312C346.832 327.988 347.35 331.307 346.166 333.919C345.901 334.5 346.763 335.008 347.027 334.422C348.364 331.475 347.806 328.097 347.096 325.046C346.545 322.681 346.218 320.012 344.098 318.522C343.572 318.151 343.074 319.018 343.596 319.384Z" fill="#1F0E03"/>
<path d="M319.51 206.415C317.941 218.061 335.145 218.099 342.573 217.745C343.214 217.715 343.217 216.717 342.573 216.747C336.017 217.059 319.032 217.374 320.472 206.68C320.557 206.051 319.595 205.78 319.51 206.415Z" fill="#1F0E03"/>
<path d="M348.364 217.1C348.364 218.753 346.715 220.094 344.681 220.094C342.649 220.094 341.002 218.753 341.002 217.1C341.002 215.447 342.648 214.104 344.681 214.104C346.715 214.105 348.364 215.447 348.364 217.1Z" fill="#00B2B2"/>
<path d="M345.91 153.732C333.677 154.039 326.878 160.666 323.452 167.705C324.619 167.834 325.88 168.176 326.929 168.672C329.465 164.281 334.273 159.452 343.259 158.759C367.114 157.702 377.176 176.402 377.618 186.202C377.618 186.202 380.121 188.766 382.037 185.6C381.592 172.028 370.058 153.129 345.91 153.732Z" fill="#00B2B2"/>
<path d="M389.791 200.658C389.791 205.971 385.482 210.28 380.171 210.28C374.855 210.28 370.549 205.971 370.549 200.658V193.981C370.549 188.669 374.855 184.361 380.171 184.361C385.482 184.361 389.791 188.669 389.791 193.981V200.658Z" fill="#00B2B2"/>
<path d="M387.526 199.629C387.176 206.124 378.461 207.611 376.068 201.514C375.354 199.694 375.761 197.116 375.761 195.201C375.761 188.555 384.898 187.408 387.218 193.317C387.932 195.136 387.526 197.714 387.526 199.629C387.526 200.273 388.524 200.273 388.524 199.629C388.524 195.622 388.917 191.757 385.116 189.261C380.513 186.238 375.027 190.296 374.763 195.201C374.55 199.142 374.518 203.171 378.17 205.571C382.774 208.594 388.259 204.534 388.524 199.629C388.559 198.985 387.56 198.989 387.526 199.629Z" fill="#1F0E03"/>
<path d="M274.931 339.372C280.429 339.372 348.166 339.372 351.701 339.372C355.235 339.372 356.02 346.441 350.131 346.441C344.241 346.441 174.014 346.441 174.014 346.441C168.712 335.839 144.955 271.045 142.599 264.959C140.244 258.873 142.404 251.804 152.024 251.804C161.644 251.804 212.495 251.804 219.564 251.804C226.632 251.804 234.486 252.979 239.394 263.779C244.303 274.58 274.931 339.372 274.931 339.372Z" fill="#5F7E91"/>
<path d="M351.944 346.16C352.176 346.079 352.384 345.98 352.579 345.876C352.599 345.867 352.617 345.86 352.633 345.85C355.649 344.161 354.614 339.372 351.702 339.372C351.127 339.372 348.848 339.372 345.418 339.372C327.774 339.372 279.537 339.372 274.932 339.372C274.932 339.372 274.909 339.319 274.873 339.243C274.838 339.17 274.79 339.07 274.724 338.93C274.451 338.354 273.919 337.224 273.166 335.632C266.579 321.692 243.591 273.01 239.396 263.78C234.488 252.98 226.633 251.805 219.566 251.805C218.451 251.805 216.242 251.805 213.281 251.805C220.35 251.805 228.204 252.98 233.113 263.78C238.021 274.58 268.65 339.372 268.65 339.372L271.301 346.249C271.301 346.249 274.61 346.328 279.893 346.441C307.393 346.441 332.472 346.441 343.848 346.441C347.329 346.441 349.548 346.441 350.131 346.441C350.485 346.441 350.81 346.412 351.116 346.364C351.31 346.334 351.485 346.28 351.661 346.23C351.754 346.205 351.857 346.189 351.944 346.16Z" fill="#49687A"/>
<path d="M211.121 300.104C213.06 304.897 210.763 308.782 205.992 308.782C201.221 308.782 195.781 304.897 193.844 300.104C191.907 295.309 194.203 291.423 198.974 291.423C203.745 291.423 209.184 295.31 211.121 300.104Z" stroke="#1F0E03" stroke-width="0.99856" stroke-miterlimit="10"/>
<path d="M441.767 351.921H164.813V395.824C195.216 402.296 236.193 406.973 276.547 407.484C331.789 408.182 389.071 407.555 441.767 404.992V351.921Z" fill="#00B2B2"/>
<path d="M453.26 350.827C453.26 353.445 451.135 355.571 448.515 355.571H158.063C155.444 355.571 153.32 353.445 153.32 350.827C153.32 348.207 155.444 346.082 158.063 346.082H448.515C451.135 346.082 453.26 348.207 453.26 350.827Z" fill="#003555"/>
<path d="M131.433 182.638C138.017 188.876 143.393 188.876 143.381 182.637C143.367 176.401 143.346 166.194 143.334 159.957C143.32 153.719 137.934 148.615 131.362 148.615C124.791 148.615 114.037 148.615 107.467 148.615C100.896 148.615 100.907 153.719 107.49 159.957C114.074 166.195 124.85 176.401 131.433 182.638Z" fill="#00B2B2"/>
<path d="M288.457 122.274C288.457 143.441 271.298 160.602 250.13 160.602H109.431C88.2637 160.602 71.1044 143.441 71.1044 122.274V71.7818C71.1044 50.6163 88.2637 33.4561 109.431 33.4561H250.13C271.298 33.4561 288.457 50.6163 288.457 71.7818V122.274Z" fill="#00B2B2"/>
<path d="M182.303 79.2822H178.996V72.5367H172.798V79.2822H169.491V63.645H172.798V69.7772H178.996V63.645H182.303V79.2822ZM195.238 79.2822H186.237V63.645H195.238V66.3607H189.544V69.7991H194.844V72.5148H189.544V76.5446H195.238V79.2822ZM198.492 79.2822V63.645H201.799V76.5446H208.15V79.2822H198.492ZM215.869 63.645C217.884 63.645 219.351 64.083 220.271 64.959C221.205 65.8205 221.673 67.0104 221.673 68.5289C221.673 69.2151 221.571 69.8721 221.366 70.5C221.162 71.1132 220.819 71.668 220.337 72.1644C219.87 72.6463 219.249 73.0259 218.475 73.3033C217.701 73.5807 216.745 73.7194 215.606 73.7194H214.183V79.2822H210.876V63.645H215.869ZM215.694 66.3607H214.183V71.0037H215.278C215.905 71.0037 216.446 70.9234 216.898 70.7628C217.351 70.6022 217.701 70.3467 217.95 69.9962C218.198 69.6458 218.322 69.1932 218.322 68.6384C218.322 67.8646 218.11 67.2951 217.687 66.9301C217.263 66.5505 216.599 66.3607 215.694 66.3607ZM227.103 74.0917H224.496L223.949 63.645H227.65L227.103 74.0917ZM223.905 77.7492C223.905 77.0775 224.088 76.6103 224.453 76.3475C224.818 76.0701 225.263 75.9314 225.789 75.9314C226.3 75.9314 226.738 76.0701 227.103 76.3475C227.468 76.6103 227.65 77.0775 227.65 77.7492C227.65 78.3916 227.468 78.8588 227.103 79.1508C226.738 79.4282 226.3 79.5669 225.789 79.5669C225.263 79.5669 224.818 79.4282 224.453 79.1508C224.088 78.8588 223.905 78.3916 223.905 77.7492Z" fill="#E5C0AA"/>
<path d="M267.912 83.3613H169.783V89.7431H267.912V83.3613Z" fill="#FFF2DB"/>
<path d="M254.522 98.8633H169.783V105.243H254.522V98.8633Z" fill="#FFF2DB"/>
<path d="M225.99 114.366H169.783V120.746H225.99V114.366Z" fill="#FFF2DB"/>
<path d="M260.69 129.865H169.783V136.248H260.69V129.865Z" fill="#FFF2DB"/>
<path d="M150.304 133.882C147.381 126.621 137.263 121.432 132.094 121.502H114.637C108.898 122.042 99.3504 126.621 96.4266 133.882C103.263 140.649 112.803 144.855 123.366 144.855C133.928 144.855 143.467 140.649 150.304 133.882Z" fill="#003555"/>
<path d="M116.235 106.597C116.235 106.597 114.563 120.332 113.409 128.097C112.566 133.769 132.924 135.363 133.542 129.248C134.082 121.995 134.703 109.703 134.703 109.703" fill="#E5C0AA"/>
<path d="M115.407 112.908L116.235 106.597L134.703 109.703C134.703 109.703 134.511 113.48 134.253 118.216C132.958 118.626 131.604 118.913 130.189 119.019C124.348 119.455 118.97 117.013 115.407 112.908Z" fill="#3B3B3B"/>
<path d="M146.567 95.7351C147.302 105.552 139.94 114.102 130.125 114.838C120.31 115.57 111.757 108.208 111.024 98.3903L109.618 79.5954C108.883 69.7826 116.248 61.2279 126.062 60.498C135.878 59.762 144.429 67.1244 145.163 76.9383L146.567 95.7351Z" fill="#E5C0AA"/>
<path d="M122.303 81.5609C124.802 81.0317 126.809 79.9173 128.307 77.8253C129.053 76.7848 127.334 75.7962 126.597 76.8247C125.406 78.4873 123.734 79.2353 121.776 79.6507C120.527 79.9153 121.057 81.8245 122.303 81.5609Z" fill="#003555"/>
<path d="M142.468 77.6647C141.069 77.4021 140.21 76.7381 139.524 75.4959C138.907 74.3775 137.195 75.377 137.813 76.4964C138.725 78.147 140.073 79.2245 141.941 79.576C143.191 79.8096 143.724 77.9004 142.468 77.6647Z" fill="#003555"/>
<path d="M133.55 94.16C133.373 94.16 133.195 94.0971 133.052 93.9693C132.744 93.6937 132.718 93.2203 132.993 92.9118L135.374 90.2486L132.641 89.1153C132.258 88.9565 132.078 88.5181 132.235 88.1367C132.393 87.7542 132.831 87.5725 133.214 87.7313L136.922 89.269C137.146 89.3619 137.311 89.5576 137.365 89.7943C137.419 90.0309 137.355 90.2786 137.193 90.4603L134.11 93.9103C133.961 94.0761 133.756 94.16 133.55 94.16Z" fill="#003555"/>
<path d="M129.048 101.736C128.814 101.736 128.582 101.626 128.436 101.419C128.197 101.082 128.277 100.614 128.615 100.376C131.565 98.2908 134.211 97.4521 136.49 97.8834C136.896 97.9603 137.163 98.3528 137.086 98.7592C137.008 99.1646 136.617 99.4292 136.21 99.3553C134.352 99.0018 132.085 99.7567 129.481 101.599C129.349 101.692 129.198 101.736 129.048 101.736Z" fill="#003555"/>
<path d="M128.984 88.0752C128.698 89.2355 127.524 89.9455 126.361 89.6599C125.203 89.3733 124.49 88.199 124.78 87.0367C125.065 85.8744 126.237 85.1644 127.4 85.453C128.56 85.7376 129.271 86.9139 128.984 88.0752Z" fill="#1A191F"/>
<path d="M141.937 87.3031C141.65 88.4604 140.478 89.1764 139.315 88.8878C138.154 88.6042 137.443 87.4249 137.73 86.2646C138.016 85.1043 139.191 84.3953 140.352 84.6849C141.514 84.9695 142.224 86.1428 141.937 87.3031Z" fill="#1A191F"/>
<path d="M114.441 93.6729C115.285 97.1449 113.155 100.646 109.68 101.488C106.206 102.332 102.707 100.202 101.863 96.7275L101.381 94.7423C100.537 91.2683 102.668 87.7704 106.142 86.9256C109.614 86.0818 113.115 88.2138 113.958 91.6867L114.441 93.6729Z" fill="#E5C0AA"/>
<path d="M104.677 87.5728C103.157 83.2401 95.7414 65.6145 106.768 65.0812C107.452 58.1612 117.073 54.5115 129.087 52.1549C141.103 49.7993 148.593 55.4252 147.68 61.0521C146.768 66.6799 139.39 68.732 133.536 67.0594C131.863 73.1426 123.802 71.0916 122.053 69.8733C120.703 75.7668 114.01 77.1928 114.772 81.2989C115.533 85.4059 115.874 89.5869 116.026 90.4247C116.178 91.2625 112.681 92.8971 111.92 91.2225C111.159 89.551 108.156 86.5473 104.677 87.5728Z" fill="#003555"/>
<path d="M137.892 183.814C145.184 185.261 141.006 160.523 140.957 156.793C140.791 156.959 140.624 157.125 140.457 157.292C156.15 157.432 171.846 157.473 187.539 157.335C198.757 157.237 209.966 156.95 221.186 156.951C228.085 156.951 234.947 156.696 241.838 156.43C249.227 156.145 256.592 156.17 263.791 154.257C277.562 150.598 282.575 136.037 283.997 123.258C284.068 122.618 283.069 122.626 282.999 123.258C281.942 132.743 279.067 143.136 271.438 149.454C265.692 154.213 257.222 154.817 250.09 155.162C242.989 155.508 235.856 155.808 228.746 155.91C206.257 156.233 183.749 156.452 161.255 156.402C154.323 156.386 147.389 156.355 140.457 156.294C140.188 156.292 139.955 156.522 139.958 156.793C139.999 159.938 143.251 183.862 138.157 182.851C137.529 182.727 137.26 183.689 137.892 183.814Z" fill="#1F0E03"/>
<path d="M283.531 80.5192C283.539 92.9223 284.072 105.395 283.226 117.78C283.182 118.424 284.182 118.42 284.225 117.78C285.07 105.394 284.538 92.9223 284.529 80.5192C284.528 79.8751 283.53 79.8751 283.531 80.5192Z" fill="#1F0E03"/>
<path d="M671.235 242.552C671.235 264.497 653.444 282.287 631.499 282.287H485.629C463.684 282.287 445.894 264.497 445.894 242.552V190.204C445.894 168.259 463.684 150.469 485.629 150.469H631.499C653.444 150.469 671.235 168.259 671.235 190.204V242.552Z" fill="#00B2B2"/>
<path d="M490.878 305.134C484.052 311.6 478.477 311.6 478.491 305.133C478.506 298.669 478.528 288.086 478.541 281.62C478.555 275.153 484.14 269.862 490.952 269.862C497.764 269.862 508.912 269.862 515.725 269.862C522.537 269.862 522.526 275.153 515.7 281.62C508.873 288.087 497.703 298.669 490.878 305.134Z" fill="#00B2B2"/>
<path d="M483.323 200.724H479.895V187.373H475.49V184.512H487.728V187.373H483.323V200.724ZM503.511 200.724H500.083V193.73H493.657V200.724H490.228V184.512H493.657V190.869H500.083V184.512H503.511V200.724ZM517.513 200.724L516.332 196.864H510.428L509.248 200.724H505.547L511.269 184.444H515.469L521.214 200.724H517.513ZM514.334 190.211C514.258 189.954 514.16 189.628 514.039 189.235C513.918 188.841 513.796 188.44 513.675 188.031C513.554 187.622 513.456 187.267 513.38 186.964C513.304 187.267 513.199 187.645 513.062 188.099C512.941 188.538 512.82 188.962 512.699 189.371C512.593 189.764 512.51 190.044 512.449 190.211L511.291 193.98H515.515L514.334 190.211ZM537.64 200.724H533.28L526.219 188.463H526.128C526.143 188.841 526.158 189.227 526.173 189.621C526.188 189.999 526.204 190.385 526.219 190.779C526.249 191.157 526.272 191.543 526.287 191.937C526.302 192.315 526.317 192.701 526.332 193.095V200.724H523.267V184.512H527.604L534.642 196.659H534.711C534.695 196.281 534.68 195.91 534.665 195.547C534.65 195.168 534.635 194.797 534.62 194.434C534.62 194.056 534.612 193.685 534.597 193.322C534.582 192.943 534.567 192.565 534.552 192.186V184.512H537.64V200.724ZM554.771 200.724H550.865L546.619 193.889L545.166 194.934V200.724H541.738V184.512H545.166V191.937C545.393 191.619 545.62 191.301 545.847 190.983C546.074 190.665 546.301 190.347 546.528 190.029L550.911 184.512H554.725L549.071 191.687L554.771 200.724ZM566.375 196.228C566.375 197.182 566.14 198.014 565.671 198.726C565.202 199.437 564.52 199.989 563.627 200.383C562.749 200.761 561.675 200.951 560.403 200.951C559.843 200.951 559.29 200.913 558.746 200.837C558.216 200.761 557.701 200.656 557.202 200.519C556.717 200.368 556.255 200.186 555.816 199.974V196.773C556.588 197.106 557.383 197.416 558.201 197.704C559.033 197.976 559.858 198.112 560.676 198.112C561.236 198.112 561.682 198.037 562.015 197.885C562.363 197.734 562.613 197.53 562.764 197.272C562.931 197.015 563.014 196.72 563.014 196.387C563.014 195.978 562.87 195.63 562.583 195.342C562.31 195.055 561.939 194.79 561.47 194.548C561.001 194.29 560.464 194.018 559.858 193.73C559.48 193.549 559.071 193.337 558.632 193.095C558.193 192.837 557.769 192.527 557.36 192.164C556.967 191.785 556.641 191.331 556.384 190.801C556.127 190.271 555.998 189.636 555.998 188.894C555.998 187.925 556.218 187.1 556.657 186.419C557.111 185.723 557.746 185.193 558.564 184.83C559.396 184.466 560.373 184.285 561.493 184.285C562.341 184.285 563.143 184.383 563.9 184.58C564.672 184.777 565.474 185.057 566.307 185.42L565.194 188.099C564.452 187.796 563.786 187.562 563.196 187.395C562.606 187.229 562 187.146 561.379 187.146C560.956 187.146 560.592 187.214 560.29 187.35C559.987 187.486 559.752 187.675 559.586 187.918C559.434 188.16 559.359 188.447 559.359 188.78C559.359 189.159 559.472 189.484 559.699 189.757C559.926 190.014 560.267 190.264 560.721 190.506C561.175 190.748 561.743 191.036 562.424 191.369C563.256 191.762 563.96 192.171 564.535 192.595C565.126 193.019 565.58 193.518 565.898 194.094C566.216 194.669 566.375 195.38 566.375 196.228ZM571.887 195.342H569.185L568.618 184.512H572.455L571.887 195.342ZM568.572 199.134C568.572 198.438 568.761 197.954 569.14 197.681C569.518 197.393 569.98 197.25 570.525 197.25C571.055 197.25 571.509 197.393 571.887 197.681C572.266 197.954 572.455 198.438 572.455 199.134C572.455 199.8 572.266 200.285 571.887 200.587C571.509 200.875 571.055 201.019 570.525 201.019C569.98 201.019 569.518 200.875 569.14 200.587C568.761 200.285 568.572 199.8 568.572 199.134Z" fill="#E5C0AA"/>
<path d="M574.078 204.979H472.343V211.594H574.078V204.979Z" fill="#FFF2DB"/>
<path d="M560.196 221.05H472.343V227.668H560.196V221.05Z" fill="#FFF2DB"/>
<path d="M530.614 237.122H472.343V243.738H530.614V237.122Z" fill="#FFF2DB"/>
<path d="M597.425 257.043C600.457 249.515 610.945 244.135 616.304 244.206H634.403C640.352 244.766 650.252 249.515 653.282 257.043C646.194 264.058 636.306 268.418 625.354 268.418C614.404 268.418 604.513 264.059 597.425 257.043Z" fill="#003555"/>
<path d="M632.747 228.752C632.747 228.752 634.479 242.99 635.677 251.042C636.551 256.922 615.445 258.575 614.805 252.235C614.242 244.717 613.6 231.973 613.6 231.973" fill="#E5C0AA"/>
<path d="M633.603 235.296L632.747 228.752L613.599 231.974C613.599 231.974 613.798 235.891 614.066 240.801C615.411 241.226 616.813 241.522 618.28 241.631C624.334 242.084 629.91 239.551 633.603 235.296Z" fill="#3B3B3B"/>
<path d="M601.298 217.496C600.538 227.672 608.172 236.536 618.345 237.3C628.519 238.059 637.388 230.427 638.146 220.25L639.605 200.763C640.367 190.587 632.731 181.72 622.559 180.963C612.382 180.201 603.514 187.833 602.757 198.008L601.298 217.496Z" fill="#E5C0AA"/>
<path d="M626.595 200.994C625.592 199.064 623.366 197.727 621.165 197.981C619.911 198.127 619.897 200.11 621.165 199.962C622.726 199.781 624.167 200.613 624.885 201.993C625.474 203.128 627.183 202.125 626.595 200.994Z" fill="#003555"/>
<path d="M606.524 200.448C607.39 199.541 608.98 198.916 610.22 199.216C611.461 199.517 611.988 197.605 610.746 197.306C608.826 196.842 606.482 197.622 605.123 199.047C604.242 199.971 605.64 201.375 606.524 200.448Z" fill="#003555"/>
<path d="M614.796 215.834C614.59 215.834 614.385 215.75 614.236 215.584L611.038 212.006C610.877 211.824 610.812 211.577 610.866 211.34C610.92 211.105 611.086 210.908 611.31 210.816L615.154 209.221C615.536 209.063 615.974 209.243 616.132 209.627C616.291 210.008 616.11 210.446 615.727 210.605L612.858 211.796L615.354 214.586C615.628 214.895 615.603 215.368 615.294 215.645C615.152 215.771 614.973 215.834 614.796 215.834Z" fill="#003555"/>
<path d="M614.505 226.091C612.452 226.091 611.064 223.917 610.258 219.445C610.215 219.208 610.289 218.965 610.457 218.792C610.625 218.618 610.869 218.54 611.104 218.571C612.367 218.757 613.969 218.949 616.284 218.949C617.476 218.949 618.773 218.9 620.246 218.8C620.518 218.777 620.788 218.917 620.934 219.154C621.08 219.39 621.082 219.688 620.941 219.927C618.495 224.074 616.389 226.091 614.505 226.091ZM611.935 220.194C612.561 223.005 613.48 224.592 614.504 224.592C615.163 224.592 616.57 224.012 618.906 220.377C616.206 220.51 614.149 220.461 611.935 220.194Z" fill="#003555"/>
<path d="M619.528 209.554C619.826 210.759 621.043 211.494 622.248 211.197C623.45 210.899 624.188 209.681 623.889 208.476C623.593 207.273 622.376 206.537 621.171 206.833C619.966 207.131 619.233 208.351 619.528 209.554Z" fill="#1A191F"/>
<path d="M606.099 208.752C606.395 209.953 607.614 210.691 608.818 210.395C610.019 210.098 610.759 208.878 610.461 207.675C610.163 206.472 608.946 205.739 607.743 206.034C606.54 206.332 605.8 207.547 606.099 208.752Z" fill="#1A191F"/>
<path d="M634.608 215.357C633.733 218.957 635.942 222.584 639.542 223.46C643.143 224.335 646.773 222.127 647.645 218.524L648.145 216.466C649.023 212.866 646.813 209.238 643.211 208.362C639.611 207.487 635.981 209.699 635.107 213.299L634.608 215.357Z" fill="#E5C0AA"/>
<path d="M644.73 209.034C646.306 204.539 653.992 186.265 642.561 185.715C641.85 178.539 631.878 174.755 619.422 172.312C606.966 169.869 599.199 175.703 600.144 181.537C601.091 187.371 608.739 189.497 614.808 187.764C616.543 194.071 624.899 191.942 626.714 190.681C628.113 196.791 635.051 198.269 634.264 202.526C633.474 206.784 633.12 211.119 632.961 211.989C632.805 212.857 636.43 214.549 637.222 212.814C638.007 211.082 641.122 207.968 644.73 209.034Z" fill="#003555"/>
<path d="M631.031 279.343C645.698 278.761 661.418 269.429 664.542 254.271C664.672 253.643 663.708 253.375 663.578 254.005C660.546 268.726 645.278 277.78 631.031 278.344C630.39 278.369 630.387 279.368 631.031 279.343Z" fill="#1F0E03"/>
<path d="M618.897 279.422C621.573 279.518 624.249 279.57 626.927 279.63C627.572 279.645 627.57 278.646 626.927 278.631C624.249 278.571 621.573 278.519 618.897 278.423C618.252 278.399 618.255 279.399 618.897 279.422Z" fill="#1F0E03"/>
<path d="M490.652 301.479C495.681 296.956 500.729 292.454 505.455 287.61C507.641 285.369 509.592 282.444 512.233 280.671C513.796 279.621 515.736 279.452 517.563 279.347C521.161 279.139 524.782 279.233 528.384 279.184C534.916 279.094 541.439 278.746 547.974 278.758C554.974 278.772 561.969 279.087 568.96 279.406C582.578 280.027 596.229 280.671 609.82 279.27C610.455 279.205 610.461 278.206 609.82 278.271C595.914 279.704 581.948 278.999 568.018 278.364C560.694 278.031 553.369 277.746 546.036 277.759C539.495 277.771 532.958 278.138 526.417 278.209C521.956 278.258 515.746 277.27 511.729 279.808C509.241 281.382 507.372 284.147 505.394 286.233C500.527 291.367 495.201 296.047 489.945 300.774C489.466 301.203 490.175 301.907 490.652 301.479Z" fill="#1F0E03"/>
<path d="M588.932 99.4589C588.932 110.945 579.62 120.258 568.133 120.258H374.475C362.988 120.258 353.676 110.945 353.676 99.4589V80.0978C353.676 68.6114 362.988 59.2979 374.475 59.2979H568.133C579.62 59.2979 588.932 68.6114 588.932 80.0978V99.4589Z" fill="#003555"/>
<path d="M386.034 73.8547C386.762 72.3779 387.956 72.3779 388.684 73.8547L391.013 78.5729C391.741 80.0498 393.672 81.4538 395.303 81.6904L400.51 82.4473C402.141 82.684 402.509 83.8193 401.329 84.9687L397.563 88.6394C396.383 89.7887 395.646 92.0585 395.924 93.6831L396.814 98.8676C397.092 100.491 396.126 101.193 394.669 100.427L390.011 97.9779C388.553 97.211 386.166 97.211 384.708 97.9789L380.052 100.426C378.594 101.193 377.628 100.491 377.908 98.8676L378.797 93.6831C379.076 92.0585 378.339 89.7897 377.159 88.6394L373.392 84.9687C372.212 83.8193 372.58 82.684 374.211 82.4473L379.416 81.6884C381.047 81.4518 382.978 80.0478 383.706 78.5709L386.034 73.8547Z" fill="#00B2B2"/>
<path d="M427.641 73.8547C428.37 72.3779 429.564 72.3779 430.292 73.8547L432.618 78.5729C433.347 80.0498 435.277 81.4538 436.908 81.6904L442.114 82.4473C443.745 82.684 444.114 83.8193 442.933 84.9687L439.168 88.6394C437.987 89.7887 437.25 92.0585 437.529 93.6831L438.419 98.8676C438.697 100.491 437.732 101.193 436.275 100.426L431.619 97.9789C430.161 97.211 427.773 97.211 426.315 97.9779L421.656 100.427C420.198 101.194 419.232 100.491 419.512 98.8676L420.402 93.6831C420.68 92.0585 419.943 89.7897 418.763 88.6394L414.998 84.9687C413.817 83.8193 414.186 82.684 415.816 82.4473L421.023 81.6884C422.653 81.4518 424.584 80.0478 425.314 78.5709L427.641 73.8547Z" fill="#00B2B2"/>
<path d="M469.247 73.8547C469.977 72.3779 471.17 72.3779 471.898 73.8547L474.226 78.5729C474.954 80.0498 476.885 81.4538 478.516 81.6904L483.722 82.4473C485.353 82.684 485.721 83.8193 484.541 84.9687L480.775 88.6394C479.595 89.7887 478.858 92.0585 479.136 93.6831L480.026 98.8676C480.304 100.491 479.339 101.193 477.882 100.426L473.224 97.9789C471.766 97.211 469.379 97.211 467.921 97.9789L463.266 100.426C461.808 101.193 460.842 100.491 461.121 98.8676L462.009 93.6831C462.288 92.0585 461.55 89.7897 460.37 88.6394L456.605 84.9687C455.425 83.8193 455.793 82.684 457.424 82.4463L462.627 81.6894C464.257 81.4518 466.187 80.0478 466.917 78.5709L469.247 73.8547Z" fill="#00B2B2"/>
<path d="M510.856 73.8547C511.585 72.3779 512.779 72.3779 513.507 73.8547L515.834 78.5729C516.562 80.0498 518.493 81.4538 520.124 81.6904L525.33 82.4473C526.961 82.684 527.329 83.8193 526.149 84.9687L522.383 88.6394C521.203 89.7887 520.466 92.0585 520.745 93.6831L521.635 98.8676C521.913 100.491 520.947 101.193 519.49 100.426L514.833 97.9789C513.375 97.211 510.988 97.211 509.53 97.9789L504.873 100.426C503.415 101.193 502.449 100.491 502.728 98.8676L503.617 93.6831C503.895 92.0595 503.158 89.7897 501.978 88.6394L498.212 84.9687C497.032 83.8193 497.4 82.684 499.031 82.4473L504.237 81.6884C505.867 81.4518 507.797 80.0478 508.527 78.5709L510.856 73.8547Z" fill="#00B2B2"/>
<path d="M552.46 73.8547C553.19 72.3779 554.383 72.3779 555.112 73.8547L557.441 78.5729C558.17 80.0498 560.101 81.4538 561.731 81.6904L566.938 82.4473C568.569 82.684 568.937 83.8193 567.757 84.9687L563.989 88.6394C562.809 89.7887 562.072 92.0585 562.351 93.6831L563.24 98.8676C563.519 100.491 562.553 101.193 561.095 100.427L556.437 97.9779C554.979 97.211 552.593 97.211 551.134 97.9789L546.479 100.426C545.022 101.193 544.056 100.491 544.335 98.8676L545.225 93.6831C545.503 92.0585 544.766 89.7897 543.586 88.6394L539.82 84.9687C538.64 83.8193 539.008 82.684 540.639 82.4463L545.842 81.6894C547.473 81.4518 549.403 80.0478 550.133 78.5709L552.46 73.8547Z" fill="#00B2B2"/>
<path d="M457.754 117.202C461.039 117.164 464.319 116.875 467.605 116.837C468.249 116.83 468.25 115.832 467.605 115.839C464.319 115.877 461.039 116.165 457.754 116.203C457.11 116.21 457.109 117.209 457.754 117.202Z" fill="#003555"/>
<path d="M472.179 116.837C483.92 116.573 495.661 117.097 507.401 116.905C513.258 116.809 519.07 116.262 524.915 115.974C531.058 115.673 537.216 115.777 543.362 115.935C549.233 116.086 555.1 116.315 560.973 116.402C565.023 116.462 569.14 116.656 573.125 115.796C579.647 114.386 582.422 109.105 582.854 102.831C582.899 102.188 581.899 102.192 581.856 102.831C581.615 106.313 580.808 109.736 578.216 112.229C575.857 114.498 572.306 115.109 569.179 115.354C564.524 115.721 559.753 115.402 555.092 115.282C549.558 115.14 544.025 114.928 538.489 114.831C527.438 114.638 516.483 115.794 505.444 115.935C494.354 116.078 483.268 115.589 472.178 115.839C471.536 115.854 471.534 116.852 472.179 116.837Z" fill="#003555"/>
<path d="M123.77 248.937C123.77 260.423 114.458 269.735 102.971 269.735H20.799C9.31257 269.735 0 260.423 0 248.937V224.74C0 213.254 9.31157 203.942 20.799 203.942H102.972C114.459 203.942 123.771 213.254 123.771 224.74L123.77 248.937Z" fill="#003555"/>
<path d="M40.6375 255.188H24.6388V251.822L30.3778 246.019C31.532 244.822 32.4618 243.828 33.1672 243.037C33.8725 242.225 34.3855 241.498 34.7061 240.857C35.0267 240.194 35.187 239.489 35.187 238.741C35.187 237.822 34.9305 237.138 34.4176 236.689C33.9259 236.24 33.2527 236.016 32.3977 236.016C31.5213 236.016 30.6664 236.219 29.8328 236.625C28.9992 237.031 28.1228 237.608 27.2037 238.356L24.5747 235.246C25.2373 234.669 25.9319 234.135 26.6587 233.643C27.4068 233.152 28.2617 232.756 29.2236 232.457C30.2068 232.136 31.3824 231.976 32.7504 231.976C34.2466 231.976 35.529 232.254 36.5977 232.81C37.6878 233.344 38.5214 234.081 39.0985 235.022C39.697 235.941 39.9963 236.988 39.9963 238.164C39.9963 239.425 39.7398 240.579 39.2268 241.626C38.7352 242.674 38.0085 243.71 37.0466 244.736C36.1061 245.762 34.9626 246.895 33.616 248.135L30.6664 250.892V251.117H40.6375V255.188ZM59.4982 250.443H56.7409V255.188H52.0279V250.443H42.2491V247.077L52.2844 232.297H56.7409V246.692H59.4982V250.443ZM52.0279 246.692V242.813C52.0279 242.321 52.0386 241.723 52.0599 241.017C52.0813 240.312 52.1027 239.66 52.1241 239.062C52.1668 238.442 52.1989 238.036 52.2202 237.843H52.092C51.8996 238.271 51.6966 238.687 51.4828 239.094C51.2691 239.5 51.0126 239.916 50.7133 240.344L46.5133 246.692H52.0279ZM73.1329 232.297L64.6045 255.188H60.2762L68.8046 232.297H73.1329ZM76.8548 255.188L85.4473 236.368H74.1616V232.297H90.5771V235.342L81.9205 255.188H76.8548Z" fill="#00B2B2"/>
<path d="M71.3218 266.154C85.5602 262.668 101.433 269.673 114.408 260.905C114.938 260.547 114.439 259.68 113.903 260.043C101.087 268.705 85.1668 261.735 71.0562 265.19C70.4311 265.344 70.6967 266.308 71.3218 266.154Z" fill="#003555"/>
<path d="M119.13 229.275C119.351 231.422 119.243 233.569 119.535 235.713C119.873 238.194 120.24 240.592 120.215 243.102C120.169 247.854 119.767 252.909 117.009 256.937C116.644 257.47 117.51 257.969 117.871 257.441C120.295 253.901 120.907 249.642 121.143 245.445C121.266 243.276 121.315 241.062 121.017 238.906C120.572 235.683 120.459 232.496 120.129 229.274C120.065 228.641 119.064 228.634 119.13 229.275Z" fill="#003555"/>
</svg>
