<svg width="125" height="80" viewBox="0 0 125 80" fill="none" xmlns="http://www.w3.org/2000/svg">
<mask id="path-1-outside-1_12_311" maskUnits="userSpaceOnUse" x="-0.5" y="-0.599609" width="125" height="80" fill="black">
<rect fill="white" x="-0.5" y="-0.599609" width="125" height="80"/>
<path d="M119.39 19.7004C119.39 23.0337 118.657 25.9337 117.19 28.4004C115.79 30.8004 113.923 32.7671 111.59 34.3004C109.257 35.8337 106.657 37.0004 103.79 37.8004V38.1004C109.523 38.7671 113.89 40.5004 116.89 43.3004C119.957 46.0337 121.49 49.8671 121.49 54.8004C121.49 58.8004 120.457 62.4337 118.39 65.7004C116.323 68.9671 113.123 71.5671 108.79 73.5004C104.523 75.4337 98.9898 76.4004 92.1898 76.4004C87.8565 76.4004 84.0232 76.0671 80.6898 75.4004C77.3565 74.6671 74.1898 73.7004 71.1898 72.5004V58.1004C74.2565 59.6337 77.4565 60.8004 80.7898 61.6004C84.1232 62.4004 87.1565 62.8004 89.8898 62.8004C94.9565 62.8004 98.4565 62.0004 100.39 60.4004C102.323 58.8004 103.29 56.6004 103.29 53.8004C103.29 52.0004 102.823 50.4671 101.89 49.2004C101.023 47.9337 99.4232 46.9671 97.0898 46.3004C94.7565 45.6337 91.4232 45.3004 87.0898 45.3004H82.1898V32.2004H87.1898C91.2565 32.2004 94.3898 31.8337 96.5898 31.1004C98.7898 30.3671 100.323 29.3671 101.19 28.1004C102.123 26.8337 102.59 25.3671 102.59 23.7004C102.59 21.5004 101.823 19.8337 100.29 18.7004C98.7565 17.5004 96.4898 16.9004 93.4898 16.9004C91.2898 16.9004 89.2232 17.2004 87.2898 17.8004C85.4232 18.3337 83.7565 19.0004 82.2898 19.8004C80.8898 20.5337 79.7232 21.2004 78.7898 21.8004L71.2898 10.1004C74.1565 8.10039 77.4898 6.43372 81.2898 5.10039C85.0898 3.70039 89.8565 3.00039 95.5898 3.00039C102.923 3.00039 108.723 4.46705 112.99 7.40039C117.257 10.3337 119.39 14.4337 119.39 19.7004ZM53.8 39.7004C53.8 47.3671 52.9667 53.9337 51.3 59.4004C49.7 64.8671 47.0333 69.0671 43.3 72.0004C39.6333 74.9337 34.6667 76.4004 28.4 76.4004C19.6667 76.4004 13.2333 73.1671 9.1 66.7004C5.03333 60.2337 3 51.2337 3 39.7004C3 32.0337 3.8 25.4671 5.4 20.0004C7.06667 14.5337 9.76667 10.3337 13.5 7.40039C17.2333 4.46705 22.2 3.00039 28.4 3.00039C34.2667 3.00039 39.0667 4.46705 42.8 7.40039C46.5333 10.2671 49.3 14.4337 51.1 19.9004C52.9 25.3671 53.8 31.9671 53.8 39.7004ZM20.2 39.8004C20.2 47.3337 20.7667 53.0337 21.9 56.9004C23.0333 60.7004 25.2 62.6004 28.4 62.6004C31.6 62.6004 33.7667 60.7004 34.9 56.9004C36.1 53.1004 36.7 47.3671 36.7 39.7004C36.7 34.6337 36.4333 30.4004 35.9 27.0004C35.4333 23.6004 34.6 21.0671 33.4 19.4004C32.2 17.6671 30.5333 16.8004 28.4 16.8004C26.2667 16.8004 24.6 17.6671 23.4 19.4004C22.2 21.0671 21.3667 23.6004 20.9 27.0004C20.4333 30.4004 20.2 34.6671 20.2 39.8004Z"/>
</mask>
<path d="M119.39 19.7004C119.39 23.0337 118.657 25.9337 117.19 28.4004C115.79 30.8004 113.923 32.7671 111.59 34.3004C109.257 35.8337 106.657 37.0004 103.79 37.8004V38.1004C109.523 38.7671 113.89 40.5004 116.89 43.3004C119.957 46.0337 121.49 49.8671 121.49 54.8004C121.49 58.8004 120.457 62.4337 118.39 65.7004C116.323 68.9671 113.123 71.5671 108.79 73.5004C104.523 75.4337 98.9898 76.4004 92.1898 76.4004C87.8565 76.4004 84.0232 76.0671 80.6898 75.4004C77.3565 74.6671 74.1898 73.7004 71.1898 72.5004V58.1004C74.2565 59.6337 77.4565 60.8004 80.7898 61.6004C84.1232 62.4004 87.1565 62.8004 89.8898 62.8004C94.9565 62.8004 98.4565 62.0004 100.39 60.4004C102.323 58.8004 103.29 56.6004 103.29 53.8004C103.29 52.0004 102.823 50.4671 101.89 49.2004C101.023 47.9337 99.4232 46.9671 97.0898 46.3004C94.7565 45.6337 91.4232 45.3004 87.0898 45.3004H82.1898V32.2004H87.1898C91.2565 32.2004 94.3898 31.8337 96.5898 31.1004C98.7898 30.3671 100.323 29.3671 101.19 28.1004C102.123 26.8337 102.59 25.3671 102.59 23.7004C102.59 21.5004 101.823 19.8337 100.29 18.7004C98.7565 17.5004 96.4898 16.9004 93.4898 16.9004C91.2898 16.9004 89.2232 17.2004 87.2898 17.8004C85.4232 18.3337 83.7565 19.0004 82.2898 19.8004C80.8898 20.5337 79.7232 21.2004 78.7898 21.8004L71.2898 10.1004C74.1565 8.10039 77.4898 6.43372 81.2898 5.10039C85.0898 3.70039 89.8565 3.00039 95.5898 3.00039C102.923 3.00039 108.723 4.46705 112.99 7.40039C117.257 10.3337 119.39 14.4337 119.39 19.7004ZM53.8 39.7004C53.8 47.3671 52.9667 53.9337 51.3 59.4004C49.7 64.8671 47.0333 69.0671 43.3 72.0004C39.6333 74.9337 34.6667 76.4004 28.4 76.4004C19.6667 76.4004 13.2333 73.1671 9.1 66.7004C5.03333 60.2337 3 51.2337 3 39.7004C3 32.0337 3.8 25.4671 5.4 20.0004C7.06667 14.5337 9.76667 10.3337 13.5 7.40039C17.2333 4.46705 22.2 3.00039 28.4 3.00039C34.2667 3.00039 39.0667 4.46705 42.8 7.40039C46.5333 10.2671 49.3 14.4337 51.1 19.9004C52.9 25.3671 53.8 31.9671 53.8 39.7004ZM20.2 39.8004C20.2 47.3337 20.7667 53.0337 21.9 56.9004C23.0333 60.7004 25.2 62.6004 28.4 62.6004C31.6 62.6004 33.7667 60.7004 34.9 56.9004C36.1 53.1004 36.7 47.3671 36.7 39.7004C36.7 34.6337 36.4333 30.4004 35.9 27.0004C35.4333 23.6004 34.6 21.0671 33.4 19.4004C32.2 17.6671 30.5333 16.8004 28.4 16.8004C26.2667 16.8004 24.6 17.6671 23.4 19.4004C22.2 21.0671 21.3667 23.6004 20.9 27.0004C20.4333 30.4004 20.2 34.6671 20.2 39.8004Z" fill="#F2F8FC"/>
<path d="M117.19 28.4004L114.611 26.8672L114.605 26.8779L114.599 26.8888L117.19 28.4004ZM103.79 37.8004L102.983 34.9108L100.79 35.523V37.8004H103.79ZM103.79 38.1004H100.79V40.7718L103.443 41.0803L103.79 38.1004ZM116.89 43.3004L114.843 45.4936L114.868 45.517L114.894 45.5399L116.89 43.3004ZM118.39 65.7004L115.855 64.0965V64.0965L118.39 65.7004ZM108.79 73.5004L107.568 70.7607L107.56 70.7642L107.552 70.7678L108.79 73.5004ZM80.6898 75.4004L80.0453 78.3303L80.0733 78.3365L80.1015 78.3421L80.6898 75.4004ZM71.1898 72.5004H68.1898V74.5315L70.0757 75.2858L71.1898 72.5004ZM71.1898 58.1004L72.5315 55.4171L68.1898 53.2463V58.1004H71.1898ZM80.7898 61.6004L81.49 58.6832V58.6832L80.7898 61.6004ZM100.39 60.4004L98.4771 58.0892V58.0892L100.39 60.4004ZM101.89 49.2004L99.4139 50.8944L99.4436 50.9377L99.4747 50.98L101.89 49.2004ZM97.0898 46.3004L96.2657 49.185L96.2657 49.185L97.0898 46.3004ZM82.1898 45.3004H79.1898V48.3004H82.1898V45.3004ZM82.1898 32.2004V29.2004H79.1898V32.2004H82.1898ZM96.5898 31.1004L97.5385 33.9464V33.9464L96.5898 31.1004ZM101.19 28.1004L98.7747 26.3208L98.7436 26.363L98.7139 26.4063L101.19 28.1004ZM100.29 18.7004L98.4409 21.0629L98.4734 21.0884L98.5067 21.1129L100.29 18.7004ZM87.2898 17.8004L88.114 20.685L88.1466 20.6756L88.179 20.6656L87.2898 17.8004ZM82.2898 19.8004L83.6819 22.4579L83.7042 22.4462L83.7264 22.4341L82.2898 19.8004ZM78.7898 21.8004L76.2642 23.4194L77.8853 25.9483L80.4121 24.3239L78.7898 21.8004ZM71.2898 10.1004L69.5733 7.64L67.2073 9.29067L68.7642 11.7194L71.2898 10.1004ZM81.2898 5.10039L82.2831 7.93119L82.3051 7.92347L82.327 7.91542L81.2898 5.10039ZM112.99 7.40039L111.29 9.87252V9.87252L112.99 7.40039ZM119.39 19.7004H116.39C116.39 22.5824 115.76 24.9349 114.611 26.8672L117.19 28.4004L119.768 29.9336C121.553 26.9326 122.39 23.485 122.39 19.7004H119.39ZM117.19 28.4004L114.599 26.8888C113.433 28.8865 111.89 30.5131 109.942 31.7933L111.59 34.3004L113.237 36.8075C115.956 35.021 118.147 32.7143 119.781 29.912L117.19 28.4004ZM111.59 34.3004L109.942 31.7933C107.884 33.1456 105.571 34.1886 102.983 34.9108L103.79 37.8004L104.596 40.69C107.742 39.8122 110.629 38.5219 113.237 36.8075L111.59 34.3004ZM103.79 37.8004H100.79V38.1004H103.79H106.79V37.8004H103.79ZM103.79 38.1004L103.443 41.0803C108.792 41.7022 112.467 43.2765 114.843 45.4936L116.89 43.3004L118.937 41.1072C115.312 37.7243 110.254 35.8319 104.136 35.1205L103.79 38.1004ZM116.89 43.3004L114.894 45.5399C117.194 47.5902 118.49 50.5352 118.49 54.8004H121.49H124.49C124.49 49.1989 122.719 44.4772 118.886 41.0608L116.89 43.3004ZM121.49 54.8004H118.49C118.49 58.2533 117.607 61.327 115.855 64.0965L118.39 65.7004L120.925 67.3043C123.306 63.5405 124.49 59.3474 124.49 54.8004H121.49ZM118.39 65.7004L115.855 64.0965C114.17 66.76 111.485 69.0131 107.568 70.7607L108.79 73.5004L110.012 76.2401C114.762 74.121 118.477 71.1741 120.925 67.3043L118.39 65.7004ZM108.79 73.5004L107.552 70.7678C103.809 72.4639 98.7405 73.4004 92.1898 73.4004V76.4004V79.4004C99.2392 79.4004 105.238 78.4035 110.028 76.2329L108.79 73.5004ZM92.1898 76.4004V73.4004C88.0031 73.4004 84.3735 73.0777 81.2782 72.4586L80.6898 75.4004L80.1015 78.3421C83.6728 79.0564 87.7099 79.4004 92.1898 79.4004V76.4004ZM80.6898 75.4004L81.3344 72.4705C78.1524 71.7704 75.1434 70.8507 72.304 69.715L71.1898 72.5004L70.0757 75.2858C73.2363 76.5501 76.5606 77.5637 80.0453 78.3303L80.6898 75.4004ZM71.1898 72.5004H74.1898V58.1004H71.1898H68.1898V72.5004H71.1898ZM71.1898 58.1004L69.8482 60.7837C73.1191 62.4191 76.5343 63.6643 80.0897 64.5176L80.7898 61.6004L81.49 58.6832C78.3787 57.9365 75.394 56.8483 72.5315 55.4171L71.1898 58.1004ZM80.7898 61.6004L80.0897 64.5175C83.5972 65.3593 86.87 65.8004 89.8898 65.8004V62.8004V59.8004C87.443 59.8004 84.6492 59.4414 81.49 58.6832L80.7898 61.6004ZM89.8898 62.8004V65.8004C95.0556 65.8004 99.5025 65.0289 102.303 62.7116L100.39 60.4004L98.4771 58.0892C97.4105 58.9719 94.8575 59.8004 89.8898 59.8004V62.8004ZM100.39 60.4004L102.303 62.7116C105.01 60.4711 106.29 57.3775 106.29 53.8004H103.29H100.29C100.29 55.8233 99.6366 57.1297 98.4771 58.0892L100.39 60.4004ZM103.29 53.8004H106.29C106.29 51.456 105.672 49.2753 104.305 47.4208L101.89 49.2004L99.4747 50.98C99.9748 51.6588 100.29 52.5448 100.29 53.8004H103.29ZM101.89 49.2004L104.366 47.5063C102.932 45.4102 100.552 44.1694 97.914 43.4158L97.0898 46.3004L96.2657 49.185C98.2947 49.7647 99.1148 50.4572 99.4139 50.8944L101.89 49.2004ZM97.0898 46.3004L97.914 43.4158C95.181 42.6349 91.52 42.3004 87.0898 42.3004V45.3004V48.3004C91.3263 48.3004 94.3321 48.6325 96.2657 49.185L97.0898 46.3004ZM87.0898 45.3004V42.3004H82.1898V45.3004V48.3004H87.0898V45.3004ZM82.1898 45.3004H85.1898V32.2004H82.1898H79.1898V45.3004H82.1898ZM82.1898 32.2004V35.2004H87.1898V32.2004V29.2004H82.1898V32.2004ZM87.1898 32.2004V35.2004C91.3746 35.2004 94.8854 34.8308 97.5385 33.9464L96.5898 31.1004L95.6412 28.2543C93.8943 28.8366 91.1385 29.2004 87.1898 29.2004V32.2004ZM96.5898 31.1004L97.5385 33.9464C100.058 33.1065 102.283 31.8152 103.666 29.7944L101.19 28.1004L98.7139 26.4063C98.3632 26.9189 97.5212 27.6277 95.6412 28.2543L96.5898 31.1004ZM101.19 28.1004L103.605 29.88C104.942 28.0661 105.59 25.9671 105.59 23.7004H102.59H99.5898C99.5898 24.767 99.3048 25.6013 98.7747 26.3208L101.19 28.1004ZM102.59 23.7004H105.59C105.59 20.7158 104.497 18.0793 102.073 16.2879L100.29 18.7004L98.5067 21.1129C99.1497 21.5882 99.5898 22.285 99.5898 23.7004H102.59ZM100.29 18.7004L102.139 16.3379C99.8597 14.5542 96.8175 13.9004 93.4898 13.9004V16.9004V19.9004C96.1622 19.9004 97.6533 20.4465 98.4409 21.0629L100.29 18.7004ZM93.4898 16.9004V13.9004C91.0144 13.9004 88.6458 14.2384 86.4007 14.9352L87.2898 17.8004L88.179 20.6656C89.8006 20.1623 91.5653 19.9004 93.4898 19.9004V16.9004ZM87.2898 17.8004L86.4657 14.9158C84.4196 15.5004 82.5425 16.2453 80.8533 17.1667L82.2898 19.8004L83.7264 22.4341C84.9705 21.7555 86.4267 21.167 88.114 20.685L87.2898 17.8004ZM82.2898 19.8004L80.8978 17.1429C79.4491 17.9017 78.1995 18.6134 77.1676 19.2769L78.7898 21.8004L80.4121 24.3239C81.2468 23.7873 82.3306 23.1657 83.6819 22.4579L82.2898 19.8004ZM78.7898 21.8004L81.3155 20.1814L73.8155 8.48139L71.2898 10.1004L68.7642 11.7194L76.2642 23.4194L78.7898 21.8004ZM71.2898 10.1004L73.0064 12.5608C75.619 10.738 78.7018 9.1878 82.2831 7.93119L81.2898 5.10039L80.2966 2.26959C76.2779 3.67965 72.694 5.46277 69.5733 7.64L71.2898 10.1004ZM81.2898 5.10039L82.327 7.91542C85.688 6.67715 90.075 6.00039 95.5898 6.00039V3.00039V0.000386953C89.638 0.000386953 84.4917 0.723624 80.2527 2.28536L81.2898 5.10039ZM95.5898 3.00039V6.00039C102.559 6.00039 107.692 7.39888 111.29 9.87252L112.99 7.40039L114.689 4.92826C109.754 1.53523 103.287 0.000386953 95.5898 0.000386953V3.00039ZM112.99 7.40039L111.29 9.87252C114.726 12.2348 116.39 15.4013 116.39 19.7004H119.39H122.39C122.39 13.4662 119.787 8.43268 114.689 4.92826L112.99 7.40039ZM51.3 59.4004L48.4304 58.5255L48.4255 58.5416L48.4208 58.5577L51.3 59.4004ZM43.3 72.0004L41.4465 69.6414L41.4362 69.6496L41.4259 69.6578L43.3 72.0004ZM9.1 66.7004L6.56043 68.2974L6.5663 68.3068L6.57224 68.3161L9.1 66.7004ZM5.4 20.0004L2.5304 19.1255L2.52551 19.1416L2.52079 19.1577L5.4 20.0004ZM13.5 7.40039L15.3535 9.75935L15.3535 9.75934L13.5 7.40039ZM42.8 7.40039L40.9465 9.75935L40.9597 9.76967L40.9729 9.77984L42.8 7.40039ZM51.1 19.9004L48.2505 20.8386V20.8386L51.1 19.9004ZM21.9 56.9004L19.0211 57.7442L19.0231 57.751L19.0251 57.7578L21.9 56.9004ZM34.9 56.9004L32.0393 55.997L32.032 56.0199L32.0251 56.043L34.9 56.9004ZM35.9 27.0004L32.9279 27.4083L32.9318 27.4368L32.9362 27.4653L35.9 27.0004ZM33.4 19.4004L30.9334 21.108L30.9492 21.1308L30.9654 21.1533L33.4 19.4004ZM23.4 19.4004L25.8346 21.1533L25.8508 21.1308L25.8666 21.108L23.4 19.4004ZM53.8 39.7004H50.8C50.8 47.1649 49.9869 53.4204 48.4304 58.5255L51.3 59.4004L54.1696 60.2753C55.9465 54.4471 56.8 47.5692 56.8 39.7004H53.8ZM51.3 59.4004L48.4208 58.5577C46.9605 63.5469 44.5967 67.1663 41.4465 69.6414L43.3 72.0004L45.1535 74.3593C49.47 70.9678 52.4395 66.1872 54.1792 60.2431L51.3 59.4004ZM43.3 72.0004L41.4259 69.6578C38.4455 72.0421 34.2135 73.4004 28.4 73.4004V76.4004V79.4004C35.1198 79.4004 40.8212 77.8253 45.1741 74.343L43.3 72.0004ZM28.4 76.4004V73.4004C20.524 73.4004 15.1259 70.5576 11.6278 65.0847L9.1 66.7004L6.57224 68.3161C11.3408 75.7765 18.8093 79.4004 28.4 79.4004V76.4004ZM9.1 66.7004L11.6396 65.1033C7.99014 59.3001 6 50.9367 6 39.7004H3H0C0 51.5308 2.07653 61.1673 6.56043 68.2974L9.1 66.7004ZM3 39.7004H6C6 32.2272 6.78155 25.9601 8.27921 20.8431L5.4 20.0004L2.52079 19.1577C0.818452 24.974 0 31.8402 0 39.7004H3ZM5.4 20.0004L8.2696 20.8753C9.79445 15.8737 12.194 12.2418 15.3535 9.75935L13.5 7.40039L11.6465 5.04143C7.33938 8.42563 4.33888 13.1937 2.5304 19.1255L5.4 20.0004ZM13.5 7.40039L15.3535 9.75934C18.4158 7.3532 22.6654 6.00039 28.4 6.00039V3.00039V0.000386953C21.7346 0.000386953 16.0508 1.58091 11.6465 5.04144L13.5 7.40039ZM28.4 3.00039V6.00039C33.7568 6.00039 37.8566 7.33155 40.9465 9.75935L42.8 7.40039L44.6535 5.04144C40.2767 1.60256 34.7765 0.000386953 28.4 0.000386953V3.00039ZM42.8 7.40039L40.9729 9.77984C44.1311 12.2049 46.5965 15.8153 48.2505 20.8386L51.1 19.9004L53.9495 18.9621C52.0035 13.0522 48.9355 8.32921 44.6271 5.02094L42.8 7.40039ZM51.1 19.9004L48.2505 20.8386C49.9232 25.9187 50.8 32.1836 50.8 39.7004H53.8H56.8C56.8 31.7505 55.8768 24.8154 53.9495 18.9621L51.1 19.9004ZM20.2 39.8004H17.2C17.2 47.4171 17.7655 53.4605 19.0211 57.7442L21.9 56.9004L24.7789 56.0566C23.7678 52.607 23.2 47.2503 23.2 39.8004H20.2ZM21.9 56.9004L19.0251 57.7578C19.6947 60.0029 20.7578 61.9935 22.397 63.431C24.0892 64.9149 26.1586 65.6004 28.4 65.6004V62.6004V59.6004C27.4414 59.6004 26.8275 59.3359 26.353 58.9198C25.8255 58.4573 25.2386 57.5979 24.7749 56.043L21.9 56.9004ZM28.4 62.6004V65.6004C30.6414 65.6004 32.7108 64.9149 34.403 63.431C36.0422 61.9935 37.1053 60.0029 37.7749 57.7578L34.9 56.9004L32.0251 56.043C31.5614 57.5979 30.9745 58.4573 30.447 58.9198C29.9725 59.3359 29.3586 59.6004 28.4 59.6004V62.6004ZM34.9 56.9004L37.7607 57.8038C39.103 53.5534 39.7 47.4455 39.7 39.7004H36.7H33.7C33.7 47.2886 33.097 52.6474 32.0393 55.997L34.9 56.9004ZM36.7 39.7004H39.7C39.7 34.5435 39.4296 30.1427 38.8638 26.5355L35.9 27.0004L32.9362 27.4653C33.4371 30.6581 33.7 34.724 33.7 39.7004H36.7ZM35.9 27.0004L38.8721 26.5924C38.3782 22.9936 37.4523 19.8943 35.8346 17.6475L33.4 19.4004L30.9654 21.1533C31.7477 22.2398 32.4885 24.2071 32.9279 27.4083L35.9 27.0004ZM33.4 19.4004L35.8666 17.6928C34.0983 15.1385 31.5037 13.8004 28.4 13.8004V16.8004V19.8004C29.563 19.8004 30.3017 20.1956 30.9334 21.108L33.4 19.4004ZM28.4 16.8004V13.8004C25.2963 13.8004 22.7017 15.1385 20.9334 17.6928L23.4 19.4004L25.8666 21.108C26.4983 20.1956 27.237 19.8004 28.4 19.8004V16.8004ZM23.4 19.4004L20.9654 17.6475C19.3477 19.8943 18.4218 22.9936 17.9279 26.5924L20.9 27.0004L23.8721 27.4083C24.3115 24.2071 25.0523 22.2398 25.8346 21.1533L23.4 19.4004ZM20.9 27.0004L17.9279 26.5924C17.436 30.1762 17.2 34.5904 17.2 39.8004H20.2H23.2C23.2 34.7437 23.4307 30.6246 23.8721 27.4083L20.9 27.0004Z" fill="url(#paint0_linear_12_311)" mask="url(#path-1-outside-1_12_311)"/>
<defs>
<linearGradient id="paint0_linear_12_311" x1="62.5" y1="-0.599609" x2="62.5" y2="85.4004" gradientUnits="userSpaceOnUse">
<stop stop-color="#00B2B2"/>
<stop offset="0.865385" stop-color="#003555"/>
</linearGradient>
</defs>
</svg>
