<svg width="125" height="80" viewBox="0 0 125 80" fill="none" xmlns="http://www.w3.org/2000/svg">
<mask id="path-1-outside-1_12_318" maskUnits="userSpaceOnUse" x="-0.5" y="-0.599609" width="126" height="80" fill="black">
<rect fill="white" x="-0.5" y="-0.599609" width="126" height="80"/>
<path d="M121.99 75.4004H71.0898V63.8004L88.6898 45.9004C92.2898 42.1671 95.1565 39.1004 97.2898 36.7004C99.4232 34.3004 100.923 32.2004 101.79 30.4004C102.723 28.6004 103.19 26.7004 103.19 24.7004C103.19 22.1671 102.457 20.3337 100.99 19.2004C99.5232 18.0004 97.6565 17.4004 95.3898 17.4004C92.8565 17.4004 90.3898 18.0337 87.9898 19.3004C85.5898 20.5671 82.9232 22.4337 79.9898 24.9004L70.5898 13.8004C72.6565 11.9337 74.8565 10.2004 77.1898 8.60039C79.5898 6.93372 82.3565 5.60039 85.4898 4.60039C88.6898 3.53372 92.5565 3.00039 97.0898 3.00039C101.823 3.00039 105.923 3.86705 109.39 5.60039C112.857 7.26705 115.523 9.56705 117.39 12.5004C119.323 15.4337 120.29 18.7337 120.29 22.4004C120.29 26.4671 119.523 30.1337 117.99 33.4004C116.457 36.6004 114.19 39.8337 111.19 43.1004C108.19 46.3004 104.49 49.9004 100.09 53.9004L92.8898 60.5004V61.1004H121.99V75.4004ZM53.8 39.7004C53.8 47.3671 52.9667 53.9337 51.3 59.4004C49.7 64.8671 47.0333 69.0671 43.3 72.0004C39.6333 74.9337 34.6667 76.4004 28.4 76.4004C19.6667 76.4004 13.2333 73.1671 9.1 66.7004C5.03333 60.2337 3 51.2337 3 39.7004C3 32.0337 3.8 25.4671 5.4 20.0004C7.06667 14.5337 9.76667 10.3337 13.5 7.40039C17.2333 4.46705 22.2 3.00039 28.4 3.00039C34.2667 3.00039 39.0667 4.46705 42.8 7.40039C46.5333 10.2671 49.3 14.4337 51.1 19.9004C52.9 25.3671 53.8 31.9671 53.8 39.7004ZM20.2 39.8004C20.2 47.3337 20.7667 53.0337 21.9 56.9004C23.0333 60.7004 25.2 62.6004 28.4 62.6004C31.6 62.6004 33.7667 60.7004 34.9 56.9004C36.1 53.1004 36.7 47.3671 36.7 39.7004C36.7 34.6337 36.4333 30.4004 35.9 27.0004C35.4333 23.6004 34.6 21.0671 33.4 19.4004C32.2 17.6671 30.5333 16.8004 28.4 16.8004C26.2667 16.8004 24.6 17.6671 23.4 19.4004C22.2 21.0671 21.3667 23.6004 20.9 27.0004C20.4333 30.4004 20.2 34.6671 20.2 39.8004Z"/>
</mask>
<path d="M121.99 75.4004H71.0898V63.8004L88.6898 45.9004C92.2898 42.1671 95.1565 39.1004 97.2898 36.7004C99.4232 34.3004 100.923 32.2004 101.79 30.4004C102.723 28.6004 103.19 26.7004 103.19 24.7004C103.19 22.1671 102.457 20.3337 100.99 19.2004C99.5232 18.0004 97.6565 17.4004 95.3898 17.4004C92.8565 17.4004 90.3898 18.0337 87.9898 19.3004C85.5898 20.5671 82.9232 22.4337 79.9898 24.9004L70.5898 13.8004C72.6565 11.9337 74.8565 10.2004 77.1898 8.60039C79.5898 6.93372 82.3565 5.60039 85.4898 4.60039C88.6898 3.53372 92.5565 3.00039 97.0898 3.00039C101.823 3.00039 105.923 3.86705 109.39 5.60039C112.857 7.26705 115.523 9.56705 117.39 12.5004C119.323 15.4337 120.29 18.7337 120.29 22.4004C120.29 26.4671 119.523 30.1337 117.99 33.4004C116.457 36.6004 114.19 39.8337 111.19 43.1004C108.19 46.3004 104.49 49.9004 100.09 53.9004L92.8898 60.5004V61.1004H121.99V75.4004ZM53.8 39.7004C53.8 47.3671 52.9667 53.9337 51.3 59.4004C49.7 64.8671 47.0333 69.0671 43.3 72.0004C39.6333 74.9337 34.6667 76.4004 28.4 76.4004C19.6667 76.4004 13.2333 73.1671 9.1 66.7004C5.03333 60.2337 3 51.2337 3 39.7004C3 32.0337 3.8 25.4671 5.4 20.0004C7.06667 14.5337 9.76667 10.3337 13.5 7.40039C17.2333 4.46705 22.2 3.00039 28.4 3.00039C34.2667 3.00039 39.0667 4.46705 42.8 7.40039C46.5333 10.2671 49.3 14.4337 51.1 19.9004C52.9 25.3671 53.8 31.9671 53.8 39.7004ZM20.2 39.8004C20.2 47.3337 20.7667 53.0337 21.9 56.9004C23.0333 60.7004 25.2 62.6004 28.4 62.6004C31.6 62.6004 33.7667 60.7004 34.9 56.9004C36.1 53.1004 36.7 47.3671 36.7 39.7004C36.7 34.6337 36.4333 30.4004 35.9 27.0004C35.4333 23.6004 34.6 21.0671 33.4 19.4004C32.2 17.6671 30.5333 16.8004 28.4 16.8004C26.2667 16.8004 24.6 17.6671 23.4 19.4004C22.2 21.0671 21.3667 23.6004 20.9 27.0004C20.4333 30.4004 20.2 34.6671 20.2 39.8004Z" fill="#F2F8FC"/>
<path d="M121.99 75.4004V78.4004H124.99V75.4004H121.99ZM71.0898 75.4004H68.0898V78.4004H71.0898V75.4004ZM71.0898 63.8004L68.9507 61.6971L68.0898 62.5726V63.8004H71.0898ZM88.6898 45.9004L90.829 48.0037L90.8392 47.9933L90.8494 47.9828L88.6898 45.9004ZM97.2898 36.7004L95.0476 34.7073V34.7073L97.2898 36.7004ZM101.79 30.4004L99.1266 29.0194L99.1061 29.0589L99.0868 29.0989L101.79 30.4004ZM100.99 19.2004L99.0901 21.5223L99.1225 21.5487L99.1555 21.5742L100.99 19.2004ZM79.9898 24.9004L77.7005 26.8391L79.6325 29.1206L81.9206 27.1965L79.9898 24.9004ZM70.5898 13.8004L68.579 11.5741L66.4227 13.5217L68.3005 15.7391L70.5898 13.8004ZM77.1898 8.60039L78.8864 11.0746L78.8937 11.0696L78.901 11.0645L77.1898 8.60039ZM85.4898 4.60039L86.402 7.45837L86.4203 7.45252L86.4385 7.44644L85.4898 4.60039ZM109.39 5.60039L108.048 8.28367L108.069 8.29407L108.09 8.30415L109.39 5.60039ZM117.39 12.5004L114.859 14.111L114.872 14.1313L114.885 14.1513L117.39 12.5004ZM117.99 33.4004L120.695 34.6967L120.7 34.686L120.706 34.6751L117.99 33.4004ZM111.19 43.1004L113.378 45.1522L113.389 45.141L113.399 45.1296L111.19 43.1004ZM100.09 53.9004L98.0718 51.6805L98.0627 51.6889L100.09 53.9004ZM92.8898 60.5004L90.8627 58.2889L89.8898 59.1807V60.5004H92.8898ZM92.8898 61.1004H89.8898V64.1004H92.8898V61.1004ZM121.99 61.1004H124.99V58.1004H121.99V61.1004ZM121.99 75.4004V72.4004H71.0898V75.4004V78.4004H121.99V75.4004ZM71.0898 75.4004H74.0898V63.8004H71.0898H68.0898V75.4004H71.0898ZM71.0898 63.8004L73.229 65.9037L90.829 48.0037L88.6898 45.9004L86.5507 43.7971L68.9507 61.6971L71.0898 63.8004ZM88.6898 45.9004L90.8494 47.9828C94.4627 44.2356 97.3606 41.1364 99.5321 38.6935L97.2898 36.7004L95.0476 34.7073C92.9524 37.0644 90.117 40.0985 86.5303 43.818L88.6898 45.9004ZM97.2898 36.7004L99.5321 38.6935C101.753 36.1952 103.455 33.8573 104.493 31.7018L101.79 30.4004L99.0868 29.0989C98.3913 30.5434 97.0936 32.4056 95.0476 34.7073L97.2898 36.7004ZM101.79 30.4004L104.453 31.7813C105.605 29.5608 106.19 27.1879 106.19 24.7004H103.19H100.19C100.19 26.2129 99.8418 27.64 99.1266 29.0194L101.79 30.4004ZM103.19 24.7004H106.19C106.19 21.6022 105.273 18.7187 102.824 16.8265L100.99 19.2004L99.1555 21.5742C99.6401 21.9487 100.19 22.7319 100.19 24.7004H103.19ZM100.99 19.2004L102.89 16.8785C100.787 15.1581 98.2077 14.4004 95.3898 14.4004V17.4004V20.4004C97.1053 20.4004 98.2595 20.8427 99.0901 21.5223L100.99 19.2004ZM95.3898 17.4004V14.4004C92.334 14.4004 89.3896 15.1694 86.5896 16.6472L87.9898 19.3004L89.3901 21.9535C91.3901 20.898 93.379 20.4004 95.3898 20.4004V17.4004ZM87.9898 19.3004L86.5896 16.6472C83.9409 18.0451 81.0948 20.0515 78.059 22.6043L79.9898 24.9004L81.9206 27.1965C84.7516 24.8159 87.2388 23.089 89.3901 21.9535L87.9898 19.3004ZM79.9898 24.9004L82.2792 22.9616L72.8792 11.8616L70.5898 13.8004L68.3005 15.7391L77.7005 26.8391L79.9898 24.9004ZM70.5898 13.8004L72.6007 16.0267C74.5667 14.251 76.6615 12.6002 78.8864 11.0746L77.1898 8.60039L75.4933 6.1262C73.0515 7.80054 70.7463 9.61647 68.579 11.5741L70.5898 13.8004ZM77.1898 8.60039L78.901 11.0645C81.0272 9.58803 83.5179 8.37881 86.402 7.45837L85.4898 4.60039L84.5777 1.74241C81.1951 2.82197 78.1525 4.27942 75.4787 6.13628L77.1898 8.60039ZM85.4898 4.60039L86.4385 7.44644C89.2478 6.51001 92.7754 6.00039 97.0898 6.00039V3.00039V0.000386953C92.3376 0.000386953 88.1319 0.557436 84.5412 1.75434L85.4898 4.60039ZM97.0898 3.00039V6.00039C101.459 6.00039 105.08 6.79967 108.048 8.28367L109.39 5.60039L110.731 2.91711C106.766 0.934436 102.187 0.000386953 97.0898 0.000386953V3.00039ZM109.39 5.60039L108.09 8.30415C111.108 9.75498 113.324 11.699 114.859 14.111L117.39 12.5004L119.921 10.8898C117.722 7.43512 114.605 4.77913 110.69 2.89663L109.39 5.60039ZM117.39 12.5004L114.885 14.1513C116.481 16.5725 117.29 19.2936 117.29 22.4004H120.29H123.29C123.29 18.1739 122.166 14.2949 119.895 10.8494L117.39 12.5004ZM120.29 22.4004H117.29C117.29 26.0826 116.598 29.3058 115.274 32.1257L117.99 33.4004L120.706 34.6751C122.449 30.9617 123.29 26.8515 123.29 22.4004H120.29ZM117.99 33.4004L115.284 32.104C113.907 34.9795 111.827 37.9709 108.98 41.0712L111.19 43.1004L113.399 45.1296C116.552 41.6966 119.006 38.2212 120.695 34.6967L117.99 33.4004ZM111.19 43.1004L109.001 41.0486C106.071 44.174 102.432 47.7168 98.0718 51.6806L100.09 53.9004L102.108 56.1202C106.548 52.084 110.309 48.4267 113.378 45.1522L111.19 43.1004ZM100.09 53.9004L98.0627 51.6889L90.8627 58.2889L92.8898 60.5004L94.917 62.7119L102.117 56.1119L100.09 53.9004ZM92.8898 60.5004H89.8898V61.1004H92.8898H95.8898V60.5004H92.8898ZM92.8898 61.1004V64.1004H121.99V61.1004V58.1004H92.8898V61.1004ZM121.99 61.1004H118.99V75.4004H121.99H124.99V61.1004H121.99ZM51.3 59.4004L48.4304 58.5255L48.4255 58.5416L48.4208 58.5577L51.3 59.4004ZM43.3 72.0004L41.4465 69.6414L41.4362 69.6496L41.4259 69.6578L43.3 72.0004ZM9.1 66.7004L6.56043 68.2974L6.5663 68.3068L6.57224 68.3161L9.1 66.7004ZM5.4 20.0004L2.5304 19.1255L2.52551 19.1416L2.52079 19.1577L5.4 20.0004ZM13.5 7.40039L15.3535 9.75935L15.3535 9.75934L13.5 7.40039ZM42.8 7.40039L40.9465 9.75935L40.9597 9.76967L40.9729 9.77984L42.8 7.40039ZM51.1 19.9004L48.2505 20.8386V20.8386L51.1 19.9004ZM21.9 56.9004L19.0211 57.7442L19.0231 57.751L19.0251 57.7578L21.9 56.9004ZM34.9 56.9004L32.0393 55.997L32.032 56.0199L32.0251 56.043L34.9 56.9004ZM35.9 27.0004L32.9279 27.4083L32.9318 27.4368L32.9362 27.4653L35.9 27.0004ZM33.4 19.4004L30.9334 21.108L30.9492 21.1308L30.9654 21.1533L33.4 19.4004ZM23.4 19.4004L25.8346 21.1533L25.8508 21.1308L25.8666 21.108L23.4 19.4004ZM53.8 39.7004H50.8C50.8 47.1649 49.9869 53.4204 48.4304 58.5255L51.3 59.4004L54.1696 60.2753C55.9465 54.4471 56.8 47.5692 56.8 39.7004H53.8ZM51.3 59.4004L48.4208 58.5577C46.9605 63.5469 44.5967 67.1663 41.4465 69.6414L43.3 72.0004L45.1535 74.3593C49.47 70.9678 52.4395 66.1872 54.1792 60.2431L51.3 59.4004ZM43.3 72.0004L41.4259 69.6578C38.4455 72.0421 34.2135 73.4004 28.4 73.4004V76.4004V79.4004C35.1198 79.4004 40.8212 77.8253 45.1741 74.343L43.3 72.0004ZM28.4 76.4004V73.4004C20.524 73.4004 15.1259 70.5576 11.6278 65.0847L9.1 66.7004L6.57224 68.3161C11.3408 75.7765 18.8093 79.4004 28.4 79.4004V76.4004ZM9.1 66.7004L11.6396 65.1033C7.99014 59.3001 6 50.9367 6 39.7004H3H0C0 51.5308 2.07653 61.1673 6.56043 68.2974L9.1 66.7004ZM3 39.7004H6C6 32.2272 6.78155 25.9601 8.27921 20.8431L5.4 20.0004L2.52079 19.1577C0.818452 24.974 0 31.8402 0 39.7004H3ZM5.4 20.0004L8.2696 20.8753C9.79445 15.8737 12.194 12.2418 15.3535 9.75935L13.5 7.40039L11.6465 5.04143C7.33938 8.42563 4.33888 13.1937 2.5304 19.1255L5.4 20.0004ZM13.5 7.40039L15.3535 9.75934C18.4158 7.3532 22.6654 6.00039 28.4 6.00039V3.00039V0.000386953C21.7346 0.000386953 16.0508 1.58091 11.6465 5.04144L13.5 7.40039ZM28.4 3.00039V6.00039C33.7568 6.00039 37.8566 7.33155 40.9465 9.75935L42.8 7.40039L44.6535 5.04144C40.2767 1.60256 34.7765 0.000386953 28.4 0.000386953V3.00039ZM42.8 7.40039L40.9729 9.77984C44.1311 12.2049 46.5965 15.8153 48.2505 20.8386L51.1 19.9004L53.9495 18.9621C52.0035 13.0522 48.9355 8.32921 44.6271 5.02094L42.8 7.40039ZM51.1 19.9004L48.2505 20.8386C49.9232 25.9187 50.8 32.1836 50.8 39.7004H53.8H56.8C56.8 31.7505 55.8768 24.8154 53.9495 18.9621L51.1 19.9004ZM20.2 39.8004H17.2C17.2 47.4171 17.7655 53.4605 19.0211 57.7442L21.9 56.9004L24.7789 56.0566C23.7678 52.607 23.2 47.2503 23.2 39.8004H20.2ZM21.9 56.9004L19.0251 57.7578C19.6947 60.0029 20.7578 61.9935 22.397 63.431C24.0892 64.9149 26.1586 65.6004 28.4 65.6004V62.6004V59.6004C27.4414 59.6004 26.8275 59.3359 26.353 58.9198C25.8255 58.4573 25.2386 57.5979 24.7749 56.043L21.9 56.9004ZM28.4 62.6004V65.6004C30.6414 65.6004 32.7108 64.9149 34.403 63.431C36.0422 61.9935 37.1053 60.0029 37.7749 57.7578L34.9 56.9004L32.0251 56.043C31.5614 57.5979 30.9745 58.4573 30.447 58.9198C29.9725 59.3359 29.3586 59.6004 28.4 59.6004V62.6004ZM34.9 56.9004L37.7607 57.8038C39.103 53.5534 39.7 47.4455 39.7 39.7004H36.7H33.7C33.7 47.2886 33.097 52.6474 32.0393 55.997L34.9 56.9004ZM36.7 39.7004H39.7C39.7 34.5435 39.4296 30.1427 38.8638 26.5355L35.9 27.0004L32.9362 27.4653C33.4371 30.6581 33.7 34.724 33.7 39.7004H36.7ZM35.9 27.0004L38.8721 26.5924C38.3782 22.9936 37.4523 19.8943 35.8346 17.6475L33.4 19.4004L30.9654 21.1533C31.7477 22.2398 32.4885 24.2071 32.9279 27.4083L35.9 27.0004ZM33.4 19.4004L35.8666 17.6928C34.0983 15.1385 31.5037 13.8004 28.4 13.8004V16.8004V19.8004C29.563 19.8004 30.3017 20.1956 30.9334 21.108L33.4 19.4004ZM28.4 16.8004V13.8004C25.2963 13.8004 22.7017 15.1385 20.9334 17.6928L23.4 19.4004L25.8666 21.108C26.4983 20.1956 27.237 19.8004 28.4 19.8004V16.8004ZM23.4 19.4004L20.9654 17.6475C19.3477 19.8943 18.4218 22.9936 17.9279 26.5924L20.9 27.0004L23.8721 27.4083C24.3115 24.2071 25.0523 22.2398 25.8346 21.1533L23.4 19.4004ZM20.9 27.0004L17.9279 26.5924C17.436 30.1762 17.2 34.5904 17.2 39.8004H20.2H23.2C23.2 34.7437 23.4307 30.6246 23.8721 27.4083L20.9 27.0004Z" fill="url(#paint0_linear_12_318)" mask="url(#path-1-outside-1_12_318)"/>
<defs>
<linearGradient id="paint0_linear_12_318" x1="62.5" y1="-0.599609" x2="62.5" y2="85.4004" gradientUnits="userSpaceOnUse">
<stop stop-color="#00B2B2"/>
<stop offset="0.865385" stop-color="#003555"/>
</linearGradient>
</defs>
</svg>
