<svg width="21" height="21" viewBox="0 0 21 21" fill="none" xmlns="http://www.w3.org/2000/svg">
<path d="M14.3306 2.95096C14.3306 2.83915 14.2862 2.73193 14.2072 2.65287C14.1281 2.57381 14.0209 2.5294 13.9091 2.5294H11.8013C10.7399 2.47653 9.70077 2.8459 8.91087 3.5568C8.12098 4.2677 7.64457 5.26235 7.58573 6.32341V8.59981H5.47795C5.36615 8.59981 5.25892 8.64423 5.17987 8.72329C5.10081 8.80234 5.0564 8.90957 5.0564 9.02137V11.2135C5.0564 11.3253 5.10081 11.4325 5.17987 11.5115C5.25892 11.5906 5.36615 11.635 5.47795 11.635H7.58573V17.2839C7.58573 17.3957 7.63015 17.5029 7.70921 17.582C7.78826 17.661 7.89549 17.7054 8.00729 17.7054H10.5366C10.6484 17.7054 10.7557 17.661 10.8347 17.582C10.9138 17.5029 10.9582 17.3957 10.9582 17.2839V11.635H13.1671C13.2609 11.6364 13.3524 11.6064 13.4272 11.5499C13.502 11.4934 13.5559 11.4136 13.5803 11.3231L14.1873 9.13097C14.2041 9.06869 14.2063 9.00338 14.1939 8.94009C14.1815 8.87679 14.1547 8.81719 14.1156 8.76588C14.0765 8.71457 14.0261 8.67292 13.9684 8.64413C13.9107 8.61534 13.8471 8.60017 13.7826 8.59981H10.9582V6.32341C10.9792 6.11472 11.0772 5.92134 11.2331 5.78103C11.389 5.64072 11.5916 5.56356 11.8013 5.56461H13.9091C14.0209 5.56461 14.1281 5.52019 14.2072 5.44114C14.2862 5.36208 14.3306 5.25485 14.3306 5.14305V2.95096Z" fill="white"/>
</svg>
