<svg width="21" height="21" viewBox="0 0 21 21" fill="none" xmlns="http://www.w3.org/2000/svg">
<path d="M14.7537 11.8037C14.5069 12.6623 14.0177 13.4316 13.3448 14.0193C12.6718 14.607 11.8437 14.9881 10.9597 15.1171C10.2684 15.2174 9.56389 15.177 8.88857 14.9983C8.21326 14.8195 7.58102 14.5062 7.02982 14.077C6.47862 13.6479 6.01981 13.1118 5.68095 12.5009C5.34209 11.89 5.13017 11.217 5.05789 10.5222C5.00191 9.82462 5.09125 9.12304 5.32029 8.4618C5.54932 7.80055 5.91305 7.19401 6.3885 6.68054C6.86394 6.16706 7.44074 5.75781 8.08245 5.47866C8.72415 5.19952 9.41679 5.05655 10.1166 5.05879C10.7723 5.05971 11.4219 5.18562 12.0304 5.42976C12.1263 5.47278 12.2347 5.47848 12.3345 5.44573C12.4343 5.41298 12.5183 5.34414 12.57 5.25271L13.7841 3.01846C13.8102 2.96699 13.826 2.91088 13.8304 2.85333C13.8347 2.79578 13.8277 2.73793 13.8097 2.68309C13.7917 2.62826 13.763 2.57753 13.7254 2.5338C13.6877 2.49007 13.6418 2.45421 13.5902 2.42828C12.2865 1.83802 10.854 1.58933 9.42767 1.70562C8.00132 1.82191 6.62803 2.29935 5.43717 3.09298C4.2463 3.88661 3.27705 4.9703 2.62069 6.242C1.96433 7.51369 1.64248 8.93153 1.68544 10.362C1.76853 12.4865 2.64185 14.5035 4.13433 16.0178C5.62681 17.5322 7.63091 18.4347 9.75403 18.5486C11.9781 18.6472 14.1509 17.8622 15.7983 16.3648C17.4458 14.8674 18.4341 12.7792 18.5477 10.5559C18.5477 10.3873 18.5477 9.41769 18.5477 8.86966C18.5455 8.75853 18.5004 8.65256 18.4218 8.57396C18.3432 8.49537 18.2373 8.45026 18.1261 8.4481H10.5381C10.4263 8.4481 10.3191 8.49252 10.24 8.57158C10.161 8.65063 10.1166 8.75786 10.1166 8.86966V11.399C10.1166 11.5108 10.161 11.618 10.24 11.6971C10.3191 11.7761 10.4263 11.8206 10.5381 11.8206H14.7537" fill="white"/>
</svg>
