<svg width="107" height="54" viewBox="0 0 107 54" fill="none" xmlns="http://www.w3.org/2000/svg">
<path d="M97.8246 2.5286L97.288 2.68714L95.7101 2.98684L93.2896 3.53552C92.3854 3.80271 91.3223 3.98359 90.1791 4.28807C89.612 4.45563 89.0294 4.62778 88.4163 4.80893L87.497 5.08057L84.5847 5.94107L82.5312 6.54783C81.1745 7.03198 79.7564 7.53427 78.361 8.11311C77.6406 8.32596 76.8779 8.73452 76.2568 9.0013C75.889 9.10998 75.5528 9.32587 75.1986 9.4805L74.1602 9.97046C72.7965 10.6565 71.4372 11.3579 70.1358 12.1421L69.1706 12.7104L68.2344 13.3201L67.3131 13.9253L66.432 14.552L66.0065 14.8609L65.7841 15.0099L65.5658 15.1743L64.7595 15.8289C64.1945 16.2289 63.6978 16.6921 63.1924 17.1245L62.8178 17.435L62.6348 17.6057L62.4674 17.7717L61.7772 18.4253L61.1132 19.0544L60.5196 19.6961C59.6971 20.522 59.0412 21.3486 58.4197 22.0651C58.1134 22.4386 57.8687 22.7941 57.6147 23.1189L56.9157 24.0248C56.552 24.5986 56.2335 25.0424 56.0255 25.3536L55.6959 25.8174L55.9063 25.289L56.4943 23.783L57.0055 22.7494L57.2989 22.1631L57.4566 21.8501L57.5428 21.6914C57.5665 21.6359 57.5956 21.5827 57.6293 21.5326L58.4386 20.2111L58.6482 19.8494L58.8976 19.5093L59.4184 18.7892L59.9605 18.0295L60.5775 17.2977L61.2206 16.5415L61.3789 16.3448L61.5575 16.1589L61.9143 15.787C62.3863 15.2978 62.8798 14.769 63.4222 14.2923L64.2365 13.5522L64.4458 13.3571L64.6745 13.173L65.1063 12.8289L65.991 12.1012L66.9398 11.4212L67.889 10.7411L68.9019 10.1087C69.5544 9.66614 70.3168 9.25768 70.9567 8.88543L72.0185 8.30527L73.0892 7.75577L74.1781 7.26749C74.5613 7.15428 74.9082 6.91853 75.2823 6.77469C76.0215 6.45637 76.7652 6.15339 77.5026 5.88554L78.6214 5.55497L79.7402 5.22439C80.4759 5.00702 81.2731 4.77145 81.9321 4.57672L83.0049 4.25974L84.047 3.95183C84.7367 3.74805 85.4338 3.62535 86.1001 3.51172C87.4544 3.24479 88.7301 3.05101 89.9032 2.90421C91.0763 2.75741 92.1819 2.66387 93.1495 2.6111C94.1171 2.55833 94.9621 2.54177 95.6601 2.53535C96.3582 2.52893 96.8984 2.55247 97.3285 2.54193L97.8887 2.57628" fill="#00B1B0"/>
<path d="M0.277603 34.1336L0.801992 33.8788C1.1545 33.7746 1.6394 33.4982 2.28486 33.2575C2.93031 33.0168 3.77685 32.6667 4.6306 32.3978C5.48435 32.1289 6.6077 31.8136 7.69587 31.4921C8.78405 31.1706 10.0985 30.8821 11.4374 30.6197L13.5131 30.2562L14.6005 30.1014C14.953 29.9973 15.3329 29.9849 15.7081 29.9573C16.4493 29.8715 17.2057 29.7812 17.9758 29.7369L19.1363 29.6604L20.3212 29.6101C21.1112 29.5765 21.8997 29.5933 22.6987 29.5903C23.0982 29.5888 23.5067 29.618 23.8954 29.6364L25.112 29.6932L26.3115 29.8051C26.7047 29.8387 27.1132 29.8679 27.4956 29.9214C28.2956 30.0348 29.0913 30.1327 29.8698 30.2857L31.035 30.5075L32.179 30.769L33.3119 31.0504L34.4126 31.3913L34.9431 31.5509L35.2181 31.6362L35.4778 31.726L36.5063 32.1049C37.1956 32.3508 37.8525 32.6563 38.4236 32.9538L38.8865 33.1667L39.1158 33.2655L39.3493 33.3797L40.2227 33.8543L41.0721 34.3028L41.8489 34.7893L42.6062 35.2649C42.7298 35.3449 42.8488 35.4097 42.9571 35.4943L43.2972 35.7434C43.7413 36.0619 44.1503 36.374 44.5393 36.6753L44.6874 36.7814L44.8202 36.8921L45.0899 37.1288L45.5854 37.5652C45.8842 37.8433 46.1894 38.0862 46.4287 38.3319C46.927 38.8341 47.2926 39.2256 47.5563 39.4974L47.9308 39.9196L47.4562 39.6102L46.127 38.7207C45.84 38.5391 45.5134 38.3359 45.156 38.1417C44.7987 37.9476 44.4385 37.6876 44.0063 37.4656C43.177 37.0279 42.2396 36.5056 41.1885 36.0501L40.3771 35.6738L39.5291 35.3415L38.6413 34.9877L38.4169 34.9041L38.1921 34.8207L37.732 34.6735C37.1023 34.4599 36.468 34.231 35.7968 34.0463L34.7954 33.7594L34.5403 33.6849L34.2743 33.6303L33.7529 33.5013L32.7145 33.2585C32.3536 33.1653 31.9867 33.1072 31.635 33.0446L30.5397 32.8354L29.4233 32.6657C27.935 32.4227 26.4078 32.2745 24.8746 32.1613L23.7239 32.1016C23.3352 32.0833 22.9574 32.0451 22.5777 32.0573C21.8094 32.0512 21.0426 31.9947 20.2986 32.0147C18.7772 31.9979 17.283 32.0731 15.8347 32.1347L13.6956 32.2838C12.9959 32.3407 12.3114 32.3931 11.6514 32.4715L10.6624 32.5639L9.71272 32.678L7.91454 32.9096C6.74141 33.0564 5.68914 33.2175 4.72256 33.3865L2.27663 33.7928L0.698738 34.0925L0.146825 34.2556" fill="#00B1B0"/>
<path d="M2.85407 28.8072C3.82313 28.4209 4.8211 28.0761 5.86957 27.733C6.91804 27.3899 7.89265 27.1352 8.93484 26.8273L10.4675 26.3744L12.0273 26.0135C13.0614 25.7912 14.1001 25.5842 15.1785 25.3987L16.77 25.1449L18.3705 24.9219L19.9846 24.7447C20.5175 24.6871 21.0442 24.6647 21.6123 24.6134C22.1804 24.5621 22.661 24.5533 23.249 24.5128L24.0389 24.4792L24.8334 24.461C25.8912 24.4315 26.9562 24.4832 28.0276 24.4997L29.6265 24.61C29.8944 24.6142 30.1563 24.6533 30.4133 24.6773L31.2196 24.7555L32.0151 24.8535L32.7997 24.9713L33.6042 25.1L34.3934 25.2332L35.9703 25.5499C36.4872 25.6636 37.0129 25.808 37.5343 25.937L38.3113 26.1404L39.0861 26.3944L39.8564 26.633L40.2415 26.7524L40.6163 26.8915L42.138 27.4743C42.6315 27.6782 43.1188 27.9172 43.6168 28.1364L44.3487 28.4696L45.0632 28.858L45.7933 29.2417L46.1461 29.4206L46.4925 29.6346L47.8788 30.4906C48.1216 30.6354 48.3226 30.8091 48.55 30.9584L49.2063 31.4306L49.867 31.9181C50.0894 32.0748 50.3014 32.2458 50.5016 32.43L51.7599 33.4736L52.0052 33.6842L52.3356 34.8023L52.4306 35.1239L52.6177 35.4183C52.6449 35.5102 52.7533 35.5947 52.8156 35.6929L53.0393 35.9432L53.294 36.1843L53.57 36.3859L53.8725 36.5629L54.181 36.7049L54.5002 36.8271L54.8415 36.9094L55.1733 36.9612L55.5268 36.9734L55.8486 36.8783L56.002 36.833L56.8297 36.5884L57.1515 36.4933L57.4733 36.3982L57.7481 36.2005L58.0093 35.9567L58.2356 35.7067L58.4372 35.4306L58.619 35.1438L58.7767 34.8308L58.8988 34.5116C58.9157 34.3956 58.9435 34.2815 58.9816 34.1707L59.0333 33.839C59.0016 33.7318 59.0467 33.6019 59.0457 33.4857L58.9506 33.1641C58.9117 33.0591 58.88 32.9517 58.8556 32.8425L58.8011 32.3756L58.9476 32.0826L59.7207 30.6385L60.1097 29.9241L60.5426 29.2466L60.9713 28.5538C61.1208 28.3264 61.2656 28.0838 61.4196 27.8718L62.3805 26.5554L62.6344 26.2306L62.8929 25.9211L63.4101 25.302L63.9423 24.6785C64.1117 24.4619 64.3098 24.2868 64.4989 24.081C64.6881 23.8753 65.2342 23.2976 65.6216 22.9167L66.808 21.8001L67.0953 21.532L67.4179 21.2702L68.0324 20.7556L68.6671 20.2517C68.8653 20.0766 69.0878 19.9275 69.3059 19.7632C69.7312 19.4543 70.1628 19.1103 70.6079 18.8122L72.0048 17.8999L72.697 17.4789L73.3783 17.0778L74.0705 16.6568L74.7762 16.2817L75.4819 15.9067C75.7165 15.7713 75.9588 15.6497 76.2075 15.5425L77.6632 14.8292C78.6385 14.4078 79.6093 13.9711 80.6289 13.5866L81.3799 13.3647L82.1462 13.1382C82.652 12.9888 83.1731 12.8348 83.6788 12.6854L85.2115 12.2325L86.7441 11.7797L88.2768 11.3268L89.8365 10.9658C90.8707 10.7435 91.9094 10.5365 92.9878 10.3511L94.5793 10.0974C95.085 9.94793 95.6207 9.95616 96.1798 9.87423C97.2258 9.74834 98.2717 9.62247 99.3204 9.56237C100.369 9.50227 101.414 9.4268 102.465 9.43249C101.419 9.55839 100.398 9.71036 99.35 9.88672C98.3022 10.0631 97.2942 10.261 96.1942 10.4861L94.6299 10.8318L93.0972 11.2846C92.101 11.579 91.0895 11.8779 90.0319 12.1903L88.4993 12.6432L86.9667 13.096L85.434 13.5489L83.9331 14.109C83.4426 14.2539 82.9685 14.5105 82.4457 14.715L81.7323 15.009L81.0284 15.3336C80.0837 15.746 79.1527 16.2042 78.2369 16.658L76.8715 17.3945L76.201 17.7758L75.535 18.1724L74.8794 18.5493L74.2225 18.9765L73.5764 19.3839C73.3691 19.5284 73.1421 19.6621 72.9393 19.822L71.7004 20.7043C71.275 21.0131 70.8846 21.3283 70.4792 21.6479C70.2917 21.8032 70.0692 21.9522 69.8863 22.1228L69.3179 22.6239L68.7338 23.1295L68.4572 23.3777L68.1699 23.6458L67.0818 24.7L66.0467 25.8218L65.5466 26.3859L65.0712 26.976L64.5958 27.5661L64.3523 27.8712L64.1399 28.167L63.2574 29.4103C63.1109 29.612 62.9784 29.8237 62.8611 30.0436L62.4544 30.6967L62.0581 31.33L61.7065 32.0001L61.0177 33.336L61.1097 32.5761L61.1963 33.1499L61.2212 33.7421C61.2755 33.9259 61.2025 34.1307 61.1955 34.3326L61.1151 34.9059L60.9642 35.4667L60.7628 36.0257L60.5172 36.5478L60.212 37.0378L59.867 37.506L59.4624 37.942L59.0293 38.3364L58.5669 38.6894L58.0711 38.9859L57.5042 39.1534L56.8909 39.3346L56.1093 39.5655L55.8335 39.647L55.2565 39.6676C55.0726 39.7219 54.8677 39.6493 54.6657 39.6423L54.0874 39.5468C53.8994 39.5124 53.7135 39.4672 53.5307 39.4116L52.9717 39.2104L52.4447 38.9497C52.2859 38.8635 52.1181 38.7466 51.9547 38.645C51.7921 38.5393 51.6357 38.4242 51.4863 38.3004C51.3338 38.1789 51.1918 38.0377 51.0546 37.9118L50.6602 37.4788L50.3177 36.9971C50.2106 36.8371 50.1119 36.6718 50.0216 36.5018C49.9673 36.318 49.9129 36.1343 49.782 35.9731C49.651 35.812 49.6688 35.5902 49.6145 35.4065L49.4516 34.8551L49.8177 35.5296L48.674 34.5353L48.099 34.0558L47.4826 33.6052L46.8661 33.1545C46.6695 32.9992 46.4653 32.854 46.2541 32.7192L44.9783 31.8972L44.6712 31.7048L44.3338 31.5214L43.6741 31.1502L42.9994 30.7833L42.318 30.4518C41.8704 30.2343 41.4184 30.0016 40.9403 29.7931L39.5391 29.2247L39.1801 29.081L38.8253 28.9526L38.101 28.7004L37.3764 28.4482L36.6458 28.2311L35.1735 27.8169L33.6845 27.4576L32.9409 27.3109L32.1824 27.1687L31.424 27.0264L30.6547 26.904L29.8895 26.7971L29.1293 26.7053L27.5934 26.5263C26.5697 26.4458 25.546 26.3653 24.5052 26.3398L23.7324 26.3183L22.9596 26.2969L21.4118 26.3046L19.8535 26.3321L18.2935 26.41L16.6658 26.5412L15.0472 26.7031C14.012 26.8091 12.9815 26.9305 11.9445 27.087L10.3485 27.3254L8.76614 27.6099L5.69573 28.2173C4.68419 28.5162 3.65178 28.688 2.58973 28.9852" fill="#122D47"/>
</svg>
