<svg width="64" height="96" viewBox="0 0 64 96" fill="none" xmlns="http://www.w3.org/2000/svg">
<g filter="url(#filter0_d_132_328)">
<path d="M4.84221 63.3503L23.0388 73.2911V86.433L4.84221 76.4923V63.3503Z" fill="#00B2B2"/>
<path d="M51.1764 45.3233L40.2247 43.1329L26.0718 44.8178C26.2403 45.4917 26.4088 46.1657 26.4088 47.1766C26.4088 49.7039 25.7348 51.8942 24.3869 53.9161C23.039 55.9379 21.0172 57.7913 18.4899 59.3077C16.6365 60.3186 14.4462 61.3295 11.9189 62.0035C9.39161 62.8459 7.03278 63.1829 5.01094 63.3513L19.5008 71.2702L23.2075 73.2921L35.1701 75.9879L53.3667 58.6337L51.1764 45.3233Z" fill="#00B2B2"/>
<path d="M35.17 76.6606L22.7019 73.7964L4.16837 63.5186V62.6762H4.84235C6.86419 62.5077 9.05452 62.1708 11.5818 61.3283C14.1091 60.4859 16.2994 59.6435 18.1528 58.6325C20.6801 57.1162 22.5334 55.4313 23.8813 53.5779C25.2292 51.5561 25.9032 49.5342 25.9032 47.1754C25.9032 46.333 25.7347 45.6591 25.5662 44.9851L25.2292 44.1427L40.393 42.2893H40.5615L52.0186 44.6481L54.0405 58.801L35.17 76.6606ZM23.2074 72.6169L34.6645 75.1442L52.3556 58.2955L50.5022 45.659L40.0561 43.6372L26.7456 45.1536C26.9141 45.6591 26.9141 46.333 26.9141 47.007C26.9141 49.5343 26.2402 52.0615 24.7238 54.0834C23.2074 56.2737 21.1855 58.1271 18.4897 59.6435C16.6364 60.6544 14.2776 61.6653 11.7503 62.5077C10.0654 63.0132 8.38054 63.3502 6.86416 63.6871L23.2074 72.6169Z" fill="#003555"/>
<path d="M7.70703 17.6909L25.9036 27.8001L55.2203 10.783L37.0237 0.842285L7.70703 17.6909Z" fill="#00B2B2"/>
<path d="M5.68478 50.2102L7.70659 17.6923L25.9032 27.8015L23.8813 60.3194L5.68478 50.2102Z" fill="#00B2B2"/>
<path d="M54.7144 37.4047L37.6972 28.1379L28.7674 39.0896L33.3166 47.5139L55.2198 44.8181L54.7144 37.4047Z" fill="#00B2B2"/>
<path d="M32.9797 48.1881L28.0936 38.9214L37.5288 27.2958L55.22 36.8995L55.8939 45.3239L32.9797 48.1881ZM29.6099 39.0899L33.6536 46.6718L54.546 44.1445L54.0405 37.742L37.8658 28.9806L29.6099 39.0899Z" fill="#003555"/>
<path d="M7.70703 22.2409L25.9036 32.3501L55.2203 15.3329L37.0237 5.39221L7.70703 22.2409Z" fill="#F2F8FC"/>
<path d="M39.719 32.6875L48.6488 37.9105L38.7081 41.9543C38.7081 41.9543 34.3275 42.9652 34.3275 42.6282C34.3275 42.2912 35.0014 33.1929 35.0014 33.1929L39.719 32.6875Z" fill="#F2F8FC"/>
<path d="M13.9406 63.3507C13.4352 63.5192 12.9297 63.6877 12.4243 63.6877L27.7565 72.2805L38.0342 70.0902L20.5116 60.6549C18.4898 61.6658 16.4679 62.5083 13.9406 63.3507Z" fill="#F2F8FC"/>
<path d="M57.2418 39.2574C55.7254 36.8986 53.7036 35.7192 51.1763 35.3822C48.649 35.2137 45.7847 35.8877 42.752 37.7411C42.078 38.078 41.404 38.5835 40.5616 39.0889C39.8876 39.4259 39.0452 40.0999 37.6974 41.1108L38.2028 34.7083L55.7254 24.5991V10.4462L36.8549 0L7.03274 17.3541L5.01088 50.7145L23.7129 60.9922H29.273L29.4415 60.8237C31.9688 58.4649 34.3276 56.6116 36.3494 55.4322C39.7192 53.5788 41.404 53.4103 42.2465 53.7473C42.5834 53.9158 43.9313 54.2527 43.9313 57.2855C43.9313 59.6443 43.2574 61.8346 41.9095 63.688C40.5616 65.7098 38.7082 67.3947 36.1809 68.7426C34.3276 69.7535 32.1373 70.7645 29.61 71.4384C27.2511 72.1124 24.8923 72.6178 23.039 72.7863L4.84243 62.8456H4V76.9984L22.702 87.2761H23.5444C27.4196 87.1077 32.1372 85.2543 37.8658 81.8846C44.9422 77.8409 50.3338 72.9548 53.872 67.2262C57.4103 61.6662 59.0951 55.2637 59.0951 48.5242C59.4321 44.649 58.5897 41.4478 57.2418 39.2574ZM22.365 85.4228L5.51637 76.156V64.3619L22.365 73.6287V85.4228ZM37.0234 1.51637L53.872 10.7832L35.6755 21.2293L25.7348 26.9579L8.88611 17.6911L37.0234 1.51637ZM23.5444 57.2855L23.376 59.3073L6.3588 50.0406L8.21217 18.8705L25.2293 28.1373L23.5444 57.2855Z" fill="#003555"/>
</g>
<defs>
<filter id="filter0_d_132_328" x="0" y="0" width="63.1694" height="95.2761" filterUnits="userSpaceOnUse" color-interpolation-filters="sRGB">
<feFlood flood-opacity="0" result="BackgroundImageFix"/>
<feColorMatrix in="SourceAlpha" type="matrix" values="0 0 0 0 0 0 0 0 0 0 0 0 0 0 0 0 0 0 127 0" result="hardAlpha"/>
<feOffset dy="4"/>
<feGaussianBlur stdDeviation="2"/>
<feComposite in2="hardAlpha" operator="out"/>
<feColorMatrix type="matrix" values="0 0 0 0 0 0 0 0 0 0 0 0 0 0 0 0 0 0 0.25 0"/>
<feBlend mode="normal" in2="BackgroundImageFix" result="effect1_dropShadow_132_328"/>
<feBlend mode="normal" in="SourceGraphic" in2="effect1_dropShadow_132_328" result="shape"/>
</filter>
</defs>
</svg>
