<svg width="115" height="80" viewBox="0 0 115 80" fill="none" xmlns="http://www.w3.org/2000/svg">
<mask id="path-1-outside-1_12_325" maskUnits="userSpaceOnUse" x="-0.5" y="-0.599609" width="115" height="80" fill="black">
<rect fill="white" x="-0.5" y="-0.599609" width="115" height="80"/>
<path d="M111.29 75.4004H93.8898V37.1004C93.8898 36.2337 93.8898 34.9671 93.8898 33.3004C93.9565 31.5671 94.0232 29.7337 94.0898 27.8004C94.1565 25.8004 94.2232 24.0337 94.2898 22.5004C93.6232 23.1671 92.8565 23.9671 91.9898 24.9004C91.1232 25.7671 90.2565 26.5337 89.3898 27.2004L81.2898 33.9004L72.5898 23.2004L96.2898 4.00039H111.29V75.4004ZM53.8 39.7004C53.8 47.3671 52.9667 53.9337 51.3 59.4004C49.7 64.8671 47.0333 69.0671 43.3 72.0004C39.6333 74.9337 34.6667 76.4004 28.4 76.4004C19.6667 76.4004 13.2333 73.1671 9.1 66.7004C5.03333 60.2337 3 51.2337 3 39.7004C3 32.0337 3.8 25.4671 5.4 20.0004C7.06667 14.5337 9.76667 10.3337 13.5 7.40039C17.2333 4.46705 22.2 3.00039 28.4 3.00039C34.2667 3.00039 39.0667 4.46705 42.8 7.40039C46.5333 10.2671 49.3 14.4337 51.1 19.9004C52.9 25.3671 53.8 31.9671 53.8 39.7004ZM20.2 39.8004C20.2 47.3337 20.7667 53.0337 21.9 56.9004C23.0333 60.7004 25.2 62.6004 28.4 62.6004C31.6 62.6004 33.7667 60.7004 34.9 56.9004C36.1 53.1004 36.7 47.3671 36.7 39.7004C36.7 34.6337 36.4333 30.4004 35.9 27.0004C35.4333 23.6004 34.6 21.0671 33.4 19.4004C32.2 17.6671 30.5333 16.8004 28.4 16.8004C26.2667 16.8004 24.6 17.6671 23.4 19.4004C22.2 21.0671 21.3667 23.6004 20.9 27.0004C20.4333 30.4004 20.2 34.6671 20.2 39.8004Z"/>
</mask>
<path d="M111.29 75.4004H93.8898V37.1004C93.8898 36.2337 93.8898 34.9671 93.8898 33.3004C93.9565 31.5671 94.0232 29.7337 94.0898 27.8004C94.1565 25.8004 94.2232 24.0337 94.2898 22.5004C93.6232 23.1671 92.8565 23.9671 91.9898 24.9004C91.1232 25.7671 90.2565 26.5337 89.3898 27.2004L81.2898 33.9004L72.5898 23.2004L96.2898 4.00039H111.29V75.4004ZM53.8 39.7004C53.8 47.3671 52.9667 53.9337 51.3 59.4004C49.7 64.8671 47.0333 69.0671 43.3 72.0004C39.6333 74.9337 34.6667 76.4004 28.4 76.4004C19.6667 76.4004 13.2333 73.1671 9.1 66.7004C5.03333 60.2337 3 51.2337 3 39.7004C3 32.0337 3.8 25.4671 5.4 20.0004C7.06667 14.5337 9.76667 10.3337 13.5 7.40039C17.2333 4.46705 22.2 3.00039 28.4 3.00039C34.2667 3.00039 39.0667 4.46705 42.8 7.40039C46.5333 10.2671 49.3 14.4337 51.1 19.9004C52.9 25.3671 53.8 31.9671 53.8 39.7004ZM20.2 39.8004C20.2 47.3337 20.7667 53.0337 21.9 56.9004C23.0333 60.7004 25.2 62.6004 28.4 62.6004C31.6 62.6004 33.7667 60.7004 34.9 56.9004C36.1 53.1004 36.7 47.3671 36.7 39.7004C36.7 34.6337 36.4333 30.4004 35.9 27.0004C35.4333 23.6004 34.6 21.0671 33.4 19.4004C32.2 17.6671 30.5333 16.8004 28.4 16.8004C26.2667 16.8004 24.6 17.6671 23.4 19.4004C22.2 21.0671 21.3667 23.6004 20.9 27.0004C20.4333 30.4004 20.2 34.6671 20.2 39.8004Z" fill="#F2F8FC"/>
<path d="M111.29 75.4004V78.4004H114.29V75.4004H111.29ZM93.8898 75.4004H90.8898V78.4004H93.8898V75.4004ZM93.8898 33.3004L90.8921 33.1851L90.8898 33.2427V33.3004H93.8898ZM94.0898 27.8004L97.0881 27.9038L97.0882 27.9003L94.0898 27.8004ZM94.2898 22.5004L97.287 22.6307L97.622 14.9256L92.1685 20.3791L94.2898 22.5004ZM91.9898 24.9004L94.1112 27.0217L94.1504 26.9824L94.1882 26.9417L91.9898 24.9004ZM89.3898 27.2004L87.5607 24.8225L87.5186 24.8549L87.4777 24.8887L89.3898 27.2004ZM81.2898 33.9004L78.9622 35.793L80.8708 38.1403L83.202 36.2121L81.2898 33.9004ZM72.5898 23.2004L70.7014 20.8693L68.3662 22.7612L70.2622 25.093L72.5898 23.2004ZM96.2898 4.00039V1.00039H95.2271L94.4014 1.66934L96.2898 4.00039ZM111.29 4.00039H114.29V1.00039H111.29V4.00039ZM111.29 75.4004V72.4004H93.8898V75.4004V78.4004H111.29V75.4004ZM93.8898 75.4004H96.8898V37.1004H93.8898H90.8898V75.4004H93.8898ZM93.8898 37.1004H96.8898C96.8898 37.0987 96.8898 37.097 96.8898 37.0953C96.8898 37.0936 96.8898 37.0919 96.8898 37.0902C96.8898 37.0885 96.8898 37.0868 96.8898 37.0851C96.8898 37.0834 96.8898 37.0817 96.8898 37.08C96.8898 37.0783 96.8898 37.0766 96.8898 37.0749C96.8898 37.0732 96.8898 37.0715 96.8898 37.0698C96.8898 37.068 96.8898 37.0663 96.8898 37.0646C96.8898 37.0629 96.8898 37.0612 96.8898 37.0595C96.8898 37.0578 96.8898 37.056 96.8898 37.0543C96.8898 37.0526 96.8898 37.0509 96.8898 37.0491C96.8898 37.0474 96.8898 37.0457 96.8898 37.044C96.8898 37.0422 96.8898 37.0405 96.8898 37.0388C96.8898 37.0371 96.8898 37.0353 96.8898 37.0336C96.8898 37.0319 96.8898 37.0301 96.8898 37.0284C96.8898 37.0267 96.8898 37.0249 96.8898 37.0232C96.8898 37.0215 96.8898 37.0197 96.8898 37.018C96.8898 37.0162 96.8898 37.0145 96.8898 37.0127C96.8898 37.011 96.8898 37.0092 96.8898 37.0075C96.8898 37.0058 96.8898 37.004 96.8898 37.0023C96.8898 37.0005 96.8898 36.9987 96.8898 36.997C96.8898 36.9952 96.8898 36.9935 96.8898 36.9917C96.8898 36.99 96.8898 36.9882 96.8898 36.9865C96.8898 36.9847 96.8898 36.9829 96.8898 36.9812C96.8898 36.9794 96.8898 36.9776 96.8898 36.9759C96.8898 36.9741 96.8898 36.9723 96.8898 36.9706C96.8898 36.9688 96.8898 36.967 96.8898 36.9653C96.8898 36.9635 96.8898 36.9617 96.8898 36.9599C96.8898 36.9582 96.8898 36.9564 96.8898 36.9546C96.8898 36.9528 96.8898 36.9511 96.8898 36.9493C96.8898 36.9475 96.8898 36.9457 96.8898 36.9439C96.8898 36.9421 96.8898 36.9404 96.8898 36.9386C96.8898 36.9368 96.8898 36.935 96.8898 36.9332C96.8898 36.9314 96.8898 36.9296 96.8898 36.9278C96.8898 36.926 96.8898 36.9242 96.8898 36.9224C96.8898 36.9206 96.8898 36.9188 96.8898 36.917C96.8898 36.9152 96.8898 36.9134 96.8898 36.9116C96.8898 36.9098 96.8898 36.908 96.8898 36.9062C96.8898 36.9044 96.8898 36.9026 96.8898 36.9008C96.8898 36.899 96.8898 36.8972 96.8898 36.8954C96.8898 36.8936 96.8898 36.8918 96.8898 36.8899C96.8898 36.8881 96.8898 36.8863 96.8898 36.8845C96.8898 36.8827 96.8898 36.8809 96.8898 36.879C96.8898 36.8772 96.8898 36.8754 96.8898 36.8736C96.8898 36.8717 96.8898 36.8699 96.8898 36.8681C96.8898 36.8663 96.8898 36.8644 96.8898 36.8626C96.8898 36.8608 96.8898 36.8589 96.8898 36.8571C96.8898 36.8553 96.8898 36.8534 96.8898 36.8516C96.8898 36.8498 96.8898 36.8479 96.8898 36.8461C96.8898 36.8443 96.8898 36.8424 96.8898 36.8406C96.8898 36.8387 96.8898 36.8369 96.8898 36.835C96.8898 36.8332 96.8898 36.8313 96.8898 36.8295C96.8898 36.8276 96.8898 36.8258 96.8898 36.8239C96.8898 36.8221 96.8898 36.8202 96.8898 36.8184C96.8898 36.8165 96.8898 36.8147 96.8898 36.8128C96.8898 36.811 96.8898 36.8091 96.8898 36.8072C96.8898 36.8054 96.8898 36.8035 96.8898 36.8017C96.8898 36.7998 96.8898 36.7979 96.8898 36.7961C96.8898 36.7942 96.8898 36.7923 96.8898 36.7905C96.8898 36.7886 96.8898 36.7867 96.8898 36.7848C96.8898 36.783 96.8898 36.7811 96.8898 36.7792C96.8898 36.7773 96.8898 36.7755 96.8898 36.7736C96.8898 36.7717 96.8898 36.7698 96.8898 36.7679C96.8898 36.7661 96.8898 36.7642 96.8898 36.7623C96.8898 36.7604 96.8898 36.7585 96.8898 36.7566C96.8898 36.7547 96.8898 36.7529 96.8898 36.751C96.8898 36.7491 96.8898 36.7472 96.8898 36.7453C96.8898 36.7434 96.8898 36.7415 96.8898 36.7396C96.8898 36.7377 96.8898 36.7358 96.8898 36.7339C96.8898 36.732 96.8898 36.7301 96.8898 36.7282C96.8898 36.7263 96.8898 36.7244 96.8898 36.7225C96.8898 36.7206 96.8898 36.7187 96.8898 36.7168C96.8898 36.7149 96.8898 36.7129 96.8898 36.711C96.8898 36.7091 96.8898 36.7072 96.8898 36.7053C96.8898 36.7034 96.8898 36.7015 96.8898 36.6995C96.8898 36.6976 96.8898 36.6957 96.8898 36.6938C96.8898 36.6919 96.8898 36.6899 96.8898 36.688C96.8898 36.6861 96.8898 36.6842 96.8898 36.6822C96.8898 36.6803 96.8898 36.6784 96.8898 36.6764C96.8898 36.6745 96.8898 36.6726 96.8898 36.6706C96.8898 36.6687 96.8898 36.6668 96.8898 36.6648C96.8898 36.6629 96.8898 36.661 96.8898 36.659C96.8898 36.6571 96.8898 36.6551 96.8898 36.6532C96.8898 36.6513 96.8898 36.6493 96.8898 36.6474C96.8898 36.6454 96.8898 36.6435 96.8898 36.6415C96.8898 36.6396 96.8898 36.6376 96.8898 36.6357C96.8898 36.6337 96.8898 36.6318 96.8898 36.6298C96.8898 36.6279 96.8898 36.6259 96.8898 36.6239C96.8898 36.622 96.8898 36.62 96.8898 36.6181C96.8898 36.6161 96.8898 36.6141 96.8898 36.6122C96.8898 36.6102 96.8898 36.6082 96.8898 36.6063C96.8898 36.6043 96.8898 36.6023 96.8898 36.6004C96.8898 36.5984 96.8898 36.5964 96.8898 36.5945C96.8898 36.5925 96.8898 36.5905 96.8898 36.5885C96.8898 36.5866 96.8898 36.5846 96.8898 36.5826C96.8898 36.5806 96.8898 36.5786 96.8898 36.5767C96.8898 36.5747 96.8898 36.5727 96.8898 36.5707C96.8898 36.5687 96.8898 36.5667 96.8898 36.5647C96.8898 36.5628 96.8898 36.5608 96.8898 36.5588C96.8898 36.5568 96.8898 36.5548 96.8898 36.5528C96.8898 36.5508 96.8898 36.5488 96.8898 36.5468C96.8898 36.5448 96.8898 36.5428 96.8898 36.5408C96.8898 36.5388 96.8898 36.5368 96.8898 36.5348C96.8898 36.5328 96.8898 36.5308 96.8898 36.5288C96.8898 36.5268 96.8898 36.5248 96.8898 36.5228C96.8898 36.5207 96.8898 36.5187 96.8898 36.5167C96.8898 36.5147 96.8898 36.5127 96.8898 36.5107C96.8898 36.5087 96.8898 36.5066 96.8898 36.5046C96.8898 36.5026 96.8898 36.5006 96.8898 36.4986C96.8898 36.4965 96.8898 36.4945 96.8898 36.4925C96.8898 36.4905 96.8898 36.4884 96.8898 36.4864C96.8898 36.4844 96.8898 36.4823 96.8898 36.4803C96.8898 36.4783 96.8898 36.4762 96.8898 36.4742C96.8898 36.4722 96.8898 36.4701 96.8898 36.4681C96.8898 36.4661 96.8898 36.464 96.8898 36.462C96.8898 36.4599 96.8898 36.4579 96.8898 36.4559C96.8898 36.4538 96.8898 36.4518 96.8898 36.4497C96.8898 36.4477 96.8898 36.4456 96.8898 36.4436C96.8898 36.4415 96.8898 36.4395 96.8898 36.4374C96.8898 36.4354 96.8898 36.4333 96.8898 36.4313C96.8898 36.4292 96.8898 36.4272 96.8898 36.4251C96.8898 36.423 96.8898 36.421 96.8898 36.4189C96.8898 36.4169 96.8898 36.4148 96.8898 36.4127C96.8898 36.4107 96.8898 36.4086 96.8898 36.4065C96.8898 36.4045 96.8898 36.4024 96.8898 36.4003C96.8898 36.3982 96.8898 36.3962 96.8898 36.3941C96.8898 36.392 96.8898 36.3899 96.8898 36.3879C96.8898 36.3858 96.8898 36.3837 96.8898 36.3816C96.8898 36.3796 96.8898 36.3775 96.8898 36.3754C96.8898 36.3733 96.8898 36.3712 96.8898 36.3691C96.8898 36.367 96.8898 36.365 96.8898 36.3629C96.8898 36.3608 96.8898 36.3587 96.8898 36.3566C96.8898 36.3545 96.8898 36.3524 96.8898 36.3503C96.8898 36.3482 96.8898 36.3461 96.8898 36.344C96.8898 36.3419 96.8898 36.3398 96.8898 36.3377C96.8898 36.3356 96.8898 36.3335 96.8898 36.3314C96.8898 36.3293 96.8898 36.3272 96.8898 36.3251C96.8898 36.323 96.8898 36.3209 96.8898 36.3188C96.8898 36.3167 96.8898 36.3145 96.8898 36.3124C96.8898 36.3103 96.8898 36.3082 96.8898 36.3061C96.8898 36.304 96.8898 36.3018 96.8898 36.2997C96.8898 36.2976 96.8898 36.2955 96.8898 36.2934C96.8898 36.2912 96.8898 36.2891 96.8898 36.287C96.8898 36.2849 96.8898 36.2827 96.8898 36.2806C96.8898 36.2785 96.8898 36.2763 96.8898 36.2742C96.8898 36.2721 96.8898 36.27 96.8898 36.2678C96.8898 36.2657 96.8898 36.2635 96.8898 36.2614C96.8898 36.2593 96.8898 36.2571 96.8898 36.255C96.8898 36.2528 96.8898 36.2507 96.8898 36.2486C96.8898 36.2464 96.8898 36.2443 96.8898 36.2421C96.8898 36.24 96.8898 36.2378 96.8898 36.2357C96.8898 36.2335 96.8898 36.2314 96.8898 36.2292C96.8898 36.2271 96.8898 36.2249 96.8898 36.2228C96.8898 36.2206 96.8898 36.2184 96.8898 36.2163C96.8898 36.2141 96.8898 36.212 96.8898 36.2098C96.8898 36.2076 96.8898 36.2055 96.8898 36.2033C96.8898 36.2011 96.8898 36.199 96.8898 36.1968C96.8898 36.1946 96.8898 36.1925 96.8898 36.1903C96.8898 36.1881 96.8898 36.1859 96.8898 36.1838C96.8898 36.1816 96.8898 36.1794 96.8898 36.1772C96.8898 36.1751 96.8898 36.1729 96.8898 36.1707C96.8898 36.1685 96.8898 36.1663 96.8898 36.1642C96.8898 36.162 96.8898 36.1598 96.8898 36.1576C96.8898 36.1554 96.8898 36.1532 96.8898 36.151C96.8898 36.1488 96.8898 36.1466 96.8898 36.1445C96.8898 36.1423 96.8898 36.1401 96.8898 36.1379C96.8898 36.1357 96.8898 36.1335 96.8898 36.1313C96.8898 36.1291 96.8898 36.1269 96.8898 36.1247C96.8898 36.1225 96.8898 36.1203 96.8898 36.1181C96.8898 36.1159 96.8898 36.1137 96.8898 36.1114C96.8898 36.1092 96.8898 36.107 96.8898 36.1048C96.8898 36.1026 96.8898 36.1004 96.8898 36.0982C96.8898 36.096 96.8898 36.0937 96.8898 36.0915C96.8898 36.0893 96.8898 36.0871 96.8898 36.0849C96.8898 36.0826 96.8898 36.0804 96.8898 36.0782C96.8898 36.076 96.8898 36.0738 96.8898 36.0715C96.8898 36.0693 96.8898 36.0671 96.8898 36.0648C96.8898 36.0626 96.8898 36.0604 96.8898 36.0581C96.8898 36.0559 96.8898 36.0537 96.8898 36.0514C96.8898 36.0492 96.8898 36.047 96.8898 36.0447C96.8898 36.0425 96.8898 36.0403 96.8898 36.038C96.8898 36.0358 96.8898 36.0335 96.8898 36.0313C96.8898 36.029 96.8898 36.0268 96.8898 36.0245C96.8898 36.0223 96.8898 36.02 96.8898 36.0178C96.8898 36.0155 96.8898 36.0133 96.8898 36.011C96.8898 36.0088 96.8898 36.0065 96.8898 36.0043C96.8898 36.002 96.8898 35.9997 96.8898 35.9975C96.8898 35.9952 96.8898 35.993 96.8898 35.9907C96.8898 35.9884 96.8898 35.9862 96.8898 35.9839C96.8898 35.9816 96.8898 35.9794 96.8898 35.9771C96.8898 35.9748 96.8898 35.9726 96.8898 35.9703C96.8898 35.968 96.8898 35.9657 96.8898 35.9635C96.8898 35.9612 96.8898 35.9589 96.8898 35.9566C96.8898 35.9544 96.8898 35.9521 96.8898 35.9498C96.8898 35.9475 96.8898 35.9452 96.8898 35.9429C96.8898 35.9407 96.8898 35.9384 96.8898 35.9361C96.8898 35.9338 96.8898 35.9315 96.8898 35.9292C96.8898 35.9269 96.8898 35.9246 96.8898 35.9223C96.8898 35.9201 96.8898 35.9178 96.8898 35.9155C96.8898 35.9132 96.8898 35.9109 96.8898 35.9086C96.8898 35.9063 96.8898 35.904 96.8898 35.9017C96.8898 35.8994 96.8898 35.897 96.8898 35.8947C96.8898 35.8924 96.8898 35.8901 96.8898 35.8878C96.8898 35.8855 96.8898 35.8832 96.8898 35.8809C96.8898 35.8786 96.8898 35.8763 96.8898 35.8739C96.8898 35.8716 96.8898 35.8693 96.8898 35.867C96.8898 35.8647 96.8898 35.8624 96.8898 35.86C96.8898 35.8577 96.8898 35.8554 96.8898 35.8531C96.8898 35.8507 96.8898 35.8484 96.8898 35.8461C96.8898 35.8438 96.8898 35.8414 96.8898 35.8391C96.8898 35.8368 96.8898 35.8344 96.8898 35.8321C96.8898 35.8298 96.8898 35.8274 96.8898 35.8251C96.8898 35.8228 96.8898 35.8204 96.8898 35.8181C96.8898 35.8158 96.8898 35.8134 96.8898 35.8111C96.8898 35.8087 96.8898 35.8064 96.8898 35.804C96.8898 35.8017 96.8898 35.7993 96.8898 35.797C96.8898 35.7946 96.8898 35.7923 96.8898 35.7899C96.8898 35.7876 96.8898 35.7852 96.8898 35.7829C96.8898 35.7805 96.8898 35.7782 96.8898 35.7758C96.8898 35.7735 96.8898 35.7711 96.8898 35.7687C96.8898 35.7664 96.8898 35.764 96.8898 35.7616C96.8898 35.7593 96.8898 35.7569 96.8898 35.7545C96.8898 35.7522 96.8898 35.7498 96.8898 35.7474C96.8898 35.7451 96.8898 35.7427 96.8898 35.7403C96.8898 35.738 96.8898 35.7356 96.8898 35.7332C96.8898 35.7308 96.8898 35.7284 96.8898 35.7261C96.8898 35.7237 96.8898 35.7213 96.8898 35.7189C96.8898 35.7165 96.8898 35.7142 96.8898 35.7118C96.8898 35.7094 96.8898 35.707 96.8898 35.7046C96.8898 35.7022 96.8898 35.6998 96.8898 35.6974C96.8898 35.695 96.8898 35.6927 96.8898 35.6903C96.8898 35.6879 96.8898 35.6855 96.8898 35.6831C96.8898 35.6807 96.8898 35.6783 96.8898 35.6759C96.8898 35.6735 96.8898 35.6711 96.8898 35.6687C96.8898 35.6663 96.8898 35.6639 96.8898 35.6615C96.8898 35.659 96.8898 35.6566 96.8898 35.6542C96.8898 35.6518 96.8898 35.6494 96.8898 35.647C96.8898 35.6446 96.8898 35.6422 96.8898 35.6398C96.8898 35.6373 96.8898 35.6349 96.8898 35.6325C96.8898 35.6301 96.8898 35.6277 96.8898 35.6252C96.8898 35.6228 96.8898 35.6204 96.8898 35.618C96.8898 35.6155 96.8898 35.6131 96.8898 35.6107C96.8898 35.6083 96.8898 35.6058 96.8898 35.6034C96.8898 35.601 96.8898 35.5985 96.8898 35.5961C96.8898 35.5937 96.8898 35.5912 96.8898 35.5888C96.8898 35.5864 96.8898 35.5839 96.8898 35.5815C96.8898 35.579 96.8898 35.5766 96.8898 35.5742C96.8898 35.5717 96.8898 35.5693 96.8898 35.5668C96.8898 35.5644 96.8898 35.5619 96.8898 35.5595C96.8898 35.557 96.8898 35.5546 96.8898 35.5521C96.8898 35.5497 96.8898 35.5472 96.8898 35.5448C96.8898 35.5423 96.8898 35.5398 96.8898 35.5374C96.8898 35.5349 96.8898 35.5325 96.8898 35.53C96.8898 35.5275 96.8898 35.5251 96.8898 35.5226C96.8898 35.5201 96.8898 35.5177 96.8898 35.5152C96.8898 35.5127 96.8898 35.5103 96.8898 35.5078C96.8898 35.5053 96.8898 35.5029 96.8898 35.5004C96.8898 35.4979 96.8898 35.4954 96.8898 35.493C96.8898 35.4905 96.8898 35.488 96.8898 35.4855C96.8898 35.483 96.8898 35.4806 96.8898 35.4781C96.8898 35.4756 96.8898 35.4731 96.8898 35.4706C96.8898 35.4681 96.8898 35.4657 96.8898 35.4632C96.8898 35.4607 96.8898 35.4582 96.8898 35.4557C96.8898 35.4532 96.8898 35.4507 96.8898 35.4482C96.8898 35.4457 96.8898 35.4432 96.8898 35.4407C96.8898 35.4382 96.8898 35.4357 96.8898 35.4332C96.8898 35.4307 96.8898 35.4282 96.8898 35.4257C96.8898 35.4232 96.8898 35.4207 96.8898 35.4182C96.8898 35.4157 96.8898 35.4132 96.8898 35.4107C96.8898 35.4082 96.8898 35.4056 96.8898 35.4031C96.8898 35.4006 96.8898 35.3981 96.8898 35.3956C96.8898 35.3931 96.8898 35.3905 96.8898 35.388C96.8898 35.3855 96.8898 35.383 96.8898 35.3805C96.8898 35.3779 96.8898 35.3754 96.8898 35.3729C96.8898 35.3704 96.8898 35.3678 96.8898 35.3653C96.8898 35.3628 96.8898 35.3603 96.8898 35.3577C96.8898 35.3552 96.8898 35.3527 96.8898 35.3501C96.8898 35.3476 96.8898 35.345 96.8898 35.3425C96.8898 35.34 96.8898 35.3374 96.8898 35.3349C96.8898 35.3324 96.8898 35.3298 96.8898 35.3273C96.8898 35.3247 96.8898 35.3222 96.8898 35.3196C96.8898 35.3171 96.8898 35.3145 96.8898 35.312C96.8898 35.3094 96.8898 35.3069 96.8898 35.3043C96.8898 35.3018 96.8898 35.2992 96.8898 35.2967C96.8898 35.2941 96.8898 35.2915 96.8898 35.289C96.8898 35.2864 96.8898 35.2839 96.8898 35.2813C96.8898 35.2787 96.8898 35.2762 96.8898 35.2736C96.8898 35.271 96.8898 35.2685 96.8898 35.2659C96.8898 35.2633 96.8898 35.2608 96.8898 35.2582C96.8898 35.2556 96.8898 35.2531 96.8898 35.2505C96.8898 35.2479 96.8898 35.2453 96.8898 35.2428C96.8898 35.2402 96.8898 35.2376 96.8898 35.235C96.8898 35.2324 96.8898 35.2299 96.8898 35.2273C96.8898 35.2247 96.8898 35.2221 96.8898 35.2195C96.8898 35.2169 96.8898 35.2143 96.8898 35.2117C96.8898 35.2092 96.8898 35.2066 96.8898 35.204C96.8898 35.2014 96.8898 35.1988 96.8898 35.1962C96.8898 35.1936 96.8898 35.191 96.8898 35.1884C96.8898 35.1858 96.8898 35.1832 96.8898 35.1806C96.8898 35.178 96.8898 35.1754 96.8898 35.1728C96.8898 35.1702 96.8898 35.1676 96.8898 35.165C96.8898 35.1624 96.8898 35.1597 96.8898 35.1571C96.8898 35.1545 96.8898 35.1519 96.8898 35.1493C96.8898 35.1467 96.8898 35.1441 96.8898 35.1414C96.8898 35.1388 96.8898 35.1362 96.8898 35.1336C96.8898 35.131 96.8898 35.1283 96.8898 35.1257C96.8898 35.1231 96.8898 35.1205 96.8898 35.1179C96.8898 35.1152 96.8898 35.1126 96.8898 35.11C96.8898 35.1073 96.8898 35.1047 96.8898 35.1021C96.8898 35.0994 96.8898 35.0968 96.8898 35.0942C96.8898 35.0915 96.8898 35.0889 96.8898 35.0863C96.8898 35.0836 96.8898 35.081 96.8898 35.0783C96.8898 35.0757 96.8898 35.0731 96.8898 35.0704C96.8898 35.0678 96.8898 35.0651 96.8898 35.0625C96.8898 35.0598 96.8898 35.0572 96.8898 35.0545C96.8898 35.0519 96.8898 35.0492 96.8898 35.0466C96.8898 35.0439 96.8898 35.0413 96.8898 35.0386C96.8898 35.0359 96.8898 35.0333 96.8898 35.0306C96.8898 35.028 96.8898 35.0253 96.8898 35.0226C96.8898 35.02 96.8898 35.0173 96.8898 35.0146C96.8898 35.012 96.8898 35.0093 96.8898 35.0066C96.8898 35.004 96.8898 35.0013 96.8898 34.9986C96.8898 34.996 96.8898 34.9933 96.8898 34.9906C96.8898 34.9879 96.8898 34.9853 96.8898 34.9826C96.8898 34.9799 96.8898 34.9772 96.8898 34.9745C96.8898 34.9719 96.8898 34.9692 96.8898 34.9665C96.8898 34.9638 96.8898 34.9611 96.8898 34.9584C96.8898 34.9557 96.8898 34.953 96.8898 34.9504C96.8898 34.9477 96.8898 34.945 96.8898 34.9423C96.8898 34.9396 96.8898 34.9369 96.8898 34.9342C96.8898 34.9315 96.8898 34.9288 96.8898 34.9261C96.8898 34.9234 96.8898 34.9207 96.8898 34.918C96.8898 34.9153 96.8898 34.9126 96.8898 34.9099C96.8898 34.9072 96.8898 34.9045 96.8898 34.9018C96.8898 34.8991 96.8898 34.8963 96.8898 34.8936C96.8898 34.8909 96.8898 34.8882 96.8898 34.8855C96.8898 34.8828 96.8898 34.8801 96.8898 34.8773C96.8898 34.8746 96.8898 34.8719 96.8898 34.8692C96.8898 34.8665 96.8898 34.8637 96.8898 34.861C96.8898 34.8583 96.8898 34.8556 96.8898 34.8528C96.8898 34.8501 96.8898 34.8474 96.8898 34.8447C96.8898 34.8419 96.8898 34.8392 96.8898 34.8365C96.8898 34.8337 96.8898 34.831 96.8898 34.8283C96.8898 34.8255 96.8898 34.8228 96.8898 34.82C96.8898 34.8173 96.8898 34.8146 96.8898 34.8118C96.8898 34.8091 96.8898 34.8063 96.8898 34.8036C96.8898 34.8008 96.8898 34.7981 96.8898 34.7953C96.8898 34.7926 96.8898 34.7898 96.8898 34.7871C96.8898 34.7843 96.8898 34.7816 96.8898 34.7788C96.8898 34.7761 96.8898 34.7733 96.8898 34.7706C96.8898 34.7678 96.8898 34.765 96.8898 34.7623C96.8898 34.7595 96.8898 34.7568 96.8898 34.754C96.8898 34.7512 96.8898 34.7485 96.8898 34.7457C96.8898 34.7429 96.8898 34.7402 96.8898 34.7374C96.8898 34.7346 96.8898 34.7319 96.8898 34.7291C96.8898 34.7263 96.8898 34.7235 96.8898 34.7208C96.8898 34.718 96.8898 34.7152 96.8898 34.7124C96.8898 34.7096 96.8898 34.7069 96.8898 34.7041C96.8898 34.7013 96.8898 34.6985 96.8898 34.6957C96.8898 34.6929 96.8898 34.6902 96.8898 34.6874C96.8898 34.6846 96.8898 34.6818 96.8898 34.679C96.8898 34.6762 96.8898 34.6734 96.8898 34.6706C96.8898 34.6678 96.8898 34.665 96.8898 34.6622C96.8898 34.6594 96.8898 34.6566 96.8898 34.6538C96.8898 34.651 96.8898 34.6482 96.8898 34.6454C96.8898 34.6426 96.8898 34.6398 96.8898 34.637C96.8898 34.6342 96.8898 34.6314 96.8898 34.6286C96.8898 34.6258 96.8898 34.623 96.8898 34.6202C96.8898 34.6173 96.8898 34.6145 96.8898 34.6117C96.8898 34.6089 96.8898 34.6061 96.8898 34.6033C96.8898 34.6004 96.8898 34.5976 96.8898 34.5948C96.8898 34.592 96.8898 34.5892 96.8898 34.5863C96.8898 34.5835 96.8898 34.5807 96.8898 34.5779C96.8898 34.575 96.8898 34.5722 96.8898 34.5694C96.8898 34.5665 96.8898 34.5637 96.8898 34.5609C96.8898 34.558 96.8898 34.5552 96.8898 34.5524C96.8898 34.5495 96.8898 34.5467 96.8898 34.5438C96.8898 34.541 96.8898 34.5382 96.8898 34.5353C96.8898 34.5325 96.8898 34.5296 96.8898 34.5268C96.8898 34.5239 96.8898 34.5211 96.8898 34.5182C96.8898 34.5154 96.8898 34.5125 96.8898 34.5097C96.8898 34.5068 96.8898 34.504 96.8898 34.5011C96.8898 34.4983 96.8898 34.4954 96.8898 34.4926C96.8898 34.4897 96.8898 34.4868 96.8898 34.484C96.8898 34.4811 96.8898 34.4783 96.8898 34.4754C96.8898 34.4725 96.8898 34.4697 96.8898 34.4668C96.8898 34.4639 96.8898 34.4611 96.8898 34.4582C96.8898 34.4553 96.8898 34.4524 96.8898 34.4496C96.8898 34.4467 96.8898 34.4438 96.8898 34.4409C96.8898 34.4381 96.8898 34.4352 96.8898 34.4323C96.8898 34.4294 96.8898 34.4265 96.8898 34.4237C96.8898 34.4208 96.8898 34.4179 96.8898 34.415C96.8898 34.4121 96.8898 34.4092 96.8898 34.4063C96.8898 34.4035 96.8898 34.4006 96.8898 34.3977C96.8898 34.3948 96.8898 34.3919 96.8898 34.389C96.8898 34.3861 96.8898 34.3832 96.8898 34.3803C96.8898 34.3774 96.8898 34.3745 96.8898 34.3716C96.8898 34.3687 96.8898 34.3658 96.8898 34.3629C96.8898 34.36 96.8898 34.3571 96.8898 34.3542C96.8898 34.3513 96.8898 34.3484 96.8898 34.3455C96.8898 34.3425 96.8898 34.3396 96.8898 34.3367C96.8898 34.3338 96.8898 34.3309 96.8898 34.328C96.8898 34.3251 96.8898 34.3221 96.8898 34.3192C96.8898 34.3163 96.8898 34.3134 96.8898 34.3105C96.8898 34.3075 96.8898 34.3046 96.8898 34.3017C96.8898 34.2988 96.8898 34.2958 96.8898 34.2929C96.8898 34.29 96.8898 34.287 96.8898 34.2841C96.8898 34.2812 96.8898 34.2782 96.8898 34.2753C96.8898 34.2724 96.8898 34.2694 96.8898 34.2665C96.8898 34.2636 96.8898 34.2606 96.8898 34.2577C96.8898 34.2547 96.8898 34.2518 96.8898 34.2489C96.8898 34.2459 96.8898 34.243 96.8898 34.24C96.8898 34.2371 96.8898 34.2341 96.8898 34.2312C96.8898 34.2282 96.8898 34.2253 96.8898 34.2223C96.8898 34.2194 96.8898 34.2164 96.8898 34.2135C96.8898 34.2105 96.8898 34.2075 96.8898 34.2046C96.8898 34.2016 96.8898 34.1987 96.8898 34.1957C96.8898 34.1927 96.8898 34.1898 96.8898 34.1868C96.8898 34.1838 96.8898 34.1809 96.8898 34.1779C96.8898 34.1749 96.8898 34.172 96.8898 34.169C96.8898 34.166 96.8898 34.1631 96.8898 34.1601C96.8898 34.1571 96.8898 34.1541 96.8898 34.1512C96.8898 34.1482 96.8898 34.1452 96.8898 34.1422C96.8898 34.1392 96.8898 34.1363 96.8898 34.1333C96.8898 34.1303 96.8898 34.1273 96.8898 34.1243C96.8898 34.1213 96.8898 34.1183 96.8898 34.1153C96.8898 34.1124 96.8898 34.1094 96.8898 34.1064C96.8898 34.1034 96.8898 34.1004 96.8898 34.0974C96.8898 34.0944 96.8898 34.0914 96.8898 34.0884C96.8898 34.0854 96.8898 34.0824 96.8898 34.0794C96.8898 34.0764 96.8898 34.0734 96.8898 34.0704C96.8898 34.0674 96.8898 34.0644 96.8898 34.0614C96.8898 34.0584 96.8898 34.0554 96.8898 34.0523C96.8898 34.0493 96.8898 34.0463 96.8898 34.0433C96.8898 34.0403 96.8898 34.0373 96.8898 34.0343C96.8898 34.0312 96.8898 34.0282 96.8898 34.0252C96.8898 34.0222 96.8898 34.0192 96.8898 34.0161C96.8898 34.0131 96.8898 34.0101 96.8898 34.0071C96.8898 34.004 96.8898 34.001 96.8898 33.998C96.8898 33.9949 96.8898 33.9919 96.8898 33.9889C96.8898 33.9859 96.8898 33.9828 96.8898 33.9798C96.8898 33.9767 96.8898 33.9737 96.8898 33.9707C96.8898 33.9676 96.8898 33.9646 96.8898 33.9616C96.8898 33.9585 96.8898 33.9555 96.8898 33.9524C96.8898 33.9494 96.8898 33.9463 96.8898 33.9433C96.8898 33.9402 96.8898 33.9372 96.8898 33.9341C96.8898 33.9311 96.8898 33.928 96.8898 33.925C96.8898 33.9219 96.8898 33.9189 96.8898 33.9158C96.8898 33.9128 96.8898 33.9097 96.8898 33.9066C96.8898 33.9036 96.8898 33.9005 96.8898 33.8975C96.8898 33.8944 96.8898 33.8913 96.8898 33.8883C96.8898 33.8852 96.8898 33.8821 96.8898 33.8791C96.8898 33.876 96.8898 33.8729 96.8898 33.8698C96.8898 33.8668 96.8898 33.8637 96.8898 33.8606C96.8898 33.8575 96.8898 33.8545 96.8898 33.8514C96.8898 33.8483 96.8898 33.8452 96.8898 33.8422C96.8898 33.8391 96.8898 33.836 96.8898 33.8329C96.8898 33.8298 96.8898 33.8267 96.8898 33.8237C96.8898 33.8206 96.8898 33.8175 96.8898 33.8144C96.8898 33.8113 96.8898 33.8082 96.8898 33.8051C96.8898 33.802 96.8898 33.7989 96.8898 33.7958C96.8898 33.7927 96.8898 33.7896 96.8898 33.7865C96.8898 33.7834 96.8898 33.7803 96.8898 33.7772C96.8898 33.7741 96.8898 33.771 96.8898 33.7679C96.8898 33.7648 96.8898 33.7617 96.8898 33.7586C96.8898 33.7555 96.8898 33.7524 96.8898 33.7493C96.8898 33.7461 96.8898 33.743 96.8898 33.7399C96.8898 33.7368 96.8898 33.7337 96.8898 33.7306C96.8898 33.7275 96.8898 33.7243 96.8898 33.7212C96.8898 33.7181 96.8898 33.715 96.8898 33.7118C96.8898 33.7087 96.8898 33.7056 96.8898 33.7025C96.8898 33.6993 96.8898 33.6962 96.8898 33.6931C96.8898 33.69 96.8898 33.6868 96.8898 33.6837C96.8898 33.6806 96.8898 33.6774 96.8898 33.6743C96.8898 33.6711 96.8898 33.668 96.8898 33.6649C96.8898 33.6617 96.8898 33.6586 96.8898 33.6554C96.8898 33.6523 96.8898 33.6492 96.8898 33.646C96.8898 33.6429 96.8898 33.6397 96.8898 33.6366C96.8898 33.6334 96.8898 33.6303 96.8898 33.6271C96.8898 33.624 96.8898 33.6208 96.8898 33.6177C96.8898 33.6145 96.8898 33.6114 96.8898 33.6082C96.8898 33.605 96.8898 33.6019 96.8898 33.5987C96.8898 33.5956 96.8898 33.5924 96.8898 33.5892C96.8898 33.5861 96.8898 33.5829 96.8898 33.5797C96.8898 33.5766 96.8898 33.5734 96.8898 33.5702C96.8898 33.5671 96.8898 33.5639 96.8898 33.5607C96.8898 33.5575 96.8898 33.5544 96.8898 33.5512C96.8898 33.548 96.8898 33.5448 96.8898 33.5417C96.8898 33.5385 96.8898 33.5353 96.8898 33.5321C96.8898 33.5289 96.8898 33.5258 96.8898 33.5226C96.8898 33.5194 96.8898 33.5162 96.8898 33.513C96.8898 33.5098 96.8898 33.5066 96.8898 33.5034C96.8898 33.5003 96.8898 33.4971 96.8898 33.4939C96.8898 33.4907 96.8898 33.4875 96.8898 33.4843C96.8898 33.4811 96.8898 33.4779 96.8898 33.4747C96.8898 33.4715 96.8898 33.4683 96.8898 33.4651C96.8898 33.4619 96.8898 33.4587 96.8898 33.4555C96.8898 33.4523 96.8898 33.4491 96.8898 33.4458C96.8898 33.4426 96.8898 33.4394 96.8898 33.4362C96.8898 33.433 96.8898 33.4298 96.8898 33.4266C96.8898 33.4234 96.8898 33.4201 96.8898 33.4169C96.8898 33.4137 96.8898 33.4105 96.8898 33.4073C96.8898 33.404 96.8898 33.4008 96.8898 33.3976C96.8898 33.3944 96.8898 33.3911 96.8898 33.3879C96.8898 33.3847 96.8898 33.3815 96.8898 33.3782C96.8898 33.375 96.8898 33.3718 96.8898 33.3685C96.8898 33.3653 96.8898 33.3621 96.8898 33.3588C96.8898 33.3556 96.8898 33.3523 96.8898 33.3491C96.8898 33.3459 96.8898 33.3426 96.8898 33.3394C96.8898 33.3361 96.8898 33.3329 96.8898 33.3296C96.8898 33.3264 96.8898 33.3232 96.8898 33.3199C96.8898 33.3167 96.8898 33.3134 96.8898 33.3102C96.8898 33.3069 96.8898 33.3036 96.8898 33.3004H93.8898H90.8898C90.8898 33.3036 90.8898 33.3069 90.8898 33.3102C90.8898 33.3134 90.8898 33.3167 90.8898 33.3199C90.8898 33.3232 90.8898 33.3264 90.8898 33.3296C90.8898 33.3329 90.8898 33.3361 90.8898 33.3394C90.8898 33.3426 90.8898 33.3459 90.8898 33.3491C90.8898 33.3523 90.8898 33.3556 90.8898 33.3588C90.8898 33.3621 90.8898 33.3653 90.8898 33.3685C90.8898 33.3718 90.8898 33.375 90.8898 33.3782C90.8898 33.3815 90.8898 33.3847 90.8898 33.3879C90.8898 33.3911 90.8898 33.3944 90.8898 33.3976C90.8898 33.4008 90.8898 33.404 90.8898 33.4073C90.8898 33.4105 90.8898 33.4137 90.8898 33.4169C90.8898 33.4201 90.8898 33.4234 90.8898 33.4266C90.8898 33.4298 90.8898 33.433 90.8898 33.4362C90.8898 33.4394 90.8898 33.4426 90.8898 33.4458C90.8898 33.4491 90.8898 33.4523 90.8898 33.4555C90.8898 33.4587 90.8898 33.4619 90.8898 33.4651C90.8898 33.4683 90.8898 33.4715 90.8898 33.4747C90.8898 33.4779 90.8898 33.4811 90.8898 33.4843C90.8898 33.4875 90.8898 33.4907 90.8898 33.4939C90.8898 33.4971 90.8898 33.5003 90.8898 33.5034C90.8898 33.5066 90.8898 33.5098 90.8898 33.513C90.8898 33.5162 90.8898 33.5194 90.8898 33.5226C90.8898 33.5258 90.8898 33.5289 90.8898 33.5321C90.8898 33.5353 90.8898 33.5385 90.8898 33.5417C90.8898 33.5448 90.8898 33.548 90.8898 33.5512C90.8898 33.5544 90.8898 33.5575 90.8898 33.5607C90.8898 33.5639 90.8898 33.5671 90.8898 33.5702C90.8898 33.5734 90.8898 33.5766 90.8898 33.5797C90.8898 33.5829 90.8898 33.5861 90.8898 33.5892C90.8898 33.5924 90.8898 33.5956 90.8898 33.5987C90.8898 33.6019 90.8898 33.605 90.8898 33.6082C90.8898 33.6114 90.8898 33.6145 90.8898 33.6177C90.8898 33.6208 90.8898 33.624 90.8898 33.6271C90.8898 33.6303 90.8898 33.6334 90.8898 33.6366C90.8898 33.6397 90.8898 33.6429 90.8898 33.646C90.8898 33.6492 90.8898 33.6523 90.8898 33.6554C90.8898 33.6586 90.8898 33.6617 90.8898 33.6649C90.8898 33.668 90.8898 33.6711 90.8898 33.6743C90.8898 33.6774 90.8898 33.6806 90.8898 33.6837C90.8898 33.6868 90.8898 33.69 90.8898 33.6931C90.8898 33.6962 90.8898 33.6993 90.8898 33.7025C90.8898 33.7056 90.8898 33.7087 90.8898 33.7118C90.8898 33.715 90.8898 33.7181 90.8898 33.7212C90.8898 33.7243 90.8898 33.7275 90.8898 33.7306C90.8898 33.7337 90.8898 33.7368 90.8898 33.7399C90.8898 33.743 90.8898 33.7461 90.8898 33.7493C90.8898 33.7524 90.8898 33.7555 90.8898 33.7586C90.8898 33.7617 90.8898 33.7648 90.8898 33.7679C90.8898 33.771 90.8898 33.7741 90.8898 33.7772C90.8898 33.7803 90.8898 33.7834 90.8898 33.7865C90.8898 33.7896 90.8898 33.7927 90.8898 33.7958C90.8898 33.7989 90.8898 33.802 90.8898 33.8051C90.8898 33.8082 90.8898 33.8113 90.8898 33.8144C90.8898 33.8175 90.8898 33.8206 90.8898 33.8237C90.8898 33.8267 90.8898 33.8298 90.8898 33.8329C90.8898 33.836 90.8898 33.8391 90.8898 33.8422C90.8898 33.8452 90.8898 33.8483 90.8898 33.8514C90.8898 33.8545 90.8898 33.8575 90.8898 33.8606C90.8898 33.8637 90.8898 33.8668 90.8898 33.8698C90.8898 33.8729 90.8898 33.876 90.8898 33.8791C90.8898 33.8821 90.8898 33.8852 90.8898 33.8883C90.8898 33.8913 90.8898 33.8944 90.8898 33.8975C90.8898 33.9005 90.8898 33.9036 90.8898 33.9066C90.8898 33.9097 90.8898 33.9128 90.8898 33.9158C90.8898 33.9189 90.8898 33.9219 90.8898 33.925C90.8898 33.928 90.8898 33.9311 90.8898 33.9341C90.8898 33.9372 90.8898 33.9402 90.8898 33.9433C90.8898 33.9463 90.8898 33.9494 90.8898 33.9524C90.8898 33.9555 90.8898 33.9585 90.8898 33.9616C90.8898 33.9646 90.8898 33.9676 90.8898 33.9707C90.8898 33.9737 90.8898 33.9767 90.8898 33.9798C90.8898 33.9828 90.8898 33.9859 90.8898 33.9889C90.8898 33.9919 90.8898 33.9949 90.8898 33.998C90.8898 34.001 90.8898 34.004 90.8898 34.0071C90.8898 34.0101 90.8898 34.0131 90.8898 34.0161C90.8898 34.0192 90.8898 34.0222 90.8898 34.0252C90.8898 34.0282 90.8898 34.0312 90.8898 34.0343C90.8898 34.0373 90.8898 34.0403 90.8898 34.0433C90.8898 34.0463 90.8898 34.0493 90.8898 34.0523C90.8898 34.0554 90.8898 34.0584 90.8898 34.0614C90.8898 34.0644 90.8898 34.0674 90.8898 34.0704C90.8898 34.0734 90.8898 34.0764 90.8898 34.0794C90.8898 34.0824 90.8898 34.0854 90.8898 34.0884C90.8898 34.0914 90.8898 34.0944 90.8898 34.0974C90.8898 34.1004 90.8898 34.1034 90.8898 34.1064C90.8898 34.1094 90.8898 34.1124 90.8898 34.1153C90.8898 34.1183 90.8898 34.1213 90.8898 34.1243C90.8898 34.1273 90.8898 34.1303 90.8898 34.1333C90.8898 34.1363 90.8898 34.1392 90.8898 34.1422C90.8898 34.1452 90.8898 34.1482 90.8898 34.1512C90.8898 34.1541 90.8898 34.1571 90.8898 34.1601C90.8898 34.1631 90.8898 34.166 90.8898 34.169C90.8898 34.172 90.8898 34.1749 90.8898 34.1779C90.8898 34.1809 90.8898 34.1838 90.8898 34.1868C90.8898 34.1898 90.8898 34.1927 90.8898 34.1957C90.8898 34.1987 90.8898 34.2016 90.8898 34.2046C90.8898 34.2075 90.8898 34.2105 90.8898 34.2135C90.8898 34.2164 90.8898 34.2194 90.8898 34.2223C90.8898 34.2253 90.8898 34.2282 90.8898 34.2312C90.8898 34.2341 90.8898 34.2371 90.8898 34.24C90.8898 34.243 90.8898 34.2459 90.8898 34.2489C90.8898 34.2518 90.8898 34.2547 90.8898 34.2577C90.8898 34.2606 90.8898 34.2636 90.8898 34.2665C90.8898 34.2694 90.8898 34.2724 90.8898 34.2753C90.8898 34.2782 90.8898 34.2812 90.8898 34.2841C90.8898 34.287 90.8898 34.29 90.8898 34.2929C90.8898 34.2958 90.8898 34.2988 90.8898 34.3017C90.8898 34.3046 90.8898 34.3075 90.8898 34.3105C90.8898 34.3134 90.8898 34.3163 90.8898 34.3192C90.8898 34.3221 90.8898 34.3251 90.8898 34.328C90.8898 34.3309 90.8898 34.3338 90.8898 34.3367C90.8898 34.3396 90.8898 34.3425 90.8898 34.3455C90.8898 34.3484 90.8898 34.3513 90.8898 34.3542C90.8898 34.3571 90.8898 34.36 90.8898 34.3629C90.8898 34.3658 90.8898 34.3687 90.8898 34.3716C90.8898 34.3745 90.8898 34.3774 90.8898 34.3803C90.8898 34.3832 90.8898 34.3861 90.8898 34.389C90.8898 34.3919 90.8898 34.3948 90.8898 34.3977C90.8898 34.4006 90.8898 34.4035 90.8898 34.4063C90.8898 34.4092 90.8898 34.4121 90.8898 34.415C90.8898 34.4179 90.8898 34.4208 90.8898 34.4237C90.8898 34.4265 90.8898 34.4294 90.8898 34.4323C90.8898 34.4352 90.8898 34.4381 90.8898 34.4409C90.8898 34.4438 90.8898 34.4467 90.8898 34.4496C90.8898 34.4524 90.8898 34.4553 90.8898 34.4582C90.8898 34.4611 90.8898 34.4639 90.8898 34.4668C90.8898 34.4697 90.8898 34.4725 90.8898 34.4754C90.8898 34.4783 90.8898 34.4811 90.8898 34.484C90.8898 34.4868 90.8898 34.4897 90.8898 34.4926C90.8898 34.4954 90.8898 34.4983 90.8898 34.5011C90.8898 34.504 90.8898 34.5068 90.8898 34.5097C90.8898 34.5125 90.8898 34.5154 90.8898 34.5182C90.8898 34.5211 90.8898 34.5239 90.8898 34.5268C90.8898 34.5296 90.8898 34.5325 90.8898 34.5353C90.8898 34.5382 90.8898 34.541 90.8898 34.5438C90.8898 34.5467 90.8898 34.5495 90.8898 34.5524C90.8898 34.5552 90.8898 34.558 90.8898 34.5609C90.8898 34.5637 90.8898 34.5665 90.8898 34.5694C90.8898 34.5722 90.8898 34.575 90.8898 34.5779C90.8898 34.5807 90.8898 34.5835 90.8898 34.5863C90.8898 34.5892 90.8898 34.592 90.8898 34.5948C90.8898 34.5976 90.8898 34.6004 90.8898 34.6033C90.8898 34.6061 90.8898 34.6089 90.8898 34.6117C90.8898 34.6145 90.8898 34.6173 90.8898 34.6202C90.8898 34.623 90.8898 34.6258 90.8898 34.6286C90.8898 34.6314 90.8898 34.6342 90.8898 34.637C90.8898 34.6398 90.8898 34.6426 90.8898 34.6454C90.8898 34.6482 90.8898 34.651 90.8898 34.6538C90.8898 34.6566 90.8898 34.6594 90.8898 34.6622C90.8898 34.665 90.8898 34.6678 90.8898 34.6706C90.8898 34.6734 90.8898 34.6762 90.8898 34.679C90.8898 34.6818 90.8898 34.6846 90.8898 34.6874C90.8898 34.6902 90.8898 34.6929 90.8898 34.6957C90.8898 34.6985 90.8898 34.7013 90.8898 34.7041C90.8898 34.7069 90.8898 34.7096 90.8898 34.7124C90.8898 34.7152 90.8898 34.718 90.8898 34.7208C90.8898 34.7235 90.8898 34.7263 90.8898 34.7291C90.8898 34.7319 90.8898 34.7346 90.8898 34.7374C90.8898 34.7402 90.8898 34.7429 90.8898 34.7457C90.8898 34.7485 90.8898 34.7512 90.8898 34.754C90.8898 34.7568 90.8898 34.7595 90.8898 34.7623C90.8898 34.765 90.8898 34.7678 90.8898 34.7706C90.8898 34.7733 90.8898 34.7761 90.8898 34.7788C90.8898 34.7816 90.8898 34.7843 90.8898 34.7871C90.8898 34.7898 90.8898 34.7926 90.8898 34.7953C90.8898 34.7981 90.8898 34.8008 90.8898 34.8036C90.8898 34.8063 90.8898 34.8091 90.8898 34.8118C90.8898 34.8146 90.8898 34.8173 90.8898 34.82C90.8898 34.8228 90.8898 34.8255 90.8898 34.8283C90.8898 34.831 90.8898 34.8337 90.8898 34.8365C90.8898 34.8392 90.8898 34.8419 90.8898 34.8447C90.8898 34.8474 90.8898 34.8501 90.8898 34.8528C90.8898 34.8556 90.8898 34.8583 90.8898 34.861C90.8898 34.8637 90.8898 34.8665 90.8898 34.8692C90.8898 34.8719 90.8898 34.8746 90.8898 34.8773C90.8898 34.8801 90.8898 34.8828 90.8898 34.8855C90.8898 34.8882 90.8898 34.8909 90.8898 34.8936C90.8898 34.8963 90.8898 34.8991 90.8898 34.9018C90.8898 34.9045 90.8898 34.9072 90.8898 34.9099C90.8898 34.9126 90.8898 34.9153 90.8898 34.918C90.8898 34.9207 90.8898 34.9234 90.8898 34.9261C90.8898 34.9288 90.8898 34.9315 90.8898 34.9342C90.8898 34.9369 90.8898 34.9396 90.8898 34.9423C90.8898 34.945 90.8898 34.9477 90.8898 34.9504C90.8898 34.953 90.8898 34.9557 90.8898 34.9584C90.8898 34.9611 90.8898 34.9638 90.8898 34.9665C90.8898 34.9692 90.8898 34.9719 90.8898 34.9745C90.8898 34.9772 90.8898 34.9799 90.8898 34.9826C90.8898 34.9853 90.8898 34.9879 90.8898 34.9906C90.8898 34.9933 90.8898 34.996 90.8898 34.9986C90.8898 35.0013 90.8898 35.004 90.8898 35.0066C90.8898 35.0093 90.8898 35.012 90.8898 35.0146C90.8898 35.0173 90.8898 35.02 90.8898 35.0226C90.8898 35.0253 90.8898 35.028 90.8898 35.0306C90.8898 35.0333 90.8898 35.0359 90.8898 35.0386C90.8898 35.0413 90.8898 35.0439 90.8898 35.0466C90.8898 35.0492 90.8898 35.0519 90.8898 35.0545C90.8898 35.0572 90.8898 35.0598 90.8898 35.0625C90.8898 35.0651 90.8898 35.0678 90.8898 35.0704C90.8898 35.0731 90.8898 35.0757 90.8898 35.0783C90.8898 35.081 90.8898 35.0836 90.8898 35.0863C90.8898 35.0889 90.8898 35.0915 90.8898 35.0942C90.8898 35.0968 90.8898 35.0994 90.8898 35.1021C90.8898 35.1047 90.8898 35.1073 90.8898 35.11C90.8898 35.1126 90.8898 35.1152 90.8898 35.1179C90.8898 35.1205 90.8898 35.1231 90.8898 35.1257C90.8898 35.1283 90.8898 35.131 90.8898 35.1336C90.8898 35.1362 90.8898 35.1388 90.8898 35.1414C90.8898 35.1441 90.8898 35.1467 90.8898 35.1493C90.8898 35.1519 90.8898 35.1545 90.8898 35.1571C90.8898 35.1597 90.8898 35.1624 90.8898 35.165C90.8898 35.1676 90.8898 35.1702 90.8898 35.1728C90.8898 35.1754 90.8898 35.178 90.8898 35.1806C90.8898 35.1832 90.8898 35.1858 90.8898 35.1884C90.8898 35.191 90.8898 35.1936 90.8898 35.1962C90.8898 35.1988 90.8898 35.2014 90.8898 35.204C90.8898 35.2066 90.8898 35.2092 90.8898 35.2117C90.8898 35.2143 90.8898 35.2169 90.8898 35.2195C90.8898 35.2221 90.8898 35.2247 90.8898 35.2273C90.8898 35.2299 90.8898 35.2324 90.8898 35.235C90.8898 35.2376 90.8898 35.2402 90.8898 35.2428C90.8898 35.2453 90.8898 35.2479 90.8898 35.2505C90.8898 35.2531 90.8898 35.2556 90.8898 35.2582C90.8898 35.2608 90.8898 35.2633 90.8898 35.2659C90.8898 35.2685 90.8898 35.271 90.8898 35.2736C90.8898 35.2762 90.8898 35.2787 90.8898 35.2813C90.8898 35.2839 90.8898 35.2864 90.8898 35.289C90.8898 35.2915 90.8898 35.2941 90.8898 35.2967C90.8898 35.2992 90.8898 35.3018 90.8898 35.3043C90.8898 35.3069 90.8898 35.3094 90.8898 35.312C90.8898 35.3145 90.8898 35.3171 90.8898 35.3196C90.8898 35.3222 90.8898 35.3247 90.8898 35.3273C90.8898 35.3298 90.8898 35.3324 90.8898 35.3349C90.8898 35.3374 90.8898 35.34 90.8898 35.3425C90.8898 35.345 90.8898 35.3476 90.8898 35.3501C90.8898 35.3527 90.8898 35.3552 90.8898 35.3577C90.8898 35.3603 90.8898 35.3628 90.8898 35.3653C90.8898 35.3678 90.8898 35.3704 90.8898 35.3729C90.8898 35.3754 90.8898 35.3779 90.8898 35.3805C90.8898 35.383 90.8898 35.3855 90.8898 35.388C90.8898 35.3905 90.8898 35.3931 90.8898 35.3956C90.8898 35.3981 90.8898 35.4006 90.8898 35.4031C90.8898 35.4056 90.8898 35.4082 90.8898 35.4107C90.8898 35.4132 90.8898 35.4157 90.8898 35.4182C90.8898 35.4207 90.8898 35.4232 90.8898 35.4257C90.8898 35.4282 90.8898 35.4307 90.8898 35.4332C90.8898 35.4357 90.8898 35.4382 90.8898 35.4407C90.8898 35.4432 90.8898 35.4457 90.8898 35.4482C90.8898 35.4507 90.8898 35.4532 90.8898 35.4557C90.8898 35.4582 90.8898 35.4607 90.8898 35.4632C90.8898 35.4657 90.8898 35.4681 90.8898 35.4706C90.8898 35.4731 90.8898 35.4756 90.8898 35.4781C90.8898 35.4806 90.8898 35.483 90.8898 35.4855C90.8898 35.488 90.8898 35.4905 90.8898 35.493C90.8898 35.4954 90.8898 35.4979 90.8898 35.5004C90.8898 35.5029 90.8898 35.5053 90.8898 35.5078C90.8898 35.5103 90.8898 35.5127 90.8898 35.5152C90.8898 35.5177 90.8898 35.5201 90.8898 35.5226C90.8898 35.5251 90.8898 35.5275 90.8898 35.53C90.8898 35.5325 90.8898 35.5349 90.8898 35.5374C90.8898 35.5398 90.8898 35.5423 90.8898 35.5448C90.8898 35.5472 90.8898 35.5497 90.8898 35.5521C90.8898 35.5546 90.8898 35.557 90.8898 35.5595C90.8898 35.5619 90.8898 35.5644 90.8898 35.5668C90.8898 35.5693 90.8898 35.5717 90.8898 35.5742C90.8898 35.5766 90.8898 35.579 90.8898 35.5815C90.8898 35.5839 90.8898 35.5864 90.8898 35.5888C90.8898 35.5912 90.8898 35.5937 90.8898 35.5961C90.8898 35.5985 90.8898 35.601 90.8898 35.6034C90.8898 35.6058 90.8898 35.6083 90.8898 35.6107C90.8898 35.6131 90.8898 35.6155 90.8898 35.618C90.8898 35.6204 90.8898 35.6228 90.8898 35.6252C90.8898 35.6277 90.8898 35.6301 90.8898 35.6325C90.8898 35.6349 90.8898 35.6373 90.8898 35.6398C90.8898 35.6422 90.8898 35.6446 90.8898 35.647C90.8898 35.6494 90.8898 35.6518 90.8898 35.6542C90.8898 35.6566 90.8898 35.659 90.8898 35.6615C90.8898 35.6639 90.8898 35.6663 90.8898 35.6687C90.8898 35.6711 90.8898 35.6735 90.8898 35.6759C90.8898 35.6783 90.8898 35.6807 90.8898 35.6831C90.8898 35.6855 90.8898 35.6879 90.8898 35.6903C90.8898 35.6927 90.8898 35.695 90.8898 35.6974C90.8898 35.6998 90.8898 35.7022 90.8898 35.7046C90.8898 35.707 90.8898 35.7094 90.8898 35.7118C90.8898 35.7142 90.8898 35.7165 90.8898 35.7189C90.8898 35.7213 90.8898 35.7237 90.8898 35.7261C90.8898 35.7284 90.8898 35.7308 90.8898 35.7332C90.8898 35.7356 90.8898 35.738 90.8898 35.7403C90.8898 35.7427 90.8898 35.7451 90.8898 35.7474C90.8898 35.7498 90.8898 35.7522 90.8898 35.7545C90.8898 35.7569 90.8898 35.7593 90.8898 35.7616C90.8898 35.764 90.8898 35.7664 90.8898 35.7687C90.8898 35.7711 90.8898 35.7735 90.8898 35.7758C90.8898 35.7782 90.8898 35.7805 90.8898 35.7829C90.8898 35.7852 90.8898 35.7876 90.8898 35.7899C90.8898 35.7923 90.8898 35.7946 90.8898 35.797C90.8898 35.7993 90.8898 35.8017 90.8898 35.804C90.8898 35.8064 90.8898 35.8087 90.8898 35.8111C90.8898 35.8134 90.8898 35.8158 90.8898 35.8181C90.8898 35.8204 90.8898 35.8228 90.8898 35.8251C90.8898 35.8274 90.8898 35.8298 90.8898 35.8321C90.8898 35.8344 90.8898 35.8368 90.8898 35.8391C90.8898 35.8414 90.8898 35.8438 90.8898 35.8461C90.8898 35.8484 90.8898 35.8507 90.8898 35.8531C90.8898 35.8554 90.8898 35.8577 90.8898 35.86C90.8898 35.8624 90.8898 35.8647 90.8898 35.867C90.8898 35.8693 90.8898 35.8716 90.8898 35.8739C90.8898 35.8763 90.8898 35.8786 90.8898 35.8809C90.8898 35.8832 90.8898 35.8855 90.8898 35.8878C90.8898 35.8901 90.8898 35.8924 90.8898 35.8947C90.8898 35.897 90.8898 35.8994 90.8898 35.9017C90.8898 35.904 90.8898 35.9063 90.8898 35.9086C90.8898 35.9109 90.8898 35.9132 90.8898 35.9155C90.8898 35.9178 90.8898 35.9201 90.8898 35.9223C90.8898 35.9246 90.8898 35.9269 90.8898 35.9292C90.8898 35.9315 90.8898 35.9338 90.8898 35.9361C90.8898 35.9384 90.8898 35.9407 90.8898 35.9429C90.8898 35.9452 90.8898 35.9475 90.8898 35.9498C90.8898 35.9521 90.8898 35.9544 90.8898 35.9566C90.8898 35.9589 90.8898 35.9612 90.8898 35.9635C90.8898 35.9657 90.8898 35.968 90.8898 35.9703C90.8898 35.9726 90.8898 35.9748 90.8898 35.9771C90.8898 35.9794 90.8898 35.9816 90.8898 35.9839C90.8898 35.9862 90.8898 35.9884 90.8898 35.9907C90.8898 35.993 90.8898 35.9952 90.8898 35.9975C90.8898 35.9997 90.8898 36.002 90.8898 36.0043C90.8898 36.0065 90.8898 36.0088 90.8898 36.011C90.8898 36.0133 90.8898 36.0155 90.8898 36.0178C90.8898 36.02 90.8898 36.0223 90.8898 36.0245C90.8898 36.0268 90.8898 36.029 90.8898 36.0313C90.8898 36.0335 90.8898 36.0358 90.8898 36.038C90.8898 36.0403 90.8898 36.0425 90.8898 36.0447C90.8898 36.047 90.8898 36.0492 90.8898 36.0514C90.8898 36.0537 90.8898 36.0559 90.8898 36.0581C90.8898 36.0604 90.8898 36.0626 90.8898 36.0648C90.8898 36.0671 90.8898 36.0693 90.8898 36.0715C90.8898 36.0738 90.8898 36.076 90.8898 36.0782C90.8898 36.0804 90.8898 36.0826 90.8898 36.0849C90.8898 36.0871 90.8898 36.0893 90.8898 36.0915C90.8898 36.0937 90.8898 36.096 90.8898 36.0982C90.8898 36.1004 90.8898 36.1026 90.8898 36.1048C90.8898 36.107 90.8898 36.1092 90.8898 36.1114C90.8898 36.1137 90.8898 36.1159 90.8898 36.1181C90.8898 36.1203 90.8898 36.1225 90.8898 36.1247C90.8898 36.1269 90.8898 36.1291 90.8898 36.1313C90.8898 36.1335 90.8898 36.1357 90.8898 36.1379C90.8898 36.1401 90.8898 36.1423 90.8898 36.1445C90.8898 36.1466 90.8898 36.1488 90.8898 36.151C90.8898 36.1532 90.8898 36.1554 90.8898 36.1576C90.8898 36.1598 90.8898 36.162 90.8898 36.1642C90.8898 36.1663 90.8898 36.1685 90.8898 36.1707C90.8898 36.1729 90.8898 36.1751 90.8898 36.1772C90.8898 36.1794 90.8898 36.1816 90.8898 36.1838C90.8898 36.1859 90.8898 36.1881 90.8898 36.1903C90.8898 36.1925 90.8898 36.1946 90.8898 36.1968C90.8898 36.199 90.8898 36.2011 90.8898 36.2033C90.8898 36.2055 90.8898 36.2076 90.8898 36.2098C90.8898 36.212 90.8898 36.2141 90.8898 36.2163C90.8898 36.2184 90.8898 36.2206 90.8898 36.2228C90.8898 36.2249 90.8898 36.2271 90.8898 36.2292C90.8898 36.2314 90.8898 36.2335 90.8898 36.2357C90.8898 36.2378 90.8898 36.24 90.8898 36.2421C90.8898 36.2443 90.8898 36.2464 90.8898 36.2486C90.8898 36.2507 90.8898 36.2528 90.8898 36.255C90.8898 36.2571 90.8898 36.2593 90.8898 36.2614C90.8898 36.2635 90.8898 36.2657 90.8898 36.2678C90.8898 36.27 90.8898 36.2721 90.8898 36.2742C90.8898 36.2763 90.8898 36.2785 90.8898 36.2806C90.8898 36.2827 90.8898 36.2849 90.8898 36.287C90.8898 36.2891 90.8898 36.2912 90.8898 36.2934C90.8898 36.2955 90.8898 36.2976 90.8898 36.2997C90.8898 36.3018 90.8898 36.304 90.8898 36.3061C90.8898 36.3082 90.8898 36.3103 90.8898 36.3124C90.8898 36.3145 90.8898 36.3167 90.8898 36.3188C90.8898 36.3209 90.8898 36.323 90.8898 36.3251C90.8898 36.3272 90.8898 36.3293 90.8898 36.3314C90.8898 36.3335 90.8898 36.3356 90.8898 36.3377C90.8898 36.3398 90.8898 36.3419 90.8898 36.344C90.8898 36.3461 90.8898 36.3482 90.8898 36.3503C90.8898 36.3524 90.8898 36.3545 90.8898 36.3566C90.8898 36.3587 90.8898 36.3608 90.8898 36.3629C90.8898 36.365 90.8898 36.367 90.8898 36.3691C90.8898 36.3712 90.8898 36.3733 90.8898 36.3754C90.8898 36.3775 90.8898 36.3796 90.8898 36.3816C90.8898 36.3837 90.8898 36.3858 90.8898 36.3879C90.8898 36.3899 90.8898 36.392 90.8898 36.3941C90.8898 36.3962 90.8898 36.3982 90.8898 36.4003C90.8898 36.4024 90.8898 36.4045 90.8898 36.4065C90.8898 36.4086 90.8898 36.4107 90.8898 36.4127C90.8898 36.4148 90.8898 36.4169 90.8898 36.4189C90.8898 36.421 90.8898 36.423 90.8898 36.4251C90.8898 36.4272 90.8898 36.4292 90.8898 36.4313C90.8898 36.4333 90.8898 36.4354 90.8898 36.4374C90.8898 36.4395 90.8898 36.4415 90.8898 36.4436C90.8898 36.4456 90.8898 36.4477 90.8898 36.4497C90.8898 36.4518 90.8898 36.4538 90.8898 36.4559C90.8898 36.4579 90.8898 36.4599 90.8898 36.462C90.8898 36.464 90.8898 36.4661 90.8898 36.4681C90.8898 36.4701 90.8898 36.4722 90.8898 36.4742C90.8898 36.4762 90.8898 36.4783 90.8898 36.4803C90.8898 36.4823 90.8898 36.4844 90.8898 36.4864C90.8898 36.4884 90.8898 36.4905 90.8898 36.4925C90.8898 36.4945 90.8898 36.4965 90.8898 36.4986C90.8898 36.5006 90.8898 36.5026 90.8898 36.5046C90.8898 36.5066 90.8898 36.5087 90.8898 36.5107C90.8898 36.5127 90.8898 36.5147 90.8898 36.5167C90.8898 36.5187 90.8898 36.5207 90.8898 36.5228C90.8898 36.5248 90.8898 36.5268 90.8898 36.5288C90.8898 36.5308 90.8898 36.5328 90.8898 36.5348C90.8898 36.5368 90.8898 36.5388 90.8898 36.5408C90.8898 36.5428 90.8898 36.5448 90.8898 36.5468C90.8898 36.5488 90.8898 36.5508 90.8898 36.5528C90.8898 36.5548 90.8898 36.5568 90.8898 36.5588C90.8898 36.5608 90.8898 36.5628 90.8898 36.5647C90.8898 36.5667 90.8898 36.5687 90.8898 36.5707C90.8898 36.5727 90.8898 36.5747 90.8898 36.5767C90.8898 36.5786 90.8898 36.5806 90.8898 36.5826C90.8898 36.5846 90.8898 36.5866 90.8898 36.5885C90.8898 36.5905 90.8898 36.5925 90.8898 36.5945C90.8898 36.5964 90.8898 36.5984 90.8898 36.6004C90.8898 36.6023 90.8898 36.6043 90.8898 36.6063C90.8898 36.6082 90.8898 36.6102 90.8898 36.6122C90.8898 36.6141 90.8898 36.6161 90.8898 36.6181C90.8898 36.62 90.8898 36.622 90.8898 36.6239C90.8898 36.6259 90.8898 36.6279 90.8898 36.6298C90.8898 36.6318 90.8898 36.6337 90.8898 36.6357C90.8898 36.6376 90.8898 36.6396 90.8898 36.6415C90.8898 36.6435 90.8898 36.6454 90.8898 36.6474C90.8898 36.6493 90.8898 36.6513 90.8898 36.6532C90.8898 36.6551 90.8898 36.6571 90.8898 36.659C90.8898 36.661 90.8898 36.6629 90.8898 36.6648C90.8898 36.6668 90.8898 36.6687 90.8898 36.6706C90.8898 36.6726 90.8898 36.6745 90.8898 36.6764C90.8898 36.6784 90.8898 36.6803 90.8898 36.6822C90.8898 36.6842 90.8898 36.6861 90.8898 36.688C90.8898 36.6899 90.8898 36.6919 90.8898 36.6938C90.8898 36.6957 90.8898 36.6976 90.8898 36.6995C90.8898 36.7015 90.8898 36.7034 90.8898 36.7053C90.8898 36.7072 90.8898 36.7091 90.8898 36.711C90.8898 36.7129 90.8898 36.7149 90.8898 36.7168C90.8898 36.7187 90.8898 36.7206 90.8898 36.7225C90.8898 36.7244 90.8898 36.7263 90.8898 36.7282C90.8898 36.7301 90.8898 36.732 90.8898 36.7339C90.8898 36.7358 90.8898 36.7377 90.8898 36.7396C90.8898 36.7415 90.8898 36.7434 90.8898 36.7453C90.8898 36.7472 90.8898 36.7491 90.8898 36.751C90.8898 36.7529 90.8898 36.7547 90.8898 36.7566C90.8898 36.7585 90.8898 36.7604 90.8898 36.7623C90.8898 36.7642 90.8898 36.7661 90.8898 36.7679C90.8898 36.7698 90.8898 36.7717 90.8898 36.7736C90.8898 36.7755 90.8898 36.7773 90.8898 36.7792C90.8898 36.7811 90.8898 36.783 90.8898 36.7848C90.8898 36.7867 90.8898 36.7886 90.8898 36.7905C90.8898 36.7923 90.8898 36.7942 90.8898 36.7961C90.8898 36.7979 90.8898 36.7998 90.8898 36.8017C90.8898 36.8035 90.8898 36.8054 90.8898 36.8072C90.8898 36.8091 90.8898 36.811 90.8898 36.8128C90.8898 36.8147 90.8898 36.8165 90.8898 36.8184C90.8898 36.8202 90.8898 36.8221 90.8898 36.8239C90.8898 36.8258 90.8898 36.8276 90.8898 36.8295C90.8898 36.8313 90.8898 36.8332 90.8898 36.835C90.8898 36.8369 90.8898 36.8387 90.8898 36.8406C90.8898 36.8424 90.8898 36.8443 90.8898 36.8461C90.8898 36.8479 90.8898 36.8498 90.8898 36.8516C90.8898 36.8534 90.8898 36.8553 90.8898 36.8571C90.8898 36.8589 90.8898 36.8608 90.8898 36.8626C90.8898 36.8644 90.8898 36.8663 90.8898 36.8681C90.8898 36.8699 90.8898 36.8717 90.8898 36.8736C90.8898 36.8754 90.8898 36.8772 90.8898 36.879C90.8898 36.8809 90.8898 36.8827 90.8898 36.8845C90.8898 36.8863 90.8898 36.8881 90.8898 36.8899C90.8898 36.8918 90.8898 36.8936 90.8898 36.8954C90.8898 36.8972 90.8898 36.899 90.8898 36.9008C90.8898 36.9026 90.8898 36.9044 90.8898 36.9062C90.8898 36.908 90.8898 36.9098 90.8898 36.9116C90.8898 36.9134 90.8898 36.9152 90.8898 36.917C90.8898 36.9188 90.8898 36.9206 90.8898 36.9224C90.8898 36.9242 90.8898 36.926 90.8898 36.9278C90.8898 36.9296 90.8898 36.9314 90.8898 36.9332C90.8898 36.935 90.8898 36.9368 90.8898 36.9386C90.8898 36.9404 90.8898 36.9421 90.8898 36.9439C90.8898 36.9457 90.8898 36.9475 90.8898 36.9493C90.8898 36.9511 90.8898 36.9528 90.8898 36.9546C90.8898 36.9564 90.8898 36.9582 90.8898 36.9599C90.8898 36.9617 90.8898 36.9635 90.8898 36.9653C90.8898 36.967 90.8898 36.9688 90.8898 36.9706C90.8898 36.9723 90.8898 36.9741 90.8898 36.9759C90.8898 36.9776 90.8898 36.9794 90.8898 36.9812C90.8898 36.9829 90.8898 36.9847 90.8898 36.9865C90.8898 36.9882 90.8898 36.99 90.8898 36.9917C90.8898 36.9935 90.8898 36.9952 90.8898 36.997C90.8898 36.9987 90.8898 37.0005 90.8898 37.0023C90.8898 37.004 90.8898 37.0058 90.8898 37.0075C90.8898 37.0092 90.8898 37.011 90.8898 37.0127C90.8898 37.0145 90.8898 37.0162 90.8898 37.018C90.8898 37.0197 90.8898 37.0215 90.8898 37.0232C90.8898 37.0249 90.8898 37.0267 90.8898 37.0284C90.8898 37.0301 90.8898 37.0319 90.8898 37.0336C90.8898 37.0353 90.8898 37.0371 90.8898 37.0388C90.8898 37.0405 90.8898 37.0422 90.8898 37.044C90.8898 37.0457 90.8898 37.0474 90.8898 37.0491C90.8898 37.0509 90.8898 37.0526 90.8898 37.0543C90.8898 37.056 90.8898 37.0578 90.8898 37.0595C90.8898 37.0612 90.8898 37.0629 90.8898 37.0646C90.8898 37.0663 90.8898 37.068 90.8898 37.0698C90.8898 37.0715 90.8898 37.0732 90.8898 37.0749C90.8898 37.0766 90.8898 37.0783 90.8898 37.08C90.8898 37.0817 90.8898 37.0834 90.8898 37.0851C90.8898 37.0868 90.8898 37.0885 90.8898 37.0902C90.8898 37.0919 90.8898 37.0936 90.8898 37.0953C90.8898 37.097 90.8898 37.0987 90.8898 37.1004H93.8898ZM93.8898 33.3004L96.8876 33.4157C96.9545 31.678 97.0213 29.8406 97.0881 27.9038L94.0898 27.8004L91.0916 27.697C91.0251 29.6268 90.9586 31.4561 90.8921 33.1851L93.8898 33.3004ZM94.0898 27.8004L97.0882 27.9003C97.1546 25.9076 97.2209 24.1514 97.287 22.6307L94.2898 22.5004L91.2927 22.3701C91.2255 23.916 91.1584 25.6932 91.0915 27.7004L94.0898 27.8004ZM94.2898 22.5004L92.1685 20.3791C91.4684 21.0791 90.6752 21.9073 89.7915 22.859L91.9898 24.9004L94.1882 26.9417C95.0378 26.0268 95.7779 25.255 96.4112 24.6217L94.2898 22.5004ZM91.9898 24.9004L89.8685 22.7791C89.0828 23.5648 88.3131 24.2437 87.5607 24.8225L89.3898 27.2004L91.219 29.5783C92.1999 28.8237 93.1635 27.9693 94.1112 27.0217L91.9898 24.9004ZM89.3898 27.2004L87.4777 24.8887L79.3777 31.5887L81.2898 33.9004L83.202 36.2121L91.302 29.5121L89.3898 27.2004ZM81.2898 33.9004L83.6175 32.0078L74.9175 21.3078L72.5898 23.2004L70.2622 25.093L78.9622 35.793L81.2898 33.9004ZM72.5898 23.2004L74.4783 25.5314L98.1783 6.33143L96.2898 4.00039L94.4014 1.66934L70.7014 20.8693L72.5898 23.2004ZM96.2898 4.00039V7.00039H111.29V4.00039V1.00039H96.2898V4.00039ZM111.29 4.00039H108.29V75.4004H111.29H114.29V4.00039H111.29ZM51.3 59.4004L48.4304 58.5255L48.4255 58.5416L48.4208 58.5577L51.3 59.4004ZM43.3 72.0004L41.4465 69.6414L41.4362 69.6496L41.4259 69.6578L43.3 72.0004ZM9.1 66.7004L6.56043 68.2974L6.5663 68.3068L6.57224 68.3161L9.1 66.7004ZM5.4 20.0004L2.5304 19.1255L2.52551 19.1416L2.52079 19.1577L5.4 20.0004ZM13.5 7.40039L15.3535 9.75935L15.3535 9.75934L13.5 7.40039ZM42.8 7.40039L40.9465 9.75935L40.9597 9.76967L40.9729 9.77984L42.8 7.40039ZM51.1 19.9004L48.2505 20.8386V20.8386L51.1 19.9004ZM21.9 56.9004L19.0211 57.7442L19.0231 57.751L19.0251 57.7578L21.9 56.9004ZM34.9 56.9004L32.0393 55.997L32.032 56.0199L32.0251 56.043L34.9 56.9004ZM35.9 27.0004L32.9279 27.4083L32.9318 27.4368L32.9362 27.4653L35.9 27.0004ZM33.4 19.4004L30.9334 21.108L30.9492 21.1308L30.9654 21.1533L33.4 19.4004ZM23.4 19.4004L25.8346 21.1533L25.8508 21.1308L25.8666 21.108L23.4 19.4004ZM53.8 39.7004H50.8C50.8 47.1649 49.9869 53.4204 48.4304 58.5255L51.3 59.4004L54.1696 60.2753C55.9465 54.4471 56.8 47.5692 56.8 39.7004H53.8ZM51.3 59.4004L48.4208 58.5577C46.9605 63.5469 44.5967 67.1663 41.4465 69.6414L43.3 72.0004L45.1535 74.3593C49.47 70.9678 52.4395 66.1872 54.1792 60.2431L51.3 59.4004ZM43.3 72.0004L41.4259 69.6578C38.4455 72.0421 34.2135 73.4004 28.4 73.4004V76.4004V79.4004C35.1198 79.4004 40.8212 77.8253 45.1741 74.343L43.3 72.0004ZM28.4 76.4004V73.4004C20.524 73.4004 15.1259 70.5576 11.6278 65.0847L9.1 66.7004L6.57224 68.3161C11.3408 75.7765 18.8093 79.4004 28.4 79.4004V76.4004ZM9.1 66.7004L11.6396 65.1033C7.99014 59.3001 6 50.9367 6 39.7004H3H0C0 51.5308 2.07653 61.1673 6.56043 68.2974L9.1 66.7004ZM3 39.7004H6C6 32.2272 6.78155 25.9601 8.27921 20.8431L5.4 20.0004L2.52079 19.1577C0.818452 24.974 0 31.8402 0 39.7004H3ZM5.4 20.0004L8.2696 20.8753C9.79445 15.8737 12.194 12.2418 15.3535 9.75935L13.5 7.40039L11.6465 5.04143C7.33938 8.42563 4.33888 13.1937 2.5304 19.1255L5.4 20.0004ZM13.5 7.40039L15.3535 9.75934C18.4158 7.3532 22.6654 6.00039 28.4 6.00039V3.00039V0.000386953C21.7346 0.000386953 16.0508 1.58091 11.6465 5.04144L13.5 7.40039ZM28.4 3.00039V6.00039C33.7568 6.00039 37.8566 7.33155 40.9465 9.75935L42.8 7.40039L44.6535 5.04144C40.2767 1.60256 34.7765 0.000386953 28.4 0.000386953V3.00039ZM42.8 7.40039L40.9729 9.77984C44.1311 12.2049 46.5965 15.8153 48.2505 20.8386L51.1 19.9004L53.9495 18.9621C52.0035 13.0522 48.9355 8.32921 44.6271 5.02094L42.8 7.40039ZM51.1 19.9004L48.2505 20.8386C49.9232 25.9187 50.8 32.1836 50.8 39.7004H53.8H56.8C56.8 31.7505 55.8768 24.8154 53.9495 18.9621L51.1 19.9004ZM20.2 39.8004H17.2C17.2 47.4171 17.7655 53.4605 19.0211 57.7442L21.9 56.9004L24.7789 56.0566C23.7678 52.607 23.2 47.2503 23.2 39.8004H20.2ZM21.9 56.9004L19.0251 57.7578C19.6947 60.0029 20.7578 61.9935 22.397 63.431C24.0892 64.9149 26.1586 65.6004 28.4 65.6004V62.6004V59.6004C27.4414 59.6004 26.8275 59.3359 26.353 58.9198C25.8255 58.4573 25.2386 57.5979 24.7749 56.043L21.9 56.9004ZM28.4 62.6004V65.6004C30.6414 65.6004 32.7108 64.9149 34.403 63.431C36.0422 61.9935 37.1053 60.0029 37.7749 57.7578L34.9 56.9004L32.0251 56.043C31.5614 57.5979 30.9745 58.4573 30.447 58.9198C29.9725 59.3359 29.3586 59.6004 28.4 59.6004V62.6004ZM34.9 56.9004L37.7607 57.8038C39.103 53.5534 39.7 47.4455 39.7 39.7004H36.7H33.7C33.7 47.2886 33.097 52.6474 32.0393 55.997L34.9 56.9004ZM36.7 39.7004H39.7C39.7 34.5435 39.4296 30.1427 38.8638 26.5355L35.9 27.0004L32.9362 27.4653C33.4371 30.6581 33.7 34.724 33.7 39.7004H36.7ZM35.9 27.0004L38.8721 26.5924C38.3782 22.9936 37.4523 19.8943 35.8346 17.6475L33.4 19.4004L30.9654 21.1533C31.7477 22.2398 32.4885 24.2071 32.9279 27.4083L35.9 27.0004ZM33.4 19.4004L35.8666 17.6928C34.0983 15.1385 31.5037 13.8004 28.4 13.8004V16.8004V19.8004C29.563 19.8004 30.3017 20.1956 30.9334 21.108L33.4 19.4004ZM28.4 16.8004V13.8004C25.2963 13.8004 22.7017 15.1385 20.9334 17.6928L23.4 19.4004L25.8666 21.108C26.4983 20.1956 27.237 19.8004 28.4 19.8004V16.8004ZM23.4 19.4004L20.9654 17.6475C19.3477 19.8943 18.4218 22.9936 17.9279 26.5924L20.9 27.0004L23.8721 27.4083C24.3115 24.2071 25.0523 22.2398 25.8346 21.1533L23.4 19.4004ZM20.9 27.0004L17.9279 26.5924C17.436 30.1762 17.2 34.5904 17.2 39.8004H20.2H23.2C23.2 34.7437 23.4307 30.6246 23.8721 27.4083L20.9 27.0004Z" fill="url(#paint0_linear_12_325)" mask="url(#path-1-outside-1_12_325)"/>
<defs>
<linearGradient id="paint0_linear_12_325" x1="62.5" y1="-0.599609" x2="62.5" y2="85.4004" gradientUnits="userSpaceOnUse">
<stop stop-color="#00B2B2"/>
<stop offset="0.865385" stop-color="#003555"/>
</linearGradient>
</defs>
</svg>
