<svg width="84" height="69" viewBox="0 0 84 69" fill="none" xmlns="http://www.w3.org/2000/svg">
<path d="M40.7743 7.81989L20.5558 6.80896C20.5558 6.80896 12.3 17.2551 12.637 17.7606C12.8054 18.0976 13.8164 24.6685 13.9849 25.8479C13.4794 26.1849 12.9739 26.3534 12.3 26.6904C12.1315 26.6904 12.1315 26.8589 11.963 26.8589V43.3706L17.3546 43.5391C17.6916 41.3487 18.197 39.4954 18.871 37.979C19.5449 36.4626 20.7243 35.2832 22.4092 34.2723C23.9256 33.4298 25.6105 32.9244 27.2953 32.7559C28.9802 32.7559 30.4966 33.0929 31.8445 33.7668C32.8554 34.4408 33.6978 35.1147 34.3718 35.9571C34.8772 36.7996 35.3827 37.979 35.5512 39.3269C35.8881 40.6748 36.0566 43.2021 36.2251 47.0773H40.9427V7.81989H40.7743Z" fill="#00B2B2"/>
<path d="M41.2796 47.9186H36.0565H35.3826C35.2141 44.0434 34.8771 40.8422 34.5401 39.6628C34.3716 38.3149 33.8662 37.304 33.3607 36.4615C32.8553 35.7876 32.1813 35.1136 31.1704 34.4397C29.991 33.7657 28.4746 33.4287 26.9582 33.4287C25.4418 33.4287 23.9255 33.9342 22.4091 34.7767C20.8927 35.6191 19.8818 36.7985 19.2078 38.1464C18.5339 39.4943 18.0284 41.3476 17.6914 43.5379V44.2119L11.1205 43.8749V26.3523L11.7944 26.0153C12.1314 25.8468 12.6368 25.5099 12.9738 25.3414C12.4684 21.8032 11.9629 18.265 11.7944 17.928C11.6259 17.591 11.4574 17.254 19.8818 6.47085L20.0503 6.13391L41.1111 7.14479V47.9186H41.2796ZM36.562 46.5707H40.1002V8.32422L20.8927 7.31329C17.523 11.6939 13.8162 16.5801 13.3108 17.591C13.4793 18.0965 13.8162 19.9498 14.4902 25.5099V26.0153L13.8163 26.3523C13.3108 26.5208 12.9738 26.8578 12.4684 27.0263V42.527L16.6805 42.6955C17.0175 40.6737 17.523 38.8203 18.1969 37.4724C19.0393 35.7875 20.2187 34.6082 21.9036 33.5972C23.5885 32.5863 25.2733 32.0809 26.9582 32.0809C28.6431 32.0809 30.3279 32.4178 31.8443 33.2602C33.0237 33.9342 33.8662 34.7767 34.5401 35.6191C35.2141 36.4615 35.551 37.8094 35.888 39.3258C36.225 40.6737 36.3935 43.0325 36.562 46.5707Z" fill="#003555"/>
<path d="M0.673859 42.6968V21.9729L17.3541 22.8153L17.1856 43.5392L0.673859 42.6968Z" fill="#00B2B2"/>
<path d="M36.2245 41.8527L36.056 62.5766L45.3228 67.7996V47.0758L36.2245 41.8527Z" fill="#00B2B2"/>
<path d="M82.727 25.5118L45.3229 47.078L36.2246 41.8549L36.0561 27.1966C35.8876 22.9845 35.7192 20.1202 35.3822 18.6038C35.0452 17.0874 34.7082 16.0765 34.2028 15.2341C33.6973 14.3916 32.8549 13.7176 31.6755 13.0437C30.3276 12.2013 28.8112 11.8643 27.1263 12.0328C25.4415 12.0328 23.9251 12.5383 22.2402 13.5492C20.5554 14.5601 19.3759 15.7395 18.702 17.2559C18.028 18.7722 17.5226 20.6256 17.1856 22.816L0.505432 22.142C0.842406 19.2777 1.34787 16.9189 2.1903 15.4025C3.03273 13.7177 4.21214 12.2013 5.72852 10.6849C7.2449 9.16851 9.43523 7.65216 12.131 6.13578C15.5008 4.28242 19.039 2.76604 22.9142 1.92361C26.7894 1.08117 30.4961 0.912646 34.0343 1.24962C37.5725 1.58659 40.7738 2.59754 43.4696 4.28241C45.4914 5.46182 47.1763 6.6412 48.3557 7.98909C49.5351 9.33698 50.546 10.6849 51.0514 12.2013C51.7254 13.7176 52.0624 15.571 52.0624 17.5929C52.0624 19.6147 51.8939 23.8269 51.3884 30.0609L51.7254 30.2294L71.2699 18.9407L82.727 25.5118Z" fill="#00B2B2"/>
<path d="M82.727 30.0605L45.3229 51.7953L36.2246 46.5722L36.0561 31.9139C35.8876 27.7017 35.7192 24.8374 35.3822 23.321C35.0452 21.8047 34.7082 20.7937 34.2028 19.9513C33.6973 19.1089 32.8549 18.4349 31.6755 17.761C30.3276 16.9186 28.8112 16.5816 27.1263 16.7501C25.4415 16.7501 23.9251 17.2555 22.2402 18.2664C20.5554 19.2774 19.3759 20.4568 18.702 21.9732C18.028 23.4895 17.5226 25.3429 17.1856 27.5332L0.505432 26.8593C0.842406 23.995 1.34787 21.6362 2.1903 20.1198C3.03273 18.4349 4.21214 16.9186 5.72852 15.4022C7.2449 13.8858 9.43523 12.3694 12.131 10.853C15.5008 8.99967 19.039 7.48329 22.9142 6.64085C26.7894 5.79842 30.4961 5.62994 34.0343 5.96692C37.5725 6.30389 40.7738 7.31479 43.4696 8.99966C45.4914 10.1791 47.1763 11.3585 48.3557 12.7064C49.5351 14.0543 50.546 15.4022 51.0514 16.9186C51.7254 18.4349 52.0624 20.2883 52.0624 22.3101C52.0624 24.3319 51.8939 28.5442 51.3884 34.7782L51.7254 34.9466L71.2699 23.658L82.727 30.0605Z" fill="#F2F8FC"/>
<path d="M28.306 32.9231V12.0308L22.409 13.5471L18.3653 18.0962L17.3544 25.0042V41.8529L19.0392 37.4722L23.2514 33.4285L28.306 32.9231Z" fill="#003555"/>
<path d="M71.2699 18.097L52.0624 29.2172C52.5679 23.3201 52.9048 19.445 52.7363 17.4231C52.7363 15.2328 52.2309 13.3794 51.7254 11.6946C51.0515 10.0097 50.2091 8.4933 48.8612 7.14541C47.6818 5.79751 45.9969 4.61813 43.8066 3.27023C41.1108 1.75385 37.741 0.574465 34.0343 0.237491C30.3276 -0.267969 26.6209 0.0689943 22.7457 0.911428C18.8705 1.75386 15.1638 3.10176 11.7941 5.1236C9.09828 6.63998 6.90795 8.32483 5.22309 9.84121C3.53822 11.3576 2.35882 13.0424 1.51638 14.7273C0.842436 16.2437 0.168487 18.4341 0 21.1298V43.2016L17.8596 44.0441V22.6462C18.1966 20.4559 18.702 18.6025 19.376 17.2546C20.0499 15.9067 21.0608 14.7273 22.5772 13.8849C24.0936 13.0424 25.61 12.537 27.1264 12.537C28.6427 12.537 29.9906 12.874 31.3385 13.5479C32.3495 14.0534 33.0234 14.7273 33.5289 15.5697C34.0343 16.2437 34.3713 17.4231 34.7083 18.771C35.0452 20.1189 35.2137 22.9832 35.3822 27.1954L35.5507 41.8537V62.9145L45.3229 68.6431L83.401 46.7398V25.1735L71.2699 18.097ZM16.6802 42.8646L1.3479 42.1907V22.8147L11.4571 23.3201L16.6802 23.4886V42.8646ZM44.649 66.7898L36.7301 62.2406V43.0331L43.975 47.2453L44.4805 47.5822L44.649 66.7898ZM43.4696 45.2234L36.7301 41.3483L36.5616 27.0269C36.3931 22.6462 36.2247 19.9504 35.8877 18.434C35.5507 16.9177 35.2137 15.7382 34.5398 14.7273C33.8658 13.8849 33.0234 13.0425 31.844 12.3685C30.3276 11.5261 28.8112 11.1891 26.9579 11.1891C25.273 11.1891 23.4197 11.6946 21.9033 12.7055C20.2184 13.7164 18.8705 15.0643 18.1966 16.5807C17.5226 17.9286 17.0172 19.7819 16.6802 21.8038L1.3479 21.1298C1.68487 18.6025 2.19034 16.5807 2.86428 15.2328C3.53823 13.7164 4.71764 12.2 6.23402 10.6836C7.7504 9.16726 9.94072 7.65091 12.468 6.13453C15.6693 4.28117 19.2075 2.93324 22.9142 2.0908C26.6209 1.24837 30.3276 1.07989 33.8658 1.41687C37.4041 1.75384 40.4368 2.76478 43.1326 4.28116C45.1544 5.46057 46.6708 6.63999 47.8502 7.8194C49.0296 8.9988 49.8721 10.3467 50.3775 11.8631C50.883 13.3794 51.22 15.0643 51.3885 17.0862C51.3885 19.108 51.22 23.3202 50.7145 29.5542V29.8911L51.7254 30.5651L71.2699 19.2765L81.5476 25.1735L68.2371 32.7554L45.3229 45.8974L43.4696 45.2234Z" fill="#003555"/>
</svg>
