<svg width="21" height="21" viewBox="0 0 21 21" fill="none" xmlns="http://www.w3.org/2000/svg">
<path d="M10.1177 0.843248C7.68407 0.818518 5.34014 1.76107 3.6011 3.46375C1.86206 5.16643 0.870199 7.48992 0.843506 9.92357C0.852883 11.8469 1.47158 13.7177 2.61072 15.2673C3.74987 16.817 5.35085 17.9658 7.18371 18.5486C7.64743 18.6329 7.81605 18.3547 7.81605 18.1102C7.81605 17.8657 7.81605 17.3261 7.81605 16.5673C5.23612 17.1153 4.6881 15.3532 4.6881 15.3532C4.51636 14.8001 4.15123 14.3272 3.6595 14.0211C2.81639 13.4646 3.72695 13.4731 3.72695 13.4731C4.01837 13.512 4.29719 13.6165 4.5425 13.7786C4.78781 13.9406 4.99324 14.1561 5.14338 14.4089C5.40503 14.8626 5.83434 15.1955 6.33892 15.3358C6.84351 15.4761 7.38302 15.4128 7.84134 15.1593C7.88848 14.6976 8.09756 14.2675 8.43152 13.9452C6.37433 13.7176 4.21596 12.9419 4.21596 9.45986C4.19756 8.55156 4.53317 7.67171 5.15181 7.0064C4.87007 6.22658 4.90333 5.36766 5.24455 4.61196C5.24455 4.61196 6.02865 4.36746 7.77389 5.53939C9.29309 5.13456 10.8918 5.13456 12.411 5.53939C14.1816 4.36746 14.9404 4.61196 14.9404 4.61196C15.2816 5.36766 15.3148 6.22658 15.0331 7.0064C15.6661 7.65952 16.0199 8.53346 16.0195 9.443C16.0195 12.9335 13.8443 13.7007 11.804 13.9284C12.0274 14.1453 12.2 14.409 12.3093 14.7005C12.4186 14.9921 12.462 15.3043 12.4363 15.6146V18.1018C12.4363 18.1018 12.6049 18.6329 13.0686 18.5402C14.8963 17.9537 16.4919 16.8047 17.6275 15.2572C18.7631 13.7098 19.3807 11.843 19.392 9.92357C19.3653 7.48992 18.3734 5.16643 16.6344 3.46375C14.8953 1.76107 12.5514 0.818518 10.1177 0.843248Z" fill="white"/>
</svg>
