<svg width="69" height="96" viewBox="0 0 69 96" fill="none" xmlns="http://www.w3.org/2000/svg">
<g filter="url(#filter0_d_132_521)">
<path d="M13.6036 36.3724L28.5989 27.6111L33.3166 38.2258L29.6099 47.3241L20.1746 43.6173C20.1746 43.6173 15.794 41.5955 15.6255 41.09C15.457 40.5846 13.6036 36.3724 13.6036 36.3724Z" fill="#00B2B2"/>
<path d="M29.9468 48.168L20.006 44.2928C15.2884 42.271 15.1199 41.597 15.1199 41.26C15.1199 40.923 14.109 38.7327 13.0981 36.7109V36.5424V36.0369L29.1043 26.6017L34.1589 38.0588L29.9468 48.168ZM16.1309 40.9231C16.4678 41.26 18.6582 42.2709 20.343 43.1134L29.1043 46.4831L32.4741 38.2273L28.2619 28.6235L14.446 36.7109C14.9514 37.8903 15.9624 40.0806 16.1309 40.9231Z" fill="#003555"/>
<path d="M4.84253 54.0655L17.816 46.1466L26.2404 51.2012C26.2404 51.2012 34.8332 60.2995 34.4962 61.6474C34.1592 62.9953 31.6319 72.936 31.6319 72.936C31.6319 72.936 16.1311 74.6209 15.7942 73.4415C15.6257 72.2621 7.8753 65.5226 7.8753 65.5226L4.84253 54.0655Z" fill="#00B2B2"/>
<path d="M18.9953 74.2842C15.2886 74.2842 15.2886 73.7787 15.1201 73.2733C14.7832 72.5993 11.0764 68.8926 7.36974 65.8598L7.20126 65.6914L4 54.0658V53.5603L17.6474 45.3044L26.5772 50.696C32.4743 56.9301 35.3386 60.6368 35.0016 61.6477C34.6646 62.9956 32.1373 72.9363 32.1373 72.9363L31.9688 73.4418H31.4633C25.2293 74.1157 21.3542 74.2842 18.9953 74.2842ZM16.2995 72.9363C17.4789 73.2733 24.5554 72.9363 31.1264 72.2623C31.6318 70.409 33.6537 62.6586 33.8222 61.4792C33.6537 60.6367 29.61 55.7507 25.7348 51.707L17.6474 46.8209L5.5164 54.2343L8.38067 65.0174C11.2449 67.5447 15.6256 71.4199 16.2995 72.9363Z" fill="#003555"/>
<path d="M63.6442 64.8498C63.6442 56.7624 59.6005 49.5175 51.8501 43.115C50.6707 42.441 31.1262 52.2133 31.1262 52.2133C31.1262 52.2133 30.2838 57.7733 29.6099 63.3334C30.4523 64.0073 31.1262 64.6813 31.9687 65.1868C32.8111 65.8607 33.6535 66.3662 34.496 66.8716L36.0123 73.6111L41.0669 85.5737L58.9265 74.959C59.432 74.7905 59.9375 74.4535 60.2744 74.1165C62.4648 72.4317 63.6442 69.3989 63.6442 64.8498Z" fill="#00B2B2"/>
<path d="M40.5618 86.5838L35.1702 73.9473L33.6538 67.3764L33.3168 67.0394C32.6429 66.534 31.9689 66.197 31.4635 65.6915C30.621 65.0176 29.9471 64.5121 29.1047 63.8381L28.7677 63.6697V63.3327C29.4416 57.7726 30.2841 52.2126 30.2841 52.2126V51.8756L30.621 51.7071C43.763 45.1361 51.0079 42.1034 52.0189 42.6088C60.1062 49.1798 64.1499 56.5932 64.1499 65.0176C64.1499 69.5667 62.9705 72.768 60.7802 74.6213L60.4432 74.7898C60.1062 75.1267 59.4323 75.4637 58.9268 75.6322L40.5618 86.5838ZM30.1156 62.9957C30.7895 63.5012 31.4635 64.1751 32.1374 64.6806C32.8114 65.186 33.3168 65.523 33.9908 66.0285L34.8332 66.5339L36.5181 73.6104L41.2357 84.7305L58.5899 74.6213C59.0953 74.4528 59.4323 74.1158 59.7693 73.9473C61.9596 72.2625 62.9705 69.3982 62.9705 65.1861C62.9705 57.2672 59.0953 50.1907 51.5134 43.9567C49.997 44.1252 40.2248 48.5058 31.632 52.8865C31.295 53.8974 30.7895 58.4466 30.1156 62.9957Z" fill="#003555"/>
<path d="M32.3057 38.5651L35.844 40.5869C36.5179 40.9239 37.1919 41.4294 37.8658 41.7664L40.2246 50.8646L40.3931 51.0331L45.6162 48.0003L53.0296 43.6197L58.2527 40.5869C58.2527 40.5869 58.4212 40.5869 58.4212 40.4184H58.5897C58.7582 40.2499 59.0951 40.0815 59.2636 40.0815C61.4539 38.3966 62.4649 35.5323 62.4649 31.4887C62.4649 26.771 60.78 22.2219 57.5788 17.6727C54.209 13.1236 49.6599 9.07991 43.9313 5.71018C39.8877 3.35136 36.3494 1.83497 33.1482 0.992541C30.1154 0.150107 26.9142 0.150097 24.0499 0.824044L5.17938 11.7757L32.6427 25.5916V38.5651H32.3057Z" fill="#00B2B2"/>
<path d="M40.0559 52.0436L39.5505 51.2011L37.3601 42.2714C36.8547 41.9344 36.1807 41.5974 35.5068 41.2604L31.8001 39.0701V26.2651L4.6737 12.6177L4.33673 11.7753L23.7127 0.486642C26.7455 -0.187305 29.9467 -0.187295 33.148 0.655139C36.3492 1.49757 39.8874 3.01396 44.0996 5.37277C49.9966 8.74251 54.7143 12.7862 57.9155 17.5038C61.2852 22.2214 62.9701 26.9391 62.9701 31.8252C62.9701 36.0373 61.7907 39.0701 59.6004 40.9235L59.4319 41.0919L58.9264 41.4289H58.7579L58.5895 41.5974L40.0559 52.0436ZM32.9795 38.2277L36.1807 40.0811C36.8547 40.5865 37.5286 40.9235 38.2026 41.2604L38.3711 41.4289L40.5614 50.1903L57.9155 40.0811C58.084 39.9126 58.2525 39.9126 58.421 39.7441C60.4428 38.2277 61.2852 35.5319 61.2852 31.6567C61.2852 27.1076 59.6004 22.5584 56.3991 18.1778C53.1979 13.6286 48.6487 9.75341 42.9202 6.38368C39.045 4.02486 35.3383 2.50849 32.3055 1.83454C29.2728 1.16059 26.4085 0.992097 23.5442 1.66604L5.8531 12.1122L32.6425 25.5912V38.2277H32.9795Z" fill="#003555"/>
<path d="M43.4261 42.6079C43.4261 46.6516 42.4151 49.5158 40.2248 51.2007C38.0345 52.8856 35.0017 53.2226 30.958 52.2116V52.5486C40.3933 59.2881 45.1109 67.207 45.1109 75.9683C45.1109 82.0338 43.0891 85.572 38.8769 86.5829C34.6648 87.5939 28.9362 86.0775 21.6913 81.8653C18.6585 80.1805 15.7942 78.3271 13.2669 76.3053C10.7396 74.2834 7.87535 71.7561 4.84259 68.7234V54.2335C7.36989 57.0978 9.72871 59.6251 12.4245 61.8154C14.9518 64.0057 17.3106 65.6906 19.501 66.87C22.8707 68.7234 25.2295 69.7343 26.7459 69.3973C28.2623 69.2288 29.1047 67.8809 29.1047 65.6906C29.1047 63.8372 28.7677 62.3209 27.9253 60.973C27.0829 59.6251 25.9035 58.1087 24.0501 56.5923C22.3652 55.0759 20.0064 53.5596 17.1421 51.8747L13.6039 49.8528V36.3739L17.1421 38.3958C24.8925 42.7764 28.7677 42.7764 28.7677 38.2273C28.7677 36.5424 28.2623 34.8575 27.0829 33.3412C25.9035 31.8248 24.3871 30.4768 22.5337 29.4659C18.9955 27.4441 15.2888 26.6017 11.4136 27.2756L5.17958 11.9433C8.21235 11.2694 11.2451 11.4379 14.2779 12.1118C17.3106 12.9542 21.0173 14.4706 25.061 16.8294C30.958 20.1992 35.5072 24.0744 38.7084 28.792C41.7412 33.3411 43.4261 38.0588 43.4261 42.6079Z" fill="#00B2B2"/>
<path d="M18.3213 42.1028C26.0717 46.4835 29.9469 46.4835 29.9469 41.9344C29.9469 40.2495 29.4415 38.5646 28.2621 37.0482C27.4196 35.8688 26.4087 34.8579 25.0608 34.0155L14.9516 39.9125L18.3213 42.1028Z" fill="#F2F8FC"/>
<path d="M13.2667 66.0263C15.794 68.2167 18.1529 69.9015 20.3432 71.0809C23.7129 72.9343 26.0717 73.9452 27.5881 73.6082C29.1045 73.4397 29.9469 72.0918 29.9469 69.9015C29.9469 68.0482 29.61 66.5318 28.7675 65.1839C27.9251 63.836 26.7457 62.3196 24.8923 60.8032C23.2075 59.2869 20.8486 57.7705 17.9844 56.0856L14.4461 54.0638L13.0982 53.8953L5.68481 58.4444C8.21212 61.4772 10.7394 63.836 13.2667 66.0263Z" fill="#F2F8FC"/>
<path d="M43.4258 67.2067L62.1278 56.592L63.6442 63.3315L63.3072 69.734L59.9375 74.6201L42.5834 84.0554L44.6052 80.5172C44.6052 80.5172 44.9422 73.4407 45.1107 72.9353C45.1107 72.5983 43.4258 67.2067 43.4258 67.2067Z" fill="#003555"/>
<path d="M38.0344 58.7827L56.7365 47.831L52.6928 43.7874L39.3823 51.5378L34.4962 52.7172L31.4634 52.5487L38.0344 58.7827Z" fill="#003555"/>
<path d="M36.855 29.6344L55.7255 18.8512C52.6927 15.65 49.1545 12.7857 44.7739 10.2584C40.7302 7.89956 37.1919 6.38318 33.9907 5.54074C30.9579 4.69831 27.7567 4.69833 24.8924 5.37227L6.02191 16.3239H6.19038C9.22314 15.65 12.2559 15.8185 15.2887 16.4924C18.3214 17.3348 22.0281 18.8512 26.0718 21.21C30.4525 23.5688 33.9907 26.4331 36.855 29.6344Z" fill="#F2F8FC"/>
<path d="M40.8988 37.7212C41.0673 38.3951 41.2358 39.0691 41.4043 39.743L60.1063 29.1284C59.7693 25.9271 58.7584 23.3998 58.7584 23.3998L39.5509 34.183C39.8879 35.0254 40.5618 36.3733 40.8988 37.7212Z" fill="#F2F8FC"/>
<path d="M36.1807 87.5948C32.3055 87.5948 27.2509 85.9099 21.3539 82.3717C18.3211 80.6868 15.4568 78.665 12.9295 76.6431C10.4022 74.6213 7.53796 72.094 4.5052 69.0612L4.33673 68.8927V53.7289L5.17916 53.2235L5.51613 53.5605C7.87495 56.4248 10.4022 58.952 12.9295 60.9739C15.4568 63.1642 17.8157 64.8491 19.8375 66.0285C23.8812 68.3873 25.7345 68.7243 26.7455 68.5558C27.4194 68.3873 28.4303 68.0503 28.4303 65.3545C28.4303 63.6697 28.0934 62.1533 27.2509 60.8054C26.577 59.4575 25.2291 58.1096 23.5442 56.5932C21.8593 55.0768 19.5005 53.5605 16.8047 51.8756L13.098 49.6853V35.7009L13.772 35.3639L17.6472 37.5542C23.7127 41.0925 26.24 41.0924 27.2509 40.4185C27.9249 40.0815 28.2618 39.2391 28.2618 37.8912C28.2618 36.3748 27.7564 34.8584 26.7455 33.5105C25.7345 32.1626 24.2182 30.8148 22.3648 29.8038C18.9951 27.782 15.2884 27.108 11.5816 27.6135H11.0762L4.33673 11.2703L5.01067 10.9333C8.04343 10.2593 11.2447 10.2594 14.4459 11.1018C17.6472 11.9442 21.1854 13.4606 25.3976 15.8194C31.2946 19.1891 36.0122 23.2328 39.2135 27.9505C42.5832 32.6681 44.2681 37.3857 44.2681 42.2718C44.2681 46.484 43.0887 49.5168 40.8984 51.3701C39.045 52.8865 36.5177 53.392 33.4849 52.8865C41.7408 59.4575 46.1214 67.0394 46.1214 75.6322C46.1214 82.0347 43.9311 85.7414 39.382 86.9208C38.0341 87.4263 37.1916 87.5948 36.1807 87.5948ZM5.51613 68.3873C8.38041 71.2516 11.0762 73.7789 13.6035 75.8007C16.1308 77.8225 18.9951 79.6759 21.8593 81.3608C29.1043 85.573 34.6643 87.0893 38.5395 86.0784C42.4147 85.0675 44.2681 81.8662 44.2681 75.9692C44.2681 67.3764 39.5505 59.626 30.4522 53.055L30.1152 52.8865V51.5386L30.9576 51.7071C34.8328 52.718 37.6971 52.3811 39.5505 50.8647C41.5723 49.3483 42.4147 46.6525 42.4147 42.7773C42.4147 38.2281 40.7299 33.679 37.5286 29.2983C34.3274 24.7492 29.7782 20.874 24.0497 17.5043C20.1745 15.1455 16.4678 13.6291 13.435 12.9552C10.7392 12.2812 8.04342 12.1127 5.34764 12.6182L11.2447 26.771C15.1199 26.2656 18.8266 27.1081 22.3648 29.1299C24.3867 30.3093 25.903 31.6572 27.0824 33.1736C28.2619 34.69 28.9358 36.5433 28.9358 38.3967C28.9358 40.25 28.4303 41.4294 27.2509 42.1033C25.2291 43.2828 21.6909 42.2719 16.2993 39.2391L13.772 37.7227V49.3483L16.9732 51.2016C19.8375 52.8865 22.1963 54.4029 24.0497 55.9193C25.903 57.4357 27.2509 58.952 28.0934 60.4684C28.9358 61.9848 29.4412 63.6696 29.4412 65.523C29.4412 68.8927 27.9249 69.7352 26.577 69.9037C24.8921 70.0721 22.3648 69.2297 18.8266 67.2079C16.6363 66.0285 14.2774 64.1751 11.7501 61.9848C9.55981 60.1315 7.36948 57.9411 5.34764 55.5823V68.3873H5.51613Z" fill="#003555"/>
</g>
<defs>
<filter id="filter0_d_132_521" x="0" y="0.000488281" width="68.1499" height="95.5942" filterUnits="userSpaceOnUse" color-interpolation-filters="sRGB">
<feFlood flood-opacity="0" result="BackgroundImageFix"/>
<feColorMatrix in="SourceAlpha" type="matrix" values="0 0 0 0 0 0 0 0 0 0 0 0 0 0 0 0 0 0 127 0" result="hardAlpha"/>
<feOffset dy="4"/>
<feGaussianBlur stdDeviation="2"/>
<feComposite in2="hardAlpha" operator="out"/>
<feColorMatrix type="matrix" values="0 0 0 0 0 0 0 0 0 0 0 0 0 0 0 0 0 0 0.25 0"/>
<feBlend mode="normal" in2="BackgroundImageFix" result="effect1_dropShadow_132_521"/>
<feBlend mode="normal" in="SourceGraphic" in2="effect1_dropShadow_132_521" result="shape"/>
</filter>
</defs>
</svg>
